<?xml version="1.0" encoding="UTF-8"?>
<!DOCTYPE svg PUBLIC "-//W3C//DTD SVG 1.1//EN" "http://www.w3.org/Graphics/SVG/1.1/DTD/svg11.dtd">
<!-- Creator: CorelDRAW -->
<svg xmlns="http://www.w3.org/2000/svg" xml:space="preserve" width="32.719mm" height="77.1618mm" version="1.1" style="shape-rendering:geometricPrecision; text-rendering:geometricPrecision; image-rendering:optimizeQuality; fill-rule:evenodd; clip-rule:evenodd"
viewBox="0 0 126.68 298.75"
 xmlns:xlink="http://www.w3.org/1999/xlink"
 xmlns:xodm="http://www.corel.com/coreldraw/odm/2003">
 <defs>
  <style type="text/css">
   <![CDATA[
    .str0 {stroke:#2B2A29;stroke-width:0.77;stroke-miterlimit:22.9256}
    .fil0 {fill:#FEFEFE}
   ]]>
  </style>
 </defs>
 <g id="Слой_x0020_1">
  <metadata id="CorelCorpID_0Corel-Layer"/>
  <path class="fil0 str0" d="M40.67 297.55c20.36,-1.29 30.56,-2.81 51.61,0.05l7.34 0.73c7.78,-46.67 18.47,-91.49 23.42,-140.3 2.95,-29.09 10.19,-135.52 -15.11,-143.34 -10.17,4.39 -2.22,9.1 -13.66,11.2 -8.61,-6.77 -10.3,-30.58 -25.3,-24.55 -8.55,3.44 -12.81,24.83 -22.51,29.54 -9.73,-3.16 -14.2,-26.62 -26.47,-18.25 -7.24,4.93 -13.63,22.76 -15.85,33.31 -12.58,60.01 9.02,152.15 25.75,212.02 3.11,11.14 9.54,29.97 10.78,39.59z"/>
 </g>
</svg>
