<?xml version="1.0" encoding="UTF-8"?>
<!DOCTYPE svg PUBLIC "-//W3C//DTD SVG 1.1//EN" "http://www.w3.org/Graphics/SVG/1.1/DTD/svg11.dtd">
<!-- Creator: CorelDRAW -->
<svg xmlns="http://www.w3.org/2000/svg" xml:space="preserve" width="85.0136mm" height="85.2595mm" version="1.1" style="shape-rendering:geometricPrecision; text-rendering:geometricPrecision; image-rendering:optimizeQuality; fill-rule:evenodd; clip-rule:evenodd"
viewBox="0 0 912.35 914.99"
 xmlns:xlink="http://www.w3.org/1999/xlink"
 xmlns:xodm="http://www.corel.com/coreldraw/odm/2003">
 <defs>
  <style type="text/css">
   <![CDATA[
    .str0 {stroke:#2B2A29;stroke-width:2.15;stroke-miterlimit:22.9256}
    .fil0 {fill:#FECA00}
   ]]>
  </style>
 </defs>
 <g id="Слой_x0020_1">
  <metadata id="CorelCorpID_0Corel-Layer"/>
  <path class="fil0 str0" d="M388.8 5.44c-8.64,0.62 -31.36,6.28 -43.21,9.21 -11.39,2.82 -22.41,10.2 -36.37,12.9 -27.6,11.72 -52.14,22.96 -77.08,39.17 -12.71,8.26 -21.39,14.49 -33.13,23.72 -11.29,8.87 -20.19,19.13 -31.11,24.74 -10.32,13.99 -45.1,51.13 -54.8,59.75 -11.63,20.28 -28.96,41.82 -43.04,66.57 -14.36,25.24 -24.41,48.04 -35.3,74.83 -6.19,28.74 -19.83,48.25 -23.27,79.86 -3.04,33.14 -20.36,133.42 -2.32,161.22 4.18,29.16 15.63,59.04 19.04,87.43 7.59,4.65 15.43,28.17 19.05,35.5 7.53,15.23 13.06,23.75 22.49,38.23 14.29,21.95 46.07,54.64 53.2,69.17l64.01 53.2c13.9,2.11 52.34,27.12 69.6,35.31 19.12,9.08 62.31,20.11 76.61,28.42 30.82,1.97 48.35,6.82 81.88,9.25 51.78,-0.23 106.65,-4.96 148.91,-20.77 25.77,-10.56 50.81,-19.81 75.36,-29.67 17.76,-14.31 57.2,-34.58 98.31,-67.85 11.04,-8.94 4.98,-6.37 15.06,-10.25 5.64,-13.11 38.63,-42.69 52.59,-58.38 24.6,-34.86 56.14,-74.53 69.23,-118.18 6.17,-12.18 10.5,-23.45 14.97,-35.88 3.95,-10.97 5.55,-27.13 11.42,-39.77 2.69,-25.03 9.17,-44.1 10.2,-70.19 0.96,-24.16 -2.64,-54.91 -0.43,-76.88 -0.54,-1.02 -1.08,-2.36 -1.4,-3.17l-20.29 -75.34c-6.5,-22.31 -19.88,-50.34 -30.8,-70.88 -8.17,-15.37 -34.35,-50.08 -38.05,-63.63 -20.09,-11.65 -37.42,-43.83 -59.15,-57.53 -24.28,-30.18 -77.2,-58.2 -114.69,-75.73 -13.61,-6.36 -9.48,-1.25 -15.95,-12.03 -8.15,0.9 -78.57,-18.52 -98.49,-22.2 -58.35,-7.91 -86.61,-3.71 -143.05,-0.13z"/>
 </g>
</svg>
