<?xml version="1.0" encoding="UTF-8"?>
<!DOCTYPE svg PUBLIC "-//W3C//DTD SVG 1.1//EN" "http://www.w3.org/Graphics/SVG/1.1/DTD/svg11.dtd">
<!-- Creator: CorelDRAW -->
<svg xmlns="http://www.w3.org/2000/svg" xml:space="preserve" width="226.595mm" height="403.16mm" version="1.1" style="shape-rendering:geometricPrecision; text-rendering:geometricPrecision; image-rendering:optimizeQuality; fill-rule:evenodd; clip-rule:evenodd"
viewBox="0 0 19842.05 35303.12"
 xmlns:xlink="http://www.w3.org/1999/xlink"
 xmlns:xodm="http://www.corel.com/coreldraw/odm/2003">
 <defs>
  <style type="text/css">
   <![CDATA[
    .fil1 {fill:#050005}
    .fil24 {fill:#090500}
    .fil23 {fill:#0A0205}
    .fil20 {fill:#0D0500}
    .fil15 {fill:#130501}
    .fil11 {fill:#150100}
    .fil10 {fill:#419D28}
    .fil29 {fill:#AE0E10}
    .fil30 {fill:#AE1D24}
    .fil26 {fill:#C9AF30}
    .fil17 {fill:#D60202}
    .fil13 {fill:#D80609}
    .fil18 {fill:#D8BA28}
    .fil25 {fill:#D8BB37}
    .fil14 {fill:#DA0204}
    .fil0 {fill:#DC0000}
    .fil27 {fill:#DCC528}
    .fil28 {fill:#E4C424}
    .fil22 {fill:#E5C41B}
    .fil19 {fill:#EBC413}
    .fil8 {fill:#ECC50B}
    .fil3 {fill:#EDC605}
    .fil2 {fill:#EFC602}
    .fil21 {fill:#F20404}
    .fil12 {fill:#F40405}
    .fil16 {fill:#F60205}
    .fil9 {fill:#F70203}
    .fil4 {fill:#FA0001}
    .fil7 {fill:#FA0200}
    .fil6 {fill:#FB0102}
    .fil5 {fill:#FC0000}
   ]]>
  </style>
 </defs>
 <g id="Слой_x0020_1">
  <metadata id="CorelCorpID_0Corel-Layer"/>
  <g id="_1415797238288">
   <path class="fil0" d="M5518.78 15770.88c239.89,-46.45 8600.03,-45.42 8812.76,-2.07 13.95,190.59 -151.61,315.74 -251.94,558.98l-8340.07 0.01c-31.3,-115.79 -229.17,-450.76 -220.75,-556.92zm8883.51 -281.99l-8958.5 -0.61 -93.5 -138.14c-79.93,-168.42 -114.08,-204.52 -139.06,-441.45l9370.5 -8.15c1.94,157.15 -39.39,434.1 -143.08,553.35 -3.49,4.01 -15.3,21.63 -17.92,16.34 -2.69,-5.41 -12.5,10.85 -18.42,18.66zm407.33 -1151.75c-25.32,97.45 -23.72,182.03 -50.79,303.5l-9438.61 8.27c-183.73,0 -219.85,26.26 -246.71,-129.8 -69.14,-401.93 -195.51,-469.01 90.46,-463.08 117.93,2.45 223.88,0.46 341.6,0.33l8618.69 0.35c860.58,0 771.46,-51.09 685.35,280.43zm-9887.17 -531.48c-168.43,-742.08 -222.8,-601.61 614.01,-601.61 894.69,0 9406.02,-42.91 9477.8,25.6 41.95,40.04 -53.71,486.5 -72.17,567.23l-10019.64 8.78zm10110.3 -849.36c-353.7,44.98 -987.11,8.64 -1371.86,8.64 -852.35,0 -8760.02,30.64 -8839.84,-17.86 -77.96,-47.37 -97.29,-448.26 -77.2,-576.91 774.52,33.79 1713.91,-1.92 2553.42,-1.92 730.24,0 7425.99,-30.1 7822.39,16.33 -44.81,169.51 -6.44,402.3 -86.91,571.72zm380.83 -1408.12l4115.16 -0.72 -28.69 539.77c-142.41,73.14 -3642.58,45.11 -4093.79,26.07l7.32 -565.13zm-10689.72 0.42l10421.36 9.75 -10.21 545.72c-101.59,-10.04 -445.62,15.7 -609.17,15.6 -3233.39,-1.9 -6599.85,37.1 -9803.71,-6.17l1.73 -564.9zm-4377.89 539.43c-36.95,-139.93 -44.62,-396.81 -26.72,-544.37 170.25,32.32 3656.15,-14.86 4116.54,9.24l1.16 563.93c-494.2,13.98 -3897.12,47.92 -4090.99,-28.79zm15054.47 -1376.99l4105.11 11.18 18.88 566.8c-684.63,-3.23 -1376.21,-2.22 -2063.9,-2.22 -341.9,0 -1842.5,40.38 -2058.62,-22.15l-1.47 -553.61zm-273.04 579c-407.52,37.84 -951.66,8.15 -1373.84,8.15l-8309.78 0c-820.16,0 -752.64,76.25 -741.56,-268.69 3.67,-114.29 -8.85,-215.43 18.59,-322.57 233.57,-37.71 8642.39,-7.18 9774.14,-7.13 549,0.02 745.02,-178.99 632.45,590.23zm-14790.5 15.25c-59.12,-194.37 -19.32,-473.08 50.8,-606.01l4070.62 -0.53 -27.24 589.18c-579.35,40.82 -3966.28,-31.92 -4094.18,17.36zm4401.19 -986.44c-2.24,-93.13 16.91,-144.55 25.03,-247.43 10.63,-134.73 12.76,-116.35 62.85,-216.62l10194.15 2.59c87.78,138.38 76.74,393.85 67.63,582.56l-10347.46 -6.16 -2.18 -114.94zm-4340.32 109.16c-18.25,-104.41 26.08,-437.92 134.29,-574.47l3990.98 7.29 -42.65 573.9c-280.16,39.53 -3918.84,36.08 -4082.62,-6.72zm4436.24 -857.58c-9.96,-160.01 55.12,-410.28 89.54,-553.15l10021.65 11.09c21.58,161.44 70.32,384.82 48.44,549.08 -79.21,35.71 -205.82,33.99 -313.33,33.99l-9638.11 0c-118.92,0 -106.25,-15.13 -208.19,-41.02zm175.8 -827.73c-16.96,-142.44 68.06,-457.97 112.28,-562.31l9341.98 0.7c414.92,0.04 264.82,27.04 407.75,573.8l-9862.01 -12.19zm216.21 -832.04c-1.14,-218.63 76.42,-411.76 188.35,-580.04l9049.69 12.64c50.06,110.31 153.1,434.9 147.65,569l-9385.7 -1.6zm312.37 -841.17c-4.49,-181.89 153.63,-448.17 215.28,-579.65l8339.71 7.12c59.21,79.61 74.78,181.34 128.24,266.7 63.38,101.21 108.78,140.49 88.04,308.91l-8771.27 -3.07zm395.18 -835.69c7.45,-152.6 0.33,-84.13 66.92,-176.98l269.87 -412.94 7307.38 6.99c125.89,182.95 306.31,361.6 333.6,583.71l-7977.77 -0.78zm630.15 -870.21c18.46,-145.15 133.36,-257.94 244.29,-354.29 312.16,-271.13 188.59,-200.68 705.5,-200.64l5189.75 -3.84c225.03,0 408.45,302.71 479.07,369.4 101.1,95.5 98.06,17.72 120.84,171.12 -92.33,51.22 -196.91,36.38 -321.88,36.63 -1965.07,3.93 -4015.4,-24.3 -5962.03,-1.19l-455.54 -17.18zm913.23 -821.14c167.64,-142.67 212.17,-174.27 447.82,-222.72 166.58,-34.26 3797.04,-51.68 3982.99,-20.04 158.76,27.01 391.31,120.48 455.91,245.19l-4886.72 -2.43zm-1847.96 -94.07l-1061.4 358.97c-64.98,39.62 -36.59,20.07 -80.39,74.47 101.64,-16.65 161.96,-52.99 248.1,-66.31l1868.24 -8.91c-8.41,93.83 -42.38,94.32 -105.46,142.8 -92.58,71.16 -57.46,71.81 -124.97,151.68 -49.68,58.79 -190.39,220.44 -249.71,272.78 -413.48,9.05 -821.93,9.72 -1235.65,9.73l-1243.81 -1.69 8 -67.21c-112.89,43.9 -457.63,262.39 -532.64,382.41 142.69,-3.77 134.53,-54.5 347.33,-53.16 113.21,0.71 226.68,-0.02 339.92,-0.01 621.16,0.06 1543.06,-23.23 2101.31,6.83 -11.03,207.26 -102.02,176.87 -188.61,338.15 -75.5,140.64 -69.99,218.07 -252.59,242.86 -367.51,49.9 -2594.27,-34.47 -2908.51,8.44l-4.27 -70.02c-113.05,55.98 -300.82,263.18 -349.84,348.87 167.52,-35.16 566.52,-33.98 768.44,-33.69 617.03,0.92 1990.03,-24.64 2444.26,11.59 -13.27,196.57 -48.07,185.78 -114.57,313.08 -70.61,135.17 -34.19,140.95 -131.59,264.25 -1001.76,38.93 -2224.75,-13.57 -3243.38,-12.36l-128.74 -54.76c-93.39,60.82 -49.97,18.2 -116.46,109.29 -29.69,40.67 -60.33,87.92 -87.47,124.34 -92.44,124.11 -110.71,132.42 -165.33,266.78 214.79,-97.28 194.75,-59.28 217.92,-181.22 316.69,74.09 125.41,-2.65 397.09,-7.57 566.06,-10.23 2764.38,-22.71 3012,24.49 5.86,209.83 -82.77,371.93 -139.92,564.48 -567.11,32.43 -3512.56,-40.29 -3667.07,10.59l44.55 -181.05c-63.89,44.61 -43.35,24.01 -89.06,103.87 -26.57,46.42 -33.5,66.38 -61.88,121.93 -54.06,105.82 -94.16,144.35 -128.7,267.84 87.62,-47.29 11.9,26.73 99.03,-77.12 132.81,103.56 177.05,18.56 407.36,26.18 870.41,28.77 2697.04,-56.94 3303.05,11.71 4.04,116.25 -77.03,448.73 -120.58,520.28 -51.43,54.97 -173.05,45.18 -247.54,42.78 -609.83,-19.66 -3508.03,-27.5 -3611.41,7.31l-20.81 -82.59 -33.31 39.19c-3.53,5.92 -32.43,62.57 -33.4,64.83l-131.81 392.21c73.33,-49.5 116.97,-126.94 172.38,-235.4l36.66 61c71.38,44.73 242.07,17.05 347.08,16.68 942.76,-3.32 2699.9,-37.85 3460.25,1.12l-90.57 533.45c-1.07,-3.78 -7.55,11.41 -11.58,16.94 -53.4,38.15 64.86,8.49 -82.61,35.1l-3337.3 5.97c-401.55,-4.41 -304.5,50.11 -432.48,-44.57l-116.45 64.82 2.95 -247.26c-23.52,29.61 -22.43,13.71 -44.44,68.19 -4.47,11.08 -22.74,87.86 -25.46,99.68 -157.86,685.62 -159.62,589.39 -231.69,1401.12 -31.53,355.25 -19.12,964.78 34.84,1331.93 21.87,148.84 22.98,307.12 84.42,381.28 30.04,-151.92 -23.63,-145.46 29.33,-300.39l3046.71 2.88c1180.16,0 982.11,-67.04 1028.65,287.73 14.6,111.29 24.14,166.17 18.78,284.79 -239.93,41.52 -2750.12,16.05 -3209.82,15.85 -354.68,-0.17 -589.39,44.83 -766.64,-19.12l-126.52 -54.52c14.71,96.95 33.91,168.27 53.66,252.57 8.78,37.52 10.96,65.74 22.15,101.11 38.21,120.86 19.36,61.32 58.96,103.4 9.7,-41.64 18.35,-136.19 34.64,-149.2 43.42,-34.68 50.21,-10.67 44.31,31.61 151.87,-28.4 81.15,16.05 173.55,-79.33l49.17 67.74c535.7,7.33 3433.54,-50.84 3691.92,11.75 46.4,97.35 92.48,437.38 108.5,567.56 -240.09,76.71 -3213.67,-1.65 -3972.05,5.06l158.56 452.29c31.02,46.09 18.03,24.08 51.71,54.31l-20.87 -222.62c281.69,-48.01 3697.42,-28.55 3820.89,20.28 61.34,42.26 73.31,188.68 88.07,257.46 8.14,37.94 26.44,82.56 30.11,133.7 4.3,59.83 1.99,38.17 -6.25,86.59l-24.36 48.28c-193.93,64.87 -1566.99,23.35 -1894.03,23.35l-1699.84 2.67c-116.38,-13.13 -207.23,-146.27 -168.63,-16.71 115,198.5 128.5,298.22 242.04,391.16l-14.82 -103.41c164.93,-36.07 3462.7,-59.43 3717.25,-7.22 4.59,144.29 8.85,169.03 52.12,279.88l43.06 261.21c-82.89,110.11 -2604.35,27.39 -3103.39,37.11 -75.2,1.47 -92.49,19.4 -157.56,9.89 -22.78,-3.34 -81.26,-24.2 -184.93,-8.36 -4.65,-7.8 -11.02,-18.41 -13.82,-23.49l-23.39 -42.91c-2.92,-5.53 -12.32,-26.78 -16.37,-36.95l-87.44 -6.58c44.75,110.96 239.76,398.11 348.08,470.49 -29.73,-145.7 -1.67,-80 10.2,-108.21l3378.35 5.22c96.59,187.36 76.71,206.27 114.19,286.5 66.7,142.79 103.91,51.22 96.08,293.21l-3118.11 7.43c-108.43,-110.95 29.48,-105.74 -163.67,-103.58 36.09,73.9 1.7,22.11 39.68,74.19l413.89 383.67 10.48 -78.3c264.72,-44.64 1788.45,-44.5 2203.4,-26.28 274.74,12.07 486.85,-21.62 678.14,3.37l-30.84 94.66c240.68,-88.37 256.57,-188.7 617.56,-154.66 240.56,22.68 400.47,119.67 603.94,158.92 -36.72,-126.59 -14.07,-35.54 13.99,-77.36l6558.18 -38.97 -56.49 114.2c200.71,-33.43 339.16,-121.8 579.29,-152.11 359.17,-45.32 342.62,20.59 594.02,125.61 -31.58,-141.52 -8.36,-43.31 16.94,-85.14l2872.88 13.3 18.35 102.99c109.22,-47.96 50.46,-8.42 167.89,-134.78 45.46,-48.91 88.33,-88.61 138.38,-139.26 80.6,-81.56 215.91,-190.66 259.05,-313.84 -157.88,49.73 -266.01,224.28 -305.63,239.27 -49.22,18.63 -2629.76,-45.04 -3089.13,19.61 -25.48,-169.2 45.6,-198.25 94.32,-322.39 33.86,-86.31 13.82,-87.92 62.8,-163.08 23.29,-35.75 58.87,-77.46 86.66,-123.28 60.37,-6.23 3008.92,-40.85 3345.41,-3.13l-18.38 134.89 297.4 -395.07c-10.11,1.88 -41.29,8.51 -49.07,9.33 -5.33,0.55 -15.19,2.13 -21,2.45l-111.63 -10.28c-239.8,-29.31 -2844.35,17.92 -3355.35,-9.33 9.9,-151.17 116.27,-436.62 163.09,-578.81 224.18,-33.48 3551.52,-29.16 3664.2,1.98l0.94 116.68c46.88,-36.73 20.66,-1.37 61.58,-53.14l232.31 -482.84c-216.68,168.28 -45.37,175.25 -406.46,155.22 -885.42,-49.12 -2635.75,80.37 -3452.21,-13.4 -15.74,-234.57 112.27,-353.46 135.25,-552.21 590.69,-29.36 1237.35,-5.76 1834.12,-5.76 154.07,0 1637.03,-50.8 1769.46,40.5 56.8,-31.08 98.58,-135.96 189.68,-42.34 61.48,63.19 8.17,146.57 -12.82,240.42 55.27,-46.05 38.78,-17.7 78.97,-85.98 8.98,-15.27 36.97,-93.18 43.24,-109.86 30.35,-80.77 49.78,-130.26 81.74,-217.81l11.98 -91.55 -3943.76 -5.36c-20.29,-233.67 51.91,-367.04 77.05,-585.06l3999.05 -0.38 -13.43 209.39c5.89,-8.21 14.43,-30.39 16.99,-25.12l139.83 -517.04 -152.01 83.01 -3972.74 -3.17 93.07 -530.73c35.38,-18.18 -33.7,-1.3 68.18,-31.36 9.41,-2.78 38.45,-8.5 49.19,-10.24 239.01,-38.67 3824.08,-22.63 3935.16,-6.74 7.57,203.02 -79.03,234.49 -30.56,434.3 171.22,-218.69 162.61,-1698.23 142.19,-1974.18 -8.05,-108.74 -43.7,-563.1 -109.25,-656.3l-3.34 259.62c-360.75,22.85 -3917.84,20.77 -4077.56,-19.61l-63.97 -572.25 4000.51 -3.24c39,28.91 23.02,-33.28 65.63,86.44 72.52,-22.32 64.54,37.51 49.47,-54.03 -35.61,-102.37 -41.01,-151.84 -67.12,-261.62l-51.92 -196.03c-29.23,-68.07 -3.06,-19.17 -41.52,-61.23l8.94 246.5 -3888.07 -0.8c-197.3,-23.93 -196.98,-439.72 -175.95,-614.77l1876.35 21.68c533.03,0 1405.72,49.36 1884.38,-10.96 47.06,28.77 69.47,44.76 77.01,44.39l61.94 -28.74c84.39,237.28 -4.89,183.67 117.83,183.67 -24.44,-131.01 -50.54,-192.23 -90.67,-287.96 -21.96,-52.38 -30.29,-76.09 -51.87,-133.7 -2.11,-5.65 -25.29,-67.59 -26.24,-69.3 -39.5,-70.98 5.87,-7.89 -44.91,-53.79l-4.86 141.77c-35.72,-94.25 -2.89,-50.25 -159.53,-56.04 -1070.61,-39.61 -2695.24,64.22 -3678.35,5.68l-100.64 -247.69c-28.88,-112.21 -33.01,-170.89 -24.07,-317.97l2874.04 -5.32c239.28,0.18 704,-59.18 907.11,50.15 -27.03,-109.62 -46.25,-126.73 -103.87,-231.56 -17.62,-32.07 -29.39,-57.01 -52.18,-98.2 -57.01,-103.07 -17.04,-54.61 -102.19,-120.41 16.8,97.33 38.15,137.38 -51.74,144.56l-3591.95 -17.12c-42.27,-106.46 -44.21,-164.18 -76.66,-268.89 -22,-70.98 -79.76,-143.3 -111.94,-228.83l56.93 -89.85c263.29,-52.82 2516.39,-18.83 3062.97,9.05l344.1 2.65c123.82,-23.24 15.16,38.9 77.57,-42.44 -43.94,-70.17 -60.93,-90.32 -107.06,-159.19l-76.59 -107.59c-43.77,-42.35 -8.61,-11.66 -65.6,-46.72l3.14 97.65 -3357.56 -4.14c-149.56,-173.36 -56.23,-56.94 -149.91,-280.56 -51.23,-122.29 -106.28,-110.11 -122.34,-291.96l3215.23 3.32c-38.08,-78.08 -6.41,-36.87 -69.88,-106.32 -81.63,-89.31 -184.34,-205.47 -288.63,-255.44l18.14 104.31c-199.71,-23.07 -205.48,3.07 -376.52,5.5l-2594.88 -13.76c-185.82,-132.42 -80.34,-118.28 -189.76,-269.11 -88.07,-121.41 -152.84,-106.17 -157.1,-318.03 594.79,-28.7 1489.2,-4.61 2138.57,-5.36 698.21,-0.81 323.71,13.49 650.43,71.88 -91.14,-140.2 -106.6,-100.97 -273.9,-221.17 -146.13,-105 -132.5,-129.34 -314.6,-191.49l-0.16 62.81c-113.14,12.33 -70.26,-4.08 -154.46,-5.38 -117.12,-1.81 -62.57,8.4 -154.46,18.73l-2135.76 -3.01c-127.36,-161.95 -404.12,-383.2 -451.35,-573.07l1930.27 3.25c-120.47,-127.75 -871.62,-350.67 -1011.13,-363.34 85.01,78.43 -106.45,50.94 102.09,68.06 -122.38,72.43 -892.33,38.2 -1028.99,41.45 -525.13,12.45 -547.78,-226.94 -759.69,-237.23 335.89,-127.75 938.93,44.16 1080.07,19.17l-170.95 -64.38c-69.24,-9.4 -142.19,-13.45 -211.82,-19.62 -614.02,-54.4 -4059.58,-26.81 -4818.45,-21.16l-1638.61 3.58c-101.48,19.97 -52.93,13.02 -91.98,42.07 114.99,28.3 634.36,32.01 724.48,34.4 -79.16,21.57 -150.25,42.27 -200.39,78.23 -270.19,193.79 64.78,126.53 -585.2,164.03 -295.02,17.02 -702.2,3.58 -1012.39,-9.39l54.6 -94.03z"/>
   <path class="fil1" d="M8577.15 34954.18l-127.65 12.72c-54.18,-98.41 6.53,-679.57 40.84,-841.73 62.06,-293.29 45.18,-207.7 104.38,-234.55 18.47,58.42 68.67,902.11 23.42,1008.75 -2.99,7.03 -8.73,15.1 -11.86,20.9l-29.12 33.9zm728.06 -1421.71c78.63,76.67 84.94,572.01 98.43,790.17 9.71,156.91 5.74,168.69 -107.23,227.87 43.26,-214.33 -2.44,-499.53 -17.7,-753.29 -1.89,-31.42 -8.7,-99.71 -8.01,-126.32l34.51 -138.43zm187.79 16.7l165.44 -210.8c3.13,-4.96 9.56,-14.12 14.57,-21.02l116.1 1344.94c-209.06,-6.74 -194.25,-121.24 -238.63,-464.51 -28.93,-223.74 -46.16,-422.94 -57.48,-648.62zm-165.42 -154.99c-76.55,-161.43 -121.87,-1310.69 -130.31,-1605.81 -7.67,-268.59 73.07,-1366.75 129.28,-1580.27l167.37 2538.51c20.36,494.43 91.25,661.86 -166.34,647.57zm154.66 -3109.25c-19.4,-309.72 140.34,-1433.04 254.65,-1658.13 4.46,149.61 -144.35,1485.95 -254.65,1658.13zm666.89 4810.72l-140.19 4.57c-144.07,-332.19 -281.86,-3044.01 -300.26,-3620.75 -40.92,-1282.64 261.07,-2487.87 176.36,-3744.81l236.18 20.87c85.03,1244.62 -237.58,2457.87 -180.76,3714.59 28.12,621.79 62.08,1243.7 109.21,1862.21 27.05,354.98 202.08,1556.4 99.47,1763.33zm-1316.6 37.52c-193.97,-642.74 -41.85,-3015.14 14.28,-3809.32 86.24,-1220.31 217.8,-2426.1 309,-3646.1l218.58 8.04c26.83,394.39 -250.95,3077.29 -302.66,3735.55 -75.54,961.53 -119.61,2023.72 -73.98,2993.05 21.5,456.87 128.21,784.26 -165.22,718.78zm672.94 -6100.9c-26.87,-247.8 27.94,-1140.01 139.56,-1316.53 71.29,59.09 28.89,-84.11 53.79,86.02 0.38,2.56 -7.23,85.33 -8.14,93.24 -6.75,58.47 -18.91,121.7 -27.15,181.15l-158.07 956.13zm-612.05 -1362.21l112.05 -7.53c32.35,279.06 -106.89,1570.4 -152.46,1916.52 -84.48,641.78 -164.52,1245.87 -220.98,1903.38 -102.52,1193.84 -36.94,2056.36 -462.45,3217.14 -36.92,100.72 -93.57,344.88 -221.59,333.92 -222.46,-19.04 64.32,-605.78 111.98,-753.01 286.6,-885.36 264.05,-1922.95 342.65,-2832.74 112.97,-1307.3 321.99,-2500.76 490.81,-3777.69zm1277.13 -83.35c-194.95,37.9 -1202.45,-54.73 -1336.92,-113.65l-7.28 -117.37c193.84,2.09 511.01,20.2 721.54,52.22 234.69,35.69 434.57,124.75 649.76,40.24l-27.09 138.57zm-57.59 -277.59c-142.14,80.73 -434.58,-28.64 -593.28,-49.49 -210.66,-27.68 -494.39,-2.54 -650.37,-63.98 -17.35,-268.91 173.69,-229.06 682.78,-165.27 96.74,12.12 760.95,66.31 560.87,278.74zm-260.2 -641.55c39.21,78.21 75.96,167.73 93.5,275.61 -185.1,-4.2 -174.14,-7.99 -247.54,-66.54l154.04 -209.07zm-559.59 189.1c16.72,-106.1 60.89,-180.91 104.78,-260.34 114.65,-0.4 228.53,7.31 301.14,59.77 -106.61,112.59 -128.96,56.61 -173.84,228.4l-232.08 -27.83zm284.28 -1507.36c655.06,-142.01 844.86,888.67 190.93,1003.84 -652.99,115 -883.29,-853.74 -190.93,-1003.84zm-206.89 -1803.73c51.94,78.21 86.05,134.56 100.43,257.74l-193.45 2.31 93.02 -260.05zm-1077.09 -591.36c41.39,83.13 68.17,201.46 109.49,284.74 64.92,130.81 144.65,140.7 105.71,245.17 -148.43,80.64 -201.38,-8.73 -288.33,-103.62l73.13 -426.29zm3117.62 113.43c-22.65,167.6 -53.84,389.57 -180.49,463.03l32.03 -409.57 148.46 -53.46zm-597.91 853.36c-44.71,-77.45 -46.02,-89.2 -18.66,-221.4 183.83,-888.44 57.92,-652.71 48.43,-1580.24 -5.23,-511.73 -51.18,-1438.25 10.57,-1907.61l209.81 -1.36c72.32,603.19 -15.8,1425.01 15.54,2064.34 15.46,315.57 57.02,668.54 36,984.11 -11,165.17 -46.99,275.79 -81.36,433.2 -36.05,165.07 3.06,331.36 -220.33,228.95zm-3330.52 -357.71c-332.74,46 -82.28,-244.36 -19.38,-475.55 191.32,-703.19 33.13,-1650.83 71.59,-2433.5l49.21 96.25c7.77,22.97 11.32,50.97 17.1,75.35 152.75,644.07 190.13,517.39 190.38,1324.41 0.13,430.16 -54.04,1164.93 -308.91,1413.04zm3181.81 -3353.06c90.81,111.5 38.37,1651.55 38.18,1785.57 -0.76,532.58 -94.13,764.79 -137.3,1235.84 -9.89,107.85 -28.12,300.4 -197.1,205.03 -119.12,-67.24 23.83,-649.26 48.41,-793.91 43.7,-257.18 92.88,-509.36 128.38,-770.11 70.2,-515.61 39.04,-811.2 54.02,-1297.85 9.62,-312.68 -32.13,-318.51 65.42,-364.56zm617.82 2744.28c-208.38,-411.54 162.03,-1185.46 200.09,-1536.97 23.77,222.43 59.84,667.69 2.88,873.51 -32.3,116.73 -61.38,221.75 -91.8,339.34 -41.45,160.18 -35.98,260.99 -111.17,324.12zm-2267.38 -107.17c-10.26,-432.62 -22.19,-2295.93 23.72,-2632.99l211.71 -3.94c41.34,351.88 -6.38,1022.69 -6.33,1414.7 0.04,262.44 -32.28,996.94 -229.1,1222.23zm3013.21 314.79c17.93,65.77 46.99,64.25 56.59,133.93 7.73,56.05 -10.83,120.4 -10.75,183.39 0.15,111.96 73.77,234.83 -27.7,274.59 -276.95,108.53 -119.27,-317.88 -94.01,-469.06 154.37,-923.91 12.32,-1800.53 57.95,-2111.2 25.17,413.52 170.11,686.94 118.21,1347.61 -12.42,158.08 -122.86,557.96 -100.3,640.74zm-770.45 -1498.94c-35.95,-406.03 -65.97,-833.22 -27.48,-1248.67 116.77,347.09 223.15,907.45 27.48,1248.67zm231.73 2135.34c-34.75,-106.88 108.93,-622.25 130.45,-816.02 32.02,-288.43 47.09,-625.65 36.81,-924.93 -16.57,-482.32 -120.65,-1420.06 -61.64,-1846.16l209.52 -0.83 85.26 1877.85c12,400.14 -32.87,1477.86 -236.8,1729.47 -118.97,17.36 -71.18,28.69 -163.6,-19.4zm-2644 -359.25c-358.89,-706.47 -306.53,-2358.65 -211.52,-3227.59l211.66 -0.95c31.71,245.82 -18.85,600.51 -38.73,852.68 -65.17,826.42 182.61,2151.12 38.59,2375.85zm1204.09 380.05c-345.97,41.37 -167.17,-59.53 -78.76,-662 166.91,-1137.26 -73.1,-2371.2 -8.5,-2948.78l218.62 14.6c79.58,865.11 185.96,2836.66 -131.36,3596.18zm-252.03 -3244.24c1.62,-4.45 9.96,-8.68 11.27,-19.17 1.33,-10.64 8.47,-12.43 12.48,-18.78 18.67,625.9 172.16,2326.72 -42.23,2813.59 -61.8,-320.2 -27.6,-1122.46 18.83,-1447.55 49.1,-343.74 -0.06,-734.5 -18.78,-1092.56 -5,-95.69 -15.55,-142.36 18.44,-235.53zm530.91 -366.35l131.22 -0.21c52.59,529.52 -30.33,1114.59 -63.05,1618.84l-68.17 -1618.63zm1914.39 2962.21c-173.8,-30.05 -2.77,-222.81 24.95,-648.68 64.11,-985.31 -315.57,-1815.17 -267.21,-2313.26l220.91 14.21c32.65,524.42 184.94,961.32 247.58,1482.82 29.83,248.42 116.8,1524.21 -226.24,1464.91zm-3804.04 -2245.43c-81.3,-165.89 -95.75,-497.36 -79.19,-715.8l134.12 14.1 -54.93 701.7zm-432.73 2836.66c-305.12,37.13 -121.27,-625.41 -93.85,-809.24 215.54,-1444.95 -300.77,-2206.68 -241.69,-2742.95l212.89 2.36c69.48,643.12 281.87,1095.47 301.12,1752.33 27.4,934.61 -57.31,836.32 -113.05,1421.91 -18.1,190.12 94.81,356.1 -65.42,375.6zm931.44 -10.45c-15.33,-376.21 574.16,-1248.78 490.41,-2590.53 -20.72,-331.9 -53.63,-633.73 39.65,-950.34l214.13 -0.56c-5.13,178.21 -44.19,320.26 -43.79,518.98 1.26,635.98 122.31,788.92 -53.9,1544.58 -71.01,304.47 -152.9,587.12 -239.97,872.02 -162.19,530.74 -165.51,677.53 -406.53,605.85zm-1329.41 -4858.98l4631.62 3.7 -2.73 1060.37 -4630.6 -1.53 1.71 -1062.54zm-4328.15 -1626.43c523.61,60.46 1285.24,432.97 1852.95,560.06 232.73,52.09 530.05,112.5 628.31,-102.31 -154.21,-73.36 -782.08,-329.42 -876.55,-423.77 33.42,-140.49 96.73,-151.45 188.56,-210.48 223.71,73.14 220.78,120.36 425.29,-71.46 -27.39,-73.82 10.33,-6.27 -40.67,-70.81l-49.66 -48.84c389.2,-384.53 679.23,-224.29 1187.95,-99.56 -16.67,267.68 15.01,251.13 253.72,330.75 584.56,194.96 426.87,49.49 632.89,-130.27 772.03,160.57 107.34,413.25 127.64,733.71 750.57,414.71 1521.14,-641.92 2313.21,-622.24 778.22,19.33 1624.44,1032.12 2312.03,619.91 27.07,-317.25 -654.84,-563.91 127.95,-731.12 220.14,196.57 44.78,330.44 656.47,121.98 225.85,-76.97 244.48,-67.58 229.55,-324.1 468.65,-129.9 849.89,-260.5 1187.77,100.95 -36.94,43.55 -64.65,60.93 -84.43,117.58 170.28,198.44 226.66,136.29 420.18,72.93 105.16,65.11 160.51,65.58 185.62,211.07 -87.33,83.47 -739.38,362.63 -872.79,420.76 200.3,485.76 1713.26,-353.66 2482.03,-454.76 -127.43,133.59 -329.7,254.84 -513.72,357.84 -143.28,80.18 -440.21,168.12 -620.02,244.34 -537.2,227.72 -225.39,197.03 -551.96,313.89 -191.84,68.64 -425.9,158.83 -636.87,191.85 171.66,-90.28 404.06,-135.76 405.23,-362.02 -159.14,-12.99 -288.5,26.58 -431.25,61.82 -293.14,72.37 -527.98,-138.66 -557.65,274.09 208.44,-24.69 66.09,-61.45 207.81,-129.42 98.14,-47.06 272.37,-38.02 264.17,31.86 -0.38,3.25 -1.61,13.12 -2.41,16.73 -0.93,4.2 -5.54,14.26 -6.82,18.38 -21.77,70 3.22,-25.28 -31.25,64.95 68.7,50.53 16.54,25.34 118.32,50.11 -441.47,53.77 -617.99,164.75 -1356.34,217.01 -509.44,36.05 -1058.95,18.19 -1572.82,17.66 -1039.93,-1.06 -2080.1,-0.52 -3120.02,0.16 -1088.88,0.72 -1842.2,-28.55 -2806.18,-320.61 -133.48,-40.44 -495.09,-145.69 -578.41,-224.68 -342.91,-325.07 -1110.37,-394.93 -1497.82,-823.94zm-2706.81 -7882.76c-4.68,-79.13 9.47,-146.22 51.67,-207.85l131.81 -392.21c0.97,-2.25 29.87,-58.91 33.4,-64.83l33.31 -39.19c1.29,-117.33 135.69,-389.48 190.9,-448.56 34.54,-123.49 74.63,-162.01 128.7,-267.84 28.38,-55.54 35.32,-75.51 61.88,-121.93 45.71,-79.86 25.18,-59.26 89.06,-103.87 18.66,-77.8 65.75,-189.55 135.43,-229.72 54.62,-134.36 72.89,-142.67 165.33,-266.78 27.14,-36.43 57.78,-83.67 87.47,-124.34 66.5,-91.09 23.07,-48.47 116.46,-109.29 -1.41,-69.92 121.13,-193.21 188.58,-268.31 65.29,-72.68 134.74,-188.23 217,-219.8 49.02,-85.69 236.8,-292.89 349.84,-348.87 10.87,-27.12 -7.26,-6.64 24.54,-46.44 26.37,-32.99 433.43,-403.3 540.88,-426.65 75.01,-120.02 419.75,-338.51 532.64,-382.41 64.82,-88.4 719.51,-440.91 835.27,-432.87 43.8,-54.4 15.4,-34.84 80.39,-74.47l1061.4 -358.97c175.13,-69.57 815.63,-210.43 1018.9,-173.25 39.05,-29.05 -9.5,-22.09 91.98,-42.07l1638.61 -3.58c758.87,-5.65 4204.42,-33.24 4818.45,21.16 69.63,6.17 142.58,10.23 211.82,19.62l170.95 64.38c121.87,-24.82 509.78,49.1 606.52,108.56 139.52,12.67 890.66,235.59 1011.13,363.34 140.78,12.78 927.61,382.76 965.92,496.67 182.09,62.15 168.47,86.49 314.6,191.49 167.29,120.2 182.76,80.97 273.9,221.17 94.43,2.53 388.99,277.65 472.86,360.95 41.65,41.37 26.66,32.4 38.26,63.62 104.28,49.97 207,166.13 288.63,255.44 63.47,69.45 31.8,28.24 69.88,106.32 32.05,10.91 22.64,-2.53 64.76,36.43l272.78 315.23c4.46,5.21 52.96,66.75 54.06,68.56 32.44,53.28 6.54,3.4 19.83,55.47 57,35.06 21.84,4.37 65.6,46.72l76.59 107.59c46.13,68.86 63.12,89.02 107.06,159.19 63.4,81.8 297.93,388.15 290.71,490.86 85.15,65.8 45.18,17.35 102.19,120.41 22.79,41.19 34.56,66.13 52.18,98.2 57.62,104.83 76.84,121.94 103.87,231.56 72.73,66.68 176.89,339.23 186.3,429.42 50.78,45.9 5.41,-17.19 44.91,53.79 0.95,1.71 24.13,63.65 26.24,69.3 21.58,57.61 29.9,81.32 51.87,133.7 40.12,95.73 66.23,156.95 90.67,287.96l37.56 159.03c38.45,42.07 12.29,-6.83 41.52,61.23l51.92 196.03c26.11,109.78 31.51,159.25 67.12,261.62l29.26 303.07c65.54,93.2 101.2,547.56 109.25,656.3 20.42,275.95 29.03,1755.49 -142.19,1974.18l9.71 64.92 -139.83 517.04c-2.56,-5.27 -11.09,16.91 -16.99,25.12 14.72,152.44 -88.56,325.83 -130.89,472.96 -31.96,87.55 -51.39,137.04 -81.74,217.81 -6.27,16.68 -34.26,94.59 -43.24,109.86 -40.18,68.28 -23.7,39.93 -78.97,85.98 18.21,68.56 -8.81,137.47 -57.01,177.57l-232.31 482.84c-40.92,51.76 -14.69,16.4 -61.58,53.14 -7.5,87.83 -72.65,172.08 -128.28,251.84 -41.59,59.64 -101.92,180.71 -162.9,216.15l-297.4 395.07c-14.66,78.52 -121.52,186.27 -176.05,218.11 -43.14,123.18 -178.44,232.28 -259.05,313.84 -50.05,50.65 -92.93,90.35 -138.38,139.26 -117.43,126.37 -58.67,86.82 -167.89,134.78 -13.2,38.97 13.55,1.03 -23.31,46.81 -1.27,1.58 -42,38.8 -46.37,42.75 -357.77,322.41 -296.67,292.8 -586.84,344.77 -129.07,23.11 -157.87,59.91 -315.08,36.99l-925.27 331.67c-274.45,95.14 -617.03,257.79 -970.73,238.8 62.89,-77.71 83.19,-67.25 180.22,-107.72 69.07,-28.82 113.09,-51.5 173.68,-74.6 441.49,-168.38 348.19,-217.51 261.61,-469.61 -83.62,-7.08 -102.66,-83.85 -189.83,-110.74 -136.9,-42.22 -114.4,37.78 -257.3,44.39l-12.15 -207.65 -196.8 -147.01c-251.4,-105.03 -234.85,-170.94 -594.02,-125.61 -240.13,30.31 -378.58,118.68 -579.29,152.11l-62.36 256.59c-120.15,56.73 -361.69,146.28 -515.82,152.6l-177.72 -225.24c-283.71,-12.64 -443.93,160.89 -551.44,241.45 -23.97,200.63 -4.76,148.08 44.39,311.42 23.84,13.21 5.14,-9.44 56,46.37l130.14 187.92c-213.11,96.63 -616.03,18.07 -746.53,-104.13 -133.68,-30.88 -296.75,-143.07 -431.47,-211.5l-304.08 -156.08c-88.95,-48.17 -36.5,-17.11 -76.52,-60.09 -202.19,-24.35 -339.9,-139.25 -653.99,-139.21 -153.45,0.03 -219.83,22.01 -347.08,55.78 -110.18,29.24 -215.43,86.51 -289.6,89.64 -81.48,89.08 -536.6,317.24 -629.3,345.73 -140.63,161.31 -607.64,265.66 -871.06,191.02 13.06,-79.07 20.25,-130.22 143.07,-211.21l53.63 -92.52c35.19,-75.76 46.62,-151.21 10.64,-240.26 -36.53,-90.39 -116.2,-100.38 -200.69,-198.21l-340.5 -58.06c-86.59,91.42 -92.38,138.11 -185.35,217.66 -182.22,1.22 -359.48,-79.78 -514.23,-139.07l-3.85 -213.6 -51.95 -44.87c-203.48,-39.26 -363.38,-136.24 -603.94,-158.92 -360.99,-34.04 -376.88,66.29 -617.56,154.66l-155.69 121.45 0.69 209.44c-171.03,-3.71 -124.59,-116.71 -304.11,-21.45 -81.64,43.32 -125.28,114.75 -196.66,158.11 -119.21,421.05 338.77,304.43 678.21,573.65 -306.8,36.24 -767.39,-141.62 -1012.76,-238.02 -171.66,-67.44 -858.45,-268.43 -923.96,-327.17 -80.6,9.9 -463.72,-32.69 -593.15,-136.55 -58.83,-47.22 -326.47,-260.51 -353.74,-332.9l-413.89 -383.67c-37.98,-52.08 -3.58,-0.3 -39.68,-74.19 -24.47,-11.2 -7.66,5.31 -45.58,-26.77 -8.89,-7.52 -36.14,-38.3 -42.96,-46.09 -68.99,-78.7 -199.48,-216.2 -228.49,-307.71 -108.33,-72.38 -303.34,-359.53 -348.08,-470.49 -72.58,-49.82 -203.8,-277.65 -210.71,-359.17 -113.54,-92.93 -127.04,-192.65 -242.04,-391.16 -49.88,-117.42 -115.7,-207 -125.08,-333.01 -33.68,-30.23 -20.69,-8.22 -51.71,-54.31l-158.56 -452.29c-47.71,-66.87 -139.14,-322.61 -130.04,-455.19 -39.6,-42.08 -20.75,17.46 -58.96,-103.4 -11.18,-35.38 -13.36,-63.59 -22.15,-101.11 -19.75,-84.3 -38.95,-155.61 -53.66,-252.57l-20.48 -217.23c-61.45,-74.16 -62.55,-232.44 -84.42,-381.28 -53.96,-367.16 -66.38,-976.69 -34.84,-1331.93 72.07,-811.73 73.83,-715.5 231.69,-1401.12 2.71,-11.81 20.98,-88.6 25.46,-99.68 22.01,-54.47 20.92,-38.58 44.44,-68.19zm6218.22 -7201.14c633.49,-13.31 6078.8,-36.64 6268.61,19.92l-4.82 1765.08c-179.88,18.77 -536.24,-19.65 -753.35,-19.62 -1704.99,0.18 -3921.3,-44.33 -5513.08,26.03l2.64 -1791.41zm-268.08 1828.56c-1411.56,133.94 -3049.55,898 -4028.54,1844.37l-665.85 662.32c-136.76,144 -255.29,325.47 -393.28,503.47 -126.07,162.63 -242.36,347.17 -359.2,535.96 -1586.72,2563.77 -1381.36,5793.18 367.63,8275.49 115.88,164.48 266.13,360.1 400.63,494.4 151.92,151.68 261.81,307.2 429.07,467.27 285.7,273.42 623.86,540.25 990.2,801.38 292.02,208.15 769.9,481.04 1152.07,640.54 463.68,193.51 817.18,340.09 1336.98,455.98 249.03,55.53 492.98,99.68 756.48,135.1 214.54,28.84 670.26,26.21 835.97,73.38l5.71 840.07c-0.18,694.08 52.41,389.75 74.92,525.15 -79.16,614.66 -13.91,1151.62 -5.37,1760.81 4.09,291.83 -8.12,589.78 -59.83,865.74 -49.87,266.17 -213.57,497.49 -188.92,720.05 258.14,180.53 346.52,142.98 516.36,-63.74 98.49,557.38 564.88,399.27 551.68,79.17 241.66,55.6 250.33,118.65 509.28,29.29 4.29,7.11 9.76,16.52 12.12,21.76 170.39,378.64 144.47,157.58 462.85,251.14 85.98,25.26 81.19,46.81 193.2,28.3 374.84,-61.92 93.76,-458.56 49.51,-618.16l160.6 -32.72c24.15,171.81 18.55,141.24 76.89,266.04 39.16,83.77 -4.75,107.79 1.58,244.83 71.29,144.19 92.83,46.3 79.55,253.99l-85.66 1004.21c-879.89,92.21 -992.6,881.34 -552.62,1338.09 -136.4,131.86 -250.28,143.65 -319.85,384.98 -41.96,145.53 -91.59,167.8 -106.54,265.02 -84.47,549.44 35.83,403.46 29.71,614.77l-117.87 898.49c-123.19,828.34 -258.94,1596.16 -335.77,2452.86 -79.41,885.56 -68.08,1721.19 -223.73,2581.76 -150.28,830.92 -578.22,1434.53 -201.94,1557.01 251.51,81.87 299.74,-137.95 383.72,-254.63 129.9,183.2 104.24,245.11 401.59,176.6 84.76,122.52 229.84,329.13 433.21,126.16 143.41,-143.13 64.88,-341.45 71.72,-545.61 154.73,42.28 179.84,36.8 298.25,-38.52 110.52,110.46 106.93,188.3 348.08,173.28 46.25,673.55 452.07,442.38 515.37,251.77 39.76,-119.7 -48.61,-793.24 -65.44,-983.11 -129.55,-1461.86 -254.39,-2778.53 -99,-4247.54 77.29,-730.61 126.38,-1364.82 103.74,-2117.25 42.15,-84.62 111.04,-162.8 73.91,-289.33 -31.88,-108.6 -48.75,-60.04 -75.28,-328.5 -40.24,-407.09 -67.45,-305.57 -218.14,-556.05 144.55,-146.38 150.54,-75.92 277.52,-282.87 255.21,-415.94 68.09,-951.62 -362.2,-1111.01l92.48 -1180.03c170.04,-73.09 180.01,-189.11 215.27,-398.33 536.82,81.64 378.15,-198.24 463.58,-324.62 1.11,273.46 -109.71,413.11 -90.23,706.95 84.33,103.72 255.49,228.99 425.61,87.55 199.38,-165.78 -66.35,-320.32 276.22,-380.26 -73.84,370.32 295.37,394.68 491.81,204.65 66.11,35.19 112.74,55.11 213.06,41.67 300.58,-40.25 151.03,-333.48 182.02,-558.36 201.22,-81.43 301.89,15.84 388.15,-574.2 78.14,-534.49 4.8,-1215.89 -115.68,-1740.79 -57.96,-252.54 -145.76,-546.67 -129.45,-815.84l123.53 -38.14 7.24 -1281.36c606.33,-65.68 1025.48,-64.5 1617.28,-206.94 1255.05,-302.06 2565.33,-1009.6 3468.13,-1906.04 1064.34,-1056.84 2108.76,-2716.57 2241.75,-4920.92 66.09,-1095.61 -123,-2201.96 -481.68,-3117.58 -244,-622.86 -863.08,-1761.65 -1346.36,-2237.08 -105.52,-103.8 -133.35,-158.91 -215.56,-246.9 -427.32,-457.39 -1221.8,-1064.94 -1761.79,-1358.4 -735.67,-399.79 -1709.12,-791.04 -2708.91,-888.16l-6.75 -2085.47 -3260.96 -3.1 1.25 -1920.09 -256.8 -1.16 0.18 1923.12 -3258.89 5.58 -9.58 2082.3z"/>
   <path class="fil2" d="M6788.6 3973.84c1591.78,-70.36 3808.09,-25.85 5513.08,-26.03 217.11,-0.03 573.47,38.39 753.35,19.62l4.82 -1765.08c-189.81,-56.56 -5635.12,-33.23 -6268.61,-19.92l-2.64 1791.41z"/>
   <path class="fil3" d="M12739.25 18381.5c-37.81,69.9 -57.81,100.16 -190.42,106.39 -94.34,4.44 -195.73,-3.49 -178.69,-98.22 18.46,-102.59 272.43,-178.55 369.11,-8.17zm-2330 -9.47c249.94,-38.35 384.36,-163.1 573.05,-181.42l134.69 241.51c-134.97,50.95 -426.42,55.53 -579.01,16.87 -109.19,-27.66 -95.63,-42.2 -128.72,-76.95zm-1550.35 -183.21c190.74,24.22 330.65,140.32 578.08,184.58 -27.76,29.01 -9.28,52.37 -156.66,80.81 -156.5,30.19 -412.64,27.57 -558.14,-25.2l136.73 -240.19zm-1402.13 259.55c-137.23,79 -241.87,33.69 -348.42,-26.6 26.96,-229.59 417.92,-156.66 348.42,26.6zm5529.59 -38.39c-17.93,-303.43 294.58,-290.85 586.43,-318.26 -95.73,139.2 -419.62,340.65 -586.43,318.26zm-1265.72 -9.26c34.71,-102.92 29.88,-11.46 64.62,-150.6 -429.07,-190.39 -317.07,150.22 -318.1,154.32 -29.71,20.69 57.11,51.39 -80.29,27.13 -11.55,-2.04 -46.87,-24.85 -57.37,-33.13 -125.56,-98.93 -186.44,-326.11 -182.08,-485.16 195.01,46.82 300.05,205.64 841.2,168.01 15.15,207.3 -70.67,316.5 -267.99,319.42zm-3874.6 -315.64c181.38,6.32 307.16,3.21 480.67,-33.63 196.15,-41.66 229.48,-105.41 371.18,-137.16 5.13,241.73 -91.53,512.5 -322.34,525.52 1.76,-12.36 156.52,-370.76 -328.11,-182.46l77.21 143.3c-209.66,-8.5 -260.78,-105.27 -278.6,-315.56zm-1869.9 133.57c-115.78,-57.62 -264.02,-19.76 -261.92,18.42l39.02 140.88c-131.04,20.72 -557.8,-98.23 -559.03,-366.75 162.6,-11.62 285.05,26.14 432.6,62.35 285.96,70.16 536.94,-137.16 555.4,275.51 -198.93,-28.88 -74.33,-64.84 -206.07,-130.4zm885.07 190.83c-160.52,23.25 -248.09,-61.14 -358.91,-128.63l-266.38 -191.33c287.02,-9.97 644.45,27.29 625.28,319.97zm5313.47 -153.9c73.57,-214.13 207.64,-277.49 277.33,-437.3l60.22 75.09c100.68,139.99 64.76,76.02 216.88,170.04 -215.39,128.23 -271.65,140.01 -554.43,192.17zm-5058.74 -191.22c65.78,-37.46 242.51,-141.15 261.11,-227.95 2.43,-11.32 11.32,-12.02 17.13,-17.9 60.16,149.94 200.77,219.42 278.18,435.61 -269.51,-39.21 -366.11,-73.93 -556.42,-189.76zm1874.27 -84.46c81.22,-121.38 735.22,-582.88 933.24,-585.59 181.69,-2.48 876.37,474.42 927.01,585.59 -84.58,203.85 -724.61,207.63 -927.61,208.59 -246.74,1.17 -825.3,11.94 -932.65,-208.59zm3754.4 -129.62c-26.44,-313.85 473.57,-495.5 821.12,-424.42 506.73,103.63 201.51,627.17 -123.67,492.26 24.61,-163.91 16.25,-21.97 80.18,-153.69l-108.49 -144.2c-82.84,14.9 -158.78,34.74 -225.94,73.02 -135.41,77.2 -62.66,65.99 -111.35,190.89 -147.88,28.37 -220.68,45.22 -331.86,-33.86zm-6341.58 67.84c-142.65,63.8 -377.68,-71.09 -394.62,-191.1 -65.72,-465.73 1112.37,-399.15 1094.71,125.74 -101.39,60.53 -288.99,115.89 -348.33,-35.47 -2.42,-6.16 -4.73,-16.51 -7.71,-23.16 -2.99,-6.67 -5.33,-16.24 -8.91,-22.82 -51.87,-95.31 -212.23,-136.03 -311.37,-154.3l-103.83 146.66c56.5,133.14 52.1,-4.81 80.06,154.46zm-994.98 -1019.41l49.66 48.84c51,64.54 13.28,-3.01 40.67,70.81 -204.51,191.82 -201.59,144.6 -425.29,71.46 -91.82,59.03 -155.14,69.99 -188.56,210.48 94.48,94.34 722.34,350.4 876.55,423.77 -98.27,214.82 -395.58,154.41 -628.31,102.31 -567.71,-127.09 -1329.34,-499.61 -1852.95,-560.06 387.44,429 1154.91,498.86 1497.82,823.94 83.32,78.98 444.93,184.24 578.41,224.68 963.98,292.06 1717.29,321.32 2806.18,320.61 1039.93,-0.67 2080.09,-1.22 3120.02,-0.16 513.87,0.53 1063.38,18.39 1572.82,-17.66 738.35,-52.26 914.86,-163.23 1356.34,-217.01 -101.78,-24.76 -49.62,0.42 -118.32,-50.11 34.47,-90.23 9.48,5.05 31.25,-64.95 1.28,-4.12 5.89,-14.18 6.82,-18.38 0.8,-3.62 2.03,-13.49 2.41,-16.73 8.2,-69.88 -166.03,-78.91 -264.17,-31.86 -141.73,67.97 0.63,104.73 -207.81,129.42 29.67,-412.75 264.5,-201.72 557.65,-274.09 142.75,-35.25 272.11,-74.82 431.25,-61.82 -1.17,226.26 -233.57,271.74 -405.23,362.02 210.96,-33.02 445.03,-123.21 636.87,-191.85 326.58,-116.86 14.76,-86.17 551.96,-313.89 179.81,-76.22 476.74,-164.15 620.02,-244.34 184.03,-103 386.3,-224.25 513.72,-357.84 -768.77,101.1 -2281.73,940.51 -2482.03,454.76 133.41,-58.14 785.46,-337.3 872.79,-420.76 -25.11,-145.49 -80.46,-145.96 -185.62,-211.07 -193.52,63.35 -249.9,125.51 -420.18,-72.93 19.78,-56.66 47.5,-74.04 84.43,-117.58 -337.88,-361.45 -719.12,-230.85 -1187.77,-100.95 14.93,256.52 -3.7,247.13 -229.55,324.1 -611.68,208.46 -436.32,74.59 -656.47,-121.98 -782.79,167.21 -100.88,413.86 -127.95,731.12 -687.6,412.22 -1533.82,-600.57 -2312.03,-619.91 -792.07,-19.68 -1562.63,1036.95 -2313.21,622.24 -20.3,-320.46 644.39,-573.14 -127.64,-733.71 -206.03,179.76 -48.34,325.23 -632.89,130.27 -238.71,-79.62 -270.4,-63.07 -253.72,-330.75 -508.72,-124.73 -798.75,-284.97 -1187.95,99.56z"/>
   <path class="fil4" d="M15127.41 11290.05c112.57,-769.22 -83.44,-590.21 -632.45,-590.23 -1131.76,-0.05 -9540.58,-30.58 -9774.14,7.13 -27.44,107.14 -14.92,208.28 -18.59,322.57 -11.08,344.94 -78.6,268.69 741.56,268.69l8309.78 0c422.18,0 966.33,29.68 1373.84,-8.15z"/>
   <path class="fil5" d="M15032.76 12956.3c80.47,-169.41 42.1,-402.21 86.91,-571.72 -396.4,-46.43 -7092.15,-16.33 -7822.39,-16.33 -839.5,0 -1778.9,35.71 -2553.42,1.92 -20.09,128.65 -0.76,529.54 77.2,576.91 79.82,48.5 7987.49,17.86 8839.84,17.86 384.75,0 1018.17,36.34 1371.86,-8.64z"/>
   <path class="fil4" d="M4922.46 13805.66l10019.64 -8.78c18.46,-80.73 114.12,-527.19 72.17,-567.23 -71.79,-68.5 -8583.11,-25.6 -9477.8,-25.6 -836.82,0 -782.45,-140.47 -614.01,601.61z"/>
   <path class="fil5" d="M4738.1 10318.86l2.18 114.94 10347.46 6.16c9.12,-188.7 20.16,-444.18 -67.63,-582.56l-10194.15 -2.59c-50.09,100.27 -52.22,81.89 -62.85,216.62 -8.12,102.88 -27.27,154.3 -25.03,247.43z"/>
   <path class="fil6" d="M4722.15 12113.5c3203.86,43.28 6570.32,4.27 9803.71,6.17 163.56,0.1 507.59,-25.65 609.17,-15.6l10.21 -545.72 -10421.36 -9.75 -1.73 564.9z"/>
   <path class="fil4" d="M4834.02 9570.44c101.94,25.88 89.26,41.02 208.19,41.02l9638.11 0c107.51,0 234.12,1.72 313.33,-33.99 21.88,-164.27 -26.87,-387.65 -48.44,-549.08l-10021.65 -11.09c-34.41,142.86 -99.49,393.14 -89.54,553.15z"/>
   <path class="fil4" d="M5320.23 14648.9l9438.61 -8.27c27.07,-121.46 25.47,-206.04 50.79,-303.5 86.1,-331.52 175.23,-280.43 -685.35,-280.43l-8618.69 -0.35c-117.72,0.12 -223.67,2.12 -341.6,-0.33 -285.97,-5.94 -159.61,61.15 -90.46,463.08 26.86,156.06 62.98,129.8 246.71,129.8z"/>
   <path class="fil5" d="M5009.81 8742.71l9862.01 12.19c-142.93,-546.76 7.17,-573.77 -407.75,-573.8l-9341.98 -0.7c-44.22,104.34 -129.24,419.87 -112.28,562.31z"/>
   <path class="fil5" d="M5443.79 15488.28l8958.5 0.61c5.93,-7.81 15.74,-24.07 18.42,-18.66 2.63,5.29 14.44,-12.33 17.92,-16.34 103.7,-119.25 145.02,-396.2 143.08,-553.35l-9370.5 8.15c24.98,236.93 59.13,273.03 139.06,441.45l93.5 138.14z"/>
   <path class="fil6" d="M5226.02 7910.67l9385.7 1.6c5.45,-134.11 -97.59,-458.7 -147.65,-569l-9049.69 -12.64c-111.94,168.28 -189.49,361.41 -188.35,580.04z"/>
   <path class="fil6" d="M14331.54 15768.81c-212.72,-43.35 -8572.87,-44.38 -8812.76,2.07 -8.42,106.16 189.45,441.13 220.75,556.92l8340.07 -0.01c100.32,-243.24 265.89,-368.39 251.94,-558.98z"/>
   <path class="fil5" d="M5538.39 7069.5l8771.27 3.07c20.74,-168.42 -24.66,-207.7 -88.04,-308.91 -53.46,-85.36 -69.03,-187.09 -128.24,-266.7l-8339.71 -7.12c-61.66,131.48 -219.77,397.76 -215.28,579.65z"/>
   <polygon class="fil2" points="7606.28,19955.29 12236.88,19956.82 12239.61,18896.45 7607.99,18892.75 "/>
   <path class="fil6" d="M5933.57 6233.81l7977.77 0.78c-27.29,-222.1 -207.71,-400.75 -333.6,-583.71l-7307.38 -6.99 -269.87 412.94c-66.59,92.85 -59.47,24.38 -66.92,176.98z"/>
   <path class="fil5" d="M6563.72 5363.6l455.54 17.18c1946.64,-23.11 3996.96,5.12 5962.03,1.19 124.97,-0.25 229.55,14.59 321.88,-36.63 -22.78,-153.4 -19.74,-75.62 -120.84,-171.12 -70.61,-66.69 -254.04,-369.4 -479.07,-369.4l-5189.75 3.84c-516.91,-0.04 -393.34,-70.49 -705.5,200.64 -110.93,96.35 -225.83,209.14 -244.29,354.29z"/>
   <path class="fil4" d="M6665.45 16691.83l51.95 44.87 3.85 213.6c154.76,59.29 332.02,140.29 514.23,139.07 92.97,-79.55 98.77,-126.24 185.35,-217.66l340.5 58.06c249.94,47.42 195.08,108.3 308.22,258.64 208.84,-3.27 435.84,-3.25 650.2,-0.18 129.83,1.86 158.98,23.62 273.17,-14.68 171.91,-57.64 70.72,-9.13 262.14,-38.31 74.17,-3.13 179.42,-60.4 289.6,-89.64 127.24,-33.77 193.63,-55.75 347.08,-55.78 314.09,-0.04 451.8,114.86 653.99,139.21 190,11.56 369.25,69.25 520.3,128.22l51.03 -85.81 659.14 38.13c81.01,-114.05 -2.38,-26.94 97.61,-94.44 107.5,-80.55 267.73,-254.08 551.44,-241.45l177.72 225.24c154.13,-6.32 395.67,-95.88 515.82,-152.6l62.36 -256.59 56.49 -114.2 -6558.18 38.97c-28.06,41.81 -50.71,-49.24 -13.99,77.36z"/>
   <path class="fil5" d="M19458.37 10187.6l-29.26 -303.07c15.07,91.54 23.06,31.71 -49.47,54.03 -42.61,-119.72 -26.63,-57.53 -65.63,-86.44l-4000.51 3.24 63.97 572.25c159.72,40.38 3716.8,42.45 4077.56,19.61l3.34 -259.62z"/>
   <path class="fil4" d="M545.95 13340.07c-9.11,132.58 82.33,388.32 130.04,455.19 758.38,-6.71 3731.96,71.65 3972.05,-5.06 -16.02,-130.18 -62.1,-470.21 -108.5,-567.56 -258.37,-62.59 -3156.21,-4.42 -3691.92,-11.75l-49.17 -67.74c-92.4,95.39 -21.67,50.94 -173.55,79.33 5.9,-42.28 -0.89,-66.29 -44.31,-31.61 -16.29,13 -24.94,107.56 -34.64,149.2z"/>
   <path class="fil4" d="M336.91 11305.3c127.9,-49.28 3514.83,23.46 4094.18,-17.36l27.24 -589.18 -4070.62 0.53c-70.11,132.93 -109.92,411.64 -50.8,606.01z"/>
   <path class="fil5" d="M397.78 10428.02c163.78,42.79 3802.46,46.24 4082.62,6.72l42.65 -573.9 -3990.98 -7.29c-108.21,136.55 -152.54,470.06 -134.29,574.47z"/>
   <path class="fil5" d="M390.7 12665.76l20.48 217.23 126.52 54.52c177.25,63.95 411.96,18.95 766.64,19.12 459.7,0.2 2969.89,25.67 3209.82,-15.85 5.36,-118.63 -4.19,-173.5 -18.78,-284.79 -46.54,-354.77 151.52,-287.73 -1028.65,-287.73l-3046.71 -2.88c-52.96,154.92 0.72,148.47 -29.33,300.39z"/>
   <path class="fil5" d="M19435.13 12882.99l-9.71 -64.92c-48.47,-199.81 38.14,-231.28 30.56,-434.3 -111.08,-15.88 -3696.15,-31.93 -3935.16,6.74 -10.74,1.73 -39.78,7.46 -49.19,10.24 -101.88,30.05 -32.8,13.18 -68.18,31.36l-93.07 530.73 3972.74 3.17 152.01 -83.01z"/>
   <path class="fil6" d="M624.7 9175.72c-42.21,61.63 -56.35,128.71 -51.67,207.85l-2.95 247.26 116.45 -64.82c127.98,94.68 30.93,40.16 432.48,44.57l3337.3 -5.97c147.47,-26.6 29.21,3.06 82.61,-35.1 4.04,-5.53 10.52,-20.72 11.58,-16.94l90.57 -533.45c-760.35,-38.97 -2517.49,-4.44 -3460.25,-1.12 -105.01,0.37 -275.7,28.05 -347.08,-16.68l-36.66 -61c-55.41,108.46 -99.05,185.89 -172.38,235.4z"/>
   <path class="fil6" d="M345.98 12088.03c193.87,76.71 3596.79,42.77 4090.99,28.79l-1.16 -563.93c-460.4,-24.1 -3946.29,23.08 -4116.54,-9.24 -17.91,147.56 -10.24,404.44 26.72,544.37z"/>
   <path class="fil6" d="M15406.27 12113.31c451.21,19.05 3951.38,47.07 4093.79,-26.07l28.69 -539.77 -4115.16 0.72 -7.32 565.13z"/>
   <path class="fil6" d="M19268.56 9365.64l-37.56 -159.03c-122.72,0 -33.44,53.61 -117.83,-183.67l-61.94 28.74c-7.54,0.37 -29.96,-15.61 -77.01,-44.39 -478.65,60.32 -1351.35,10.96 -1884.38,10.96l-1876.35 -21.68c-21.03,175.04 -21.36,590.83 175.95,614.77l3888.07 0.8 -8.94 -246.5z"/>
   <path class="fil6" d="M19147.43 13898.12c42.33,-147.13 145.6,-320.52 130.89,-472.96l13.43 -209.39 -3999.05 0.38c-25.14,218.02 -97.34,351.39 -77.05,585.06l3943.76 5.36 -11.98 91.55z"/>
   <path class="fil6" d="M15401.92 11264.66c216.12,62.53 1716.72,22.15 2058.62,22.15 687.68,0 1379.27,-1.02 2063.9,2.22l-18.88 -566.8 -4105.11 -11.18 1.47 553.61z"/>
   <path class="fil4" d="M886.26 14301.86c9.38,126.01 75.2,215.59 125.08,333.01 -38.6,-129.56 52.25,3.58 168.63,16.71l1699.84 -2.67c327.04,0 1700.1,41.52 1894.03,-23.35l24.36 -48.28c8.24,-48.42 10.55,-26.75 6.25,-86.59 -3.67,-51.15 -21.96,-95.76 -30.11,-133.7 -14.75,-68.78 -26.73,-215.2 -88.07,-257.46 -123.48,-48.83 -3539.2,-68.29 -3820.89,-20.28l20.87 222.62z"/>
   <path class="fil5" d="M18886.47 14489.34c48.2,-40.1 75.22,-109.01 57.01,-177.57 20.99,-93.85 74.3,-177.23 12.82,-240.42 -91.09,-93.63 -132.88,11.26 -189.68,42.34 -132.43,-91.3 -1615.38,-40.5 -1769.46,-40.5 -596.76,0 -1243.42,-23.6 -1834.12,5.76 -22.98,198.75 -150.99,317.64 -135.25,552.21 816.46,93.77 2566.79,-35.73 3452.21,13.4 361.1,20.04 189.78,13.06 406.46,-155.22z"/>
   <path class="fil4" d="M18572.77 7782.26c7.22,-102.72 -227.31,-409.06 -290.71,-490.86 -62.42,81.34 46.24,19.2 -77.57,42.44l-344.1 -2.65c-546.59,-27.88 -2799.68,-61.87 -3062.97,-9.05l-56.93 89.85c32.18,85.53 89.94,157.85 111.94,228.83 32.44,104.71 34.39,162.43 76.66,268.89l3591.95 17.12c89.9,-7.18 68.55,-47.23 51.74,-144.56z"/>
   <path class="fil7" d="M1253.38 15026.02c6.91,81.52 138.13,309.35 210.71,359.17l87.44 6.58c4.05,10.18 13.44,31.42 16.37,36.95l23.39 42.91c2.79,5.08 9.17,15.68 13.82,23.49 103.67,-15.84 162.15,5.03 184.93,8.36 65.07,9.51 82.36,-8.42 157.56,-9.89 499.04,-9.72 3020.5,73 3103.39,-37.11l-43.06 -261.21c-43.27,-110.85 -47.53,-135.59 -52.12,-279.88 -254.55,-52.21 -3552.32,-28.84 -3717.25,7.22l14.82 103.41z"/>
   <path class="fil6" d="M19017.31 8661.85c-9.4,-90.19 -113.56,-362.74 -186.3,-429.42 -203.12,-109.33 -667.83,-49.97 -907.11,-50.15l-2874.04 5.32c-8.94,147.08 -4.81,205.76 24.07,317.97l100.64 247.69c983.11,58.54 2607.74,-45.3 3678.35,-5.68 156.64,5.8 123.81,-38.21 159.53,56.04l4.86 -141.77z"/>
   <path class="fil5" d="M18301.4 15493.3c60.98,-35.44 121.31,-156.51 162.9,-216.15 55.63,-79.76 120.79,-164.01 128.28,-251.84l-0.94 -116.68c-112.68,-31.14 -3440.02,-35.46 -3664.2,-1.98 -46.82,142.19 -153.19,427.65 -163.09,578.81 511,27.26 3115.55,-19.97 3355.35,9.33l111.63 10.28c5.81,-0.32 15.67,-1.9 21,-2.45 7.78,-0.81 38.96,-7.44 49.07,-9.33z"/>
   <path class="fil6" d="M1014.12 8230.94c-55.21,59.08 -189.62,331.23 -190.9,448.56l20.81 82.59c103.38,-34.81 3001.58,-26.97 3611.41,-7.31 74.49,2.4 196.11,12.19 247.54,-42.78 43.55,-71.55 124.62,-404.03 120.58,-520.28 -606,-68.64 -2432.64,17.06 -3303.05,-11.71 -230.31,-7.62 -274.55,77.38 -407.36,-26.18 -87.13,103.84 -11.41,29.83 -99.03,77.12z"/>
   <path class="fil6" d="M1429.19 7507.58c-69.68,40.17 -116.77,151.92 -135.43,229.72l-44.55 181.05c154.51,-50.88 3099.96,21.84 3667.07,-10.59 57.15,-192.55 145.78,-354.65 139.92,-564.48 -247.62,-47.2 -2445.94,-34.72 -3012,-24.49 -271.68,4.91 -80.4,81.66 -397.09,7.57 -23.17,121.94 -3.13,83.94 -217.92,181.22z"/>
   <path class="fil4" d="M17827.95 16106.48c54.53,-31.84 161.39,-139.59 176.05,-218.11l18.38 -134.89c-336.49,-37.71 -3285.04,-3.09 -3345.41,3.13 -27.79,45.81 -63.37,87.52 -86.66,123.28 -48.98,75.17 -28.94,76.77 -62.8,163.08 -48.71,124.14 -119.8,153.2 -94.32,322.39 459.37,-64.66 3039.91,-0.99 3089.13,-19.61 39.62,-14.99 147.75,-189.55 305.63,-239.27z"/>
   <path class="fil5" d="M2204.04 6519.06c-82.26,31.57 -151.71,147.12 -217,219.8 -67.45,75.1 -189.99,198.39 -188.58,268.31l128.74 54.76c1018.63,-1.21 2241.62,51.3 3243.38,12.36 97.41,-123.3 60.98,-129.08 131.59,-264.25 66.5,-127.3 101.31,-116.52 114.57,-313.08 -454.23,-36.23 -1827.23,-10.67 -2444.26,-11.59 -201.93,-0.3 -600.92,-1.47 -768.44,33.69z"/>
   <path class="fil6" d="M1812.17 15855.69c29.01,91.51 159.5,229.01 228.49,307.71 6.82,7.78 34.07,38.56 42.96,46.09 37.92,32.08 21.1,15.57 45.58,26.77 193.15,-2.15 55.24,-7.37 163.67,103.58l3118.11 -7.43c7.84,-241.99 -29.38,-150.41 -96.08,-293.21 -37.48,-80.23 -17.59,-99.14 -114.19,-286.5l-3378.35 -5.22c-11.87,28.21 -39.93,-37.5 -10.2,108.21z"/>
   <path class="fil5" d="M18032.81 6977.9c-13.29,-52.08 12.61,-2.19 -19.83,-55.47 -1.1,-1.81 -49.61,-63.35 -54.06,-68.56l-272.78 -315.23c-42.13,-38.96 -32.71,-25.52 -64.76,-36.43l-3215.23 -3.32c16.06,181.85 71.1,169.67 122.34,291.96 93.69,223.63 0.35,107.2 149.91,280.56l3357.56 4.14 -3.14 -97.65z"/>
   <path class="fil8" d="M8832.52 35133.17c293.43,65.48 186.72,-261.91 165.22,-718.78 -45.62,-969.33 -1.56,-2031.52 73.98,-2993.05 51.72,-658.26 329.49,-3341.16 302.66,-3735.55l-218.58 -8.04c-91.2,1220.01 -222.77,2425.79 -309,3646.1 -56.13,794.18 -208.25,3166.58 -14.28,3809.32z"/>
   <path class="fil6" d="M17262.86 6140.45c-11.6,-31.22 3.39,-22.24 -38.26,-63.62 -83.86,-83.3 -378.43,-358.42 -472.86,-360.95 -326.73,-58.39 47.78,-72.69 -650.43,-71.88 -649.37,0.74 -1543.78,-23.34 -2138.57,5.36 4.26,211.86 69.03,196.62 157.1,318.03 109.42,150.83 3.95,136.69 189.76,269.11l2594.88 13.76c171.03,-2.43 176.8,-28.57 376.52,-5.5l-18.14 -104.31z"/>
   <path class="fil6" d="M3119.3 5697.1c-107.45,23.35 -514.51,393.66 -540.88,426.65 -31.8,39.8 -13.67,19.32 -24.54,46.44l4.27 70.02c314.24,-42.92 2540.99,41.46 2908.51,-8.44 182.6,-24.79 177.09,-102.22 252.59,-242.86 86.59,-161.27 177.58,-130.89 188.61,-338.15 -558.25,-30.06 -1480.16,-6.77 -2101.31,-6.83 -113.24,-0.01 -226.71,0.72 -339.92,0.01 -212.8,-1.34 -204.64,49.4 -347.33,53.16z"/>
   <path class="fil8" d="M10149.12 35095.64c102.61,-206.93 -72.42,-1408.34 -99.47,-1763.33 -47.14,-618.51 -81.09,-1240.42 -109.21,-1862.21 -56.81,-1256.71 265.79,-2469.97 180.76,-3714.59l-236.18 -20.87c84.71,1256.93 -217.28,2462.17 -176.36,3744.81 18.41,576.75 156.19,3288.56 300.26,3620.75l140.19 -4.57z"/>
   <path class="fil8" d="M8893.4 27670.06c-168.82,1276.92 -377.84,2470.39 -490.81,3777.69 -78.61,909.79 -56.06,1947.37 -342.65,2832.74 -47.66,147.22 -334.44,733.97 -111.98,753.01 128.02,10.95 184.68,-233.21 221.59,-333.92 425.51,-1160.78 359.93,-2023.3 462.45,-3217.14 56.46,-657.51 136.5,-1261.6 220.98,-1903.38 45.57,-346.11 184.81,-1637.45 152.46,-1916.52l-112.05 7.53z"/>
   <path class="fil4" d="M2582.77 16694.11c27.27,72.39 294.91,285.68 353.74,332.9 129.42,103.86 512.55,146.45 593.15,136.55 128.84,-20.79 150.39,21.4 307.79,24.59 105.37,2.14 199.13,10.69 308.92,6.26 216.98,-8.75 445.33,-0.82 641.82,-39.31 71.38,-43.36 115.03,-114.79 196.66,-158.11 179.52,-95.25 133.07,17.74 304.11,21.45l-0.69 -209.44 155.69 -121.45 30.84 -94.66c-191.29,-24.99 -403.4,8.7 -678.14,-3.37 -414.95,-18.22 -1938.68,-18.36 -2203.4,26.28l-10.48 78.3z"/>
   <path class="fil4" d="M14354.45 16663.21l196.8 147.01 12.15 207.65c142.9,-6.6 120.39,-86.61 257.3,-44.39 87.16,26.88 106.21,103.65 189.83,110.74 143.58,54.1 11.28,-8.62 85.94,40.6 6.44,4.25 40.42,37.75 78.1,62.98l1116.45 -22.12c157.21,22.92 186.01,-13.88 315.08,-36.99 290.17,-51.96 229.07,-22.36 586.84,-344.77 4.38,-3.95 45.11,-41.17 46.37,-42.75 36.86,-45.78 10.11,-7.85 23.31,-46.81l-18.35 -102.99 -2872.88 -13.3c-25.31,41.83 -48.52,-56.38 -16.94,85.14z"/>
   <path class="fil6" d="M16163.25 5303.22c-38.31,-113.91 -825.14,-483.89 -965.92,-496.67l-1930.27 -3.25c47.23,189.87 323.99,411.11 451.35,573.07l2135.76 3.01c91.89,-10.33 37.34,-20.54 154.46,-18.73 84.19,1.3 41.32,17.71 154.46,5.38l0.16 -62.81z"/>
   <path class="fil6" d="M4487.2 4881.82c-115.75,-8.04 -770.45,344.48 -835.27,432.87l-8 67.21 1243.81 1.69c413.72,-0.01 822.18,-0.68 1235.65,-9.73 59.32,-52.34 200.03,-213.99 249.71,-272.78 67.51,-79.87 32.39,-80.52 124.97,-151.68 63.07,-48.49 97.05,-48.98 105.46,-142.8l-1868.24 8.91c-86.14,13.31 -146.46,49.66 -248.1,66.31z"/>
   <path class="fil9" d="M7476.94 4542.46l4886.72 2.43c-64.61,-124.7 -297.16,-218.17 -455.91,-245.19 -185.95,-31.65 -3816.41,-14.22 -3982.99,20.04 -235.65,48.46 -280.19,80.05 -447.82,222.72z"/>
   <path class="fil8" d="M10813.15 23921c223.39,102.41 184.28,-63.88 220.33,-228.95 34.37,-157.41 70.36,-268.03 81.36,-433.2 21.02,-315.57 -20.53,-668.54 -36,-984.11 -31.34,-639.34 56.78,-1461.15 -15.54,-2064.34l-209.81 1.36c-61.75,469.36 -15.8,1395.88 -10.57,1907.61 9.48,927.53 135.39,691.8 -48.43,1580.24 -27.36,132.2 -26.05,143.95 18.66,221.4z"/>
   <path class="fil8" d="M10049.45 23819.33c317.31,-759.52 210.94,-2731.07 131.36,-3596.18l-218.62 -14.6c-64.6,577.58 175.41,1811.52 8.5,2948.78 -88.42,602.47 -267.22,703.37 78.76,662z"/>
   <path class="fil8" d="M11489.36 23798.53c92.42,48.08 44.63,36.76 163.6,19.4 203.93,-251.61 248.8,-1329.33 236.8,-1729.47l-85.26 -1877.85 -209.52 0.83c-59.01,426.1 45.07,1363.83 61.64,1846.16 10.28,299.27 -4.79,636.49 -36.81,924.93 -21.51,193.77 -165.19,709.14 -130.45,816.02z"/>
   <path class="fil8" d="M8937.4 23751.73c241.02,71.67 244.34,-75.11 406.53,-605.85 87.07,-284.9 168.96,-567.55 239.97,-872.02 176.21,-755.66 55.16,-908.59 53.9,-1544.58 -0.4,-198.71 38.66,-340.76 43.79,-518.98l-214.13 0.56c-93.28,316.6 -60.37,618.44 -39.65,950.34 83.76,1341.75 -505.74,2214.32 -490.41,2590.53z"/>
   <path class="fil10" d="M9577.43 25349.29c-692.36,150.1 -462.06,1118.84 190.93,1003.84 653.93,-115.17 464.13,-1145.85 -190.93,-1003.84z"/>
   <path class="fil8" d="M7883.3 20212.34l-212.89 -2.36c-59.08,536.27 457.24,1298 241.69,2742.95 -27.42,183.83 -211.27,846.37 93.85,809.24 160.23,-19.49 47.32,-185.47 65.42,-375.6 55.74,-585.59 140.45,-487.3 113.05,-1421.91 -19.26,-656.86 -231.64,-1109.21 -301.12,-1752.33z"/>
   <path class="fil8" d="M8845.37 23439.28c144.02,-224.73 -103.76,-1549.43 -38.59,-2375.85 19.88,-252.17 70.44,-606.86 38.73,-852.68l-211.66 0.95c-95.01,868.94 -147.37,2521.12 211.52,3227.59z"/>
   <path class="fil8" d="M12221.37 20223.22l-220.91 -14.21c-48.36,498.08 331.32,1327.95 267.21,2313.26 -27.71,425.87 -198.75,618.63 -24.95,648.68 343.04,59.3 256.07,-1216.49 226.24,-1464.91 -62.64,-521.5 -214.93,-958.4 -247.58,-1482.82z"/>
   <path class="fil8" d="M9327.57 33394.17c257.59,14.29 186.7,-153.14 166.34,-647.57l-167.37 -2538.51c-56.22,213.52 -136.95,1311.68 -129.28,1580.27 8.43,295.12 53.76,1444.39 130.31,1605.81z"/>
   <path class="fil8" d="M7482.63 23563.29c254.87,-248.11 309.04,-982.88 308.91,-1413.04 -0.25,-807.02 -37.63,-680.34 -190.38,-1324.41 -5.78,-24.38 -9.33,-52.38 -17.1,-75.35l-49.21 -96.25c-38.47,782.67 119.73,1730.31 -71.59,2433.5 -62.9,231.19 -313.36,521.55 19.38,475.55z"/>
   <path class="fil8" d="M9014.88 22847.33c196.82,-225.29 229.13,-959.79 229.1,-1222.23 -0.05,-392.01 47.67,-1062.82 6.33,-1414.7l-211.71 3.94c-45.91,337.06 -33.98,2200.37 -23.72,2632.99z"/>
   <path class="fil8" d="M10664.44 20210.23c-97.55,46.05 -55.8,51.88 -65.42,364.56 -14.98,486.65 16.18,782.25 -54.02,1297.85 -35.5,260.75 -84.68,512.93 -128.38,770.11 -24.58,144.65 -167.53,726.67 -48.41,793.91 168.99,95.38 187.22,-97.18 197.1,-205.03 43.17,-471.04 136.54,-703.26 137.3,-1235.84 0.19,-134.02 52.63,-1674.07 -38.18,-1785.57z"/>
   <path class="fil11" d="M9208.84 17942.4c158.87,-93.96 559.88,-436.11 737.92,-418.29 199.93,20.03 560.54,349.86 698.66,439.01 -151.33,86.17 -1240.08,167.65 -1436.58,-20.73zm-218.62 37.51c107.35,220.53 685.91,209.76 932.65,208.59 203,-0.96 843.02,-4.74 927.61,-208.59 -50.64,-111.17 -745.32,-588.07 -927.01,-585.59 -198.02,2.71 -852.03,464.21 -933.24,585.59z"/>
   <path class="fil12" d="M9208.84 17942.4c196.5,188.37 1285.25,106.89 1436.58,20.73 -138.13,-89.15 -498.73,-418.99 -698.66,-439.01 -178.04,-17.83 -579.05,324.33 -737.92,418.29z"/>
   <path class="fil13" d="M4788.17 17155.11c-196.49,38.49 -424.84,30.56 -641.82,39.31 -109.78,4.43 -203.55,-4.12 -308.92,-6.26 -157.4,-3.19 -178.95,-45.38 -307.79,-24.59 65.52,58.75 752.31,259.73 923.96,327.17 245.38,96.4 705.97,274.27 1012.76,238.02 -339.44,-269.22 -797.42,-152.6 -678.21,-573.65z"/>
   <path class="fil12" d="M5628.98 4448.38l-54.6 94.03c310.19,12.97 717.37,26.41 1012.39,9.39 649.98,-37.5 315.01,29.76 585.2,-164.03 50.15,-35.96 121.24,-56.66 200.39,-78.23 -90.11,-2.4 -609.49,-6.1 -724.48,-34.4 -203.28,-37.18 -843.77,103.68 -1018.9,173.25z"/>
   <path class="fil14" d="M16291.02 17165.68l-1116.45 22.12c-37.68,-25.23 -71.66,-58.73 -78.1,-62.98 -74.66,-49.21 57.64,13.5 -85.94,-40.6 86.58,252.1 179.88,301.23 -261.61,469.61 -60.59,23.1 -104.61,45.78 -173.68,74.6 -97.03,40.47 -117.33,30.01 -180.22,107.72 353.71,18.98 696.28,-143.66 970.73,-238.8l925.27 -331.67z"/>
   <path class="fil15" d="M13575.17 17557.89c109.19,31.77 162.94,69.71 116.62,176.34 -107.37,-23.55 -20.46,64.76 -93.49,-63.34 -19.68,-34.52 -20.47,-67.97 -23.13,-113zm-830.55 292.4c111.18,79.08 183.98,62.23 331.86,33.86 48.69,-124.9 -24.06,-113.69 111.35,-190.89 67.15,-38.28 143.1,-58.12 225.94,-73.02l108.49 144.2c-63.93,131.72 -55.57,-10.23 -80.18,153.69 325.18,134.91 630.4,-388.63 123.67,-492.26 -347.55,-71.08 -847.55,110.58 -821.12,424.42z"/>
   <path class="fil15" d="M6154.29 17732.65c-44.3,-106.59 23.11,-140.34 128.98,-169.83 -12.92,39.19 -19.96,76.02 -38.66,105.2 -74.75,116.63 -13.75,39.19 -90.32,64.62zm248.75 185.48c-27.96,-159.27 -23.56,-21.32 -80.06,-154.46l103.83 -146.66c99.14,18.28 259.49,58.99 311.37,154.3 3.58,6.58 5.93,16.15 8.91,22.82 2.99,6.66 5.3,17 7.71,23.16 59.33,151.37 246.94,96.01 348.33,35.47 17.66,-524.9 -1160.43,-591.47 -1094.71,-125.74 16.94,120.01 251.96,254.9 394.62,191.1z"/>
   <path class="fil16" d="M14186.2 4443.22c-96.73,-59.47 -484.65,-133.38 -606.52,-108.56 -141.14,24.99 -744.18,-146.92 -1080.07,-19.17 211.91,10.3 234.56,249.69 759.69,237.23 136.66,-3.25 906.61,30.98 1028.99,-41.45 -208.55,-17.12 -17.08,10.38 -102.09,-68.06z"/>
   <path class="fil8" d="M8869.29 27195.64c155.98,61.44 439.71,36.3 650.37,63.98 158.7,20.85 451.14,130.22 593.28,49.49 200.08,-212.44 -464.13,-266.62 -560.87,-278.74 -509.09,-63.79 -700.13,-103.63 -682.78,165.27z"/>
   <path class="fil17" d="M7897.76 17460.76c157.49,-15.49 123.22,-18.66 185.69,-115.9 6.24,4.37 15.86,3.41 18.63,13.28 3.74,13.33 30.25,23.5 36.29,28.64 6.12,5.22 53.4,48.55 54.76,49.89 159.54,-9.82 82.29,-38.43 212.65,-12.94 105.27,20.6 100.18,24.97 195.24,-20.12l24.75 77.35c92.71,-28.49 547.82,-256.65 629.3,-345.73 -191.42,29.18 -90.23,-19.33 -262.14,38.31 -114.19,38.29 -143.34,16.53 -273.17,14.68 -214.35,-3.06 -441.36,-3.08 -650.2,0.18 -113.14,-150.33 -58.28,-211.22 -308.22,-258.64 84.49,97.84 164.16,107.82 200.69,198.21 35.98,89.05 24.55,164.5 -10.64,240.26l-53.63 92.52z"/>
   <path class="fil17" d="M11357.8 17556.68l-63.05 -101.69c184.12,22.67 86.63,-20.32 263.54,-29.35 115.16,-5.88 248.1,-4.74 359.9,0.89 -49.15,-163.34 -68.35,-110.79 -44.39,-311.42 -99.99,67.5 -16.6,-19.61 -97.61,94.44l-659.14 -38.13 -51.03 85.81c-151.05,-58.98 -330.3,-116.66 -520.3,-128.22 40.03,42.98 -12.43,11.92 76.52,60.09l304.08 156.08c134.72,68.43 297.79,180.62 431.47,211.5z"/>
   <path class="fil18" d="M12010.17 21173.78c-45.63,310.67 96.42,1187.29 -57.95,2111.2 -25.26,151.17 -182.93,577.59 94.01,469.06 101.47,-39.76 27.85,-162.63 27.7,-274.59 -0.08,-62.99 18.49,-127.34 10.75,-183.39 -9.61,-69.69 -38.66,-68.16 -56.59,-133.93 -22.56,-82.78 87.88,-482.66 100.3,-640.74 51.89,-660.67 -93.05,-934.08 -118.21,-1347.61z"/>
   <path class="fil8" d="M9493 33549.17c11.31,225.68 28.55,424.88 57.48,648.62 44.38,343.27 29.56,457.77 238.63,464.51l-116.1 -1344.94c-5.01,6.9 -11.44,16.05 -14.57,21.02l-165.44 210.8z"/>
   <path class="fil18" d="M9778.93 23350.73c214.4,-486.88 60.9,-2187.69 42.23,-2813.59 -4.01,6.36 -11.15,8.14 -12.48,18.78 -1.31,10.49 -9.65,14.72 -11.27,19.17 -33.99,93.17 -23.44,139.83 -18.44,235.53 18.72,358.07 67.88,748.82 18.78,1092.56 -46.43,325.1 -80.63,1127.35 -18.83,1447.55z"/>
   <path class="fil19" d="M11282.26 22954.5c75.18,-63.13 69.72,-163.93 111.17,-324.12 30.43,-117.59 59.5,-222.62 91.8,-339.34 56.96,-205.82 20.89,-651.08 -2.88,-873.51 -38.06,351.51 -408.47,1125.43 -200.09,1536.97z"/>
   <path class="fil20" d="M7846.05 18085.08c17.82,210.29 68.94,307.06 278.6,315.56l-77.21 -143.3c484.63,-188.3 329.87,170.1 328.11,182.46 230.81,-13.02 327.47,-283.78 322.34,-525.52 -141.7,31.75 -175.03,95.5 -371.18,137.16 -173.51,36.85 -299.29,39.96 -480.67,33.63z"/>
   <path class="fil20" d="M11467.17 18404.45c1.03,-4.1 -110.97,-344.71 318.1,-154.32 -34.75,139.13 -29.91,47.68 -64.62,150.6 197.32,-2.92 283.14,-112.13 267.99,-319.42 -541.16,37.63 -646.19,-121.19 -841.2,-168.01 -4.36,159.05 56.52,386.23 182.08,485.16 10.51,8.27 45.82,31.09 57.37,33.13 137.4,24.26 50.58,-6.44 80.29,-27.13z"/>
   <path class="fil20" d="M5753.25 18377.96l-39.02 -140.88c-2.1,-38.19 146.14,-76.04 261.92,-18.42 131.74,65.56 7.14,101.52 206.07,130.4 -18.46,-412.67 -269.43,-205.35 -555.4,-275.51 -147.56,-36.21 -270,-73.97 -432.6,-62.35 1.23,268.52 427.99,387.47 559.03,366.75z"/>
   <path class="fil19" d="M8833.61 27473.05c134.48,58.92 1141.98,151.55 1336.92,113.65l27.09 -138.57c-215.18,84.51 -415.06,-4.54 -649.76,-40.24 -210.53,-32.01 -527.7,-50.12 -721.54,-52.22l7.28 117.37z"/>
   <path class="fil21" d="M7897.76 17460.76c-122.82,80.99 -130.01,132.14 -143.07,211.21 263.43,74.64 730.43,-29.7 871.06,-191.02l-24.75 -77.35c-95.05,45.1 -89.97,40.72 -195.24,20.12 -130.35,-25.49 -53.11,3.13 -212.65,12.94 -1.36,-1.34 -48.63,-44.67 -54.76,-49.89 -6.03,-5.14 -32.55,-15.32 -36.29,-28.64 -2.77,-9.88 -12.38,-8.91 -18.63,-13.28 -62.47,97.24 -28.21,100.41 -185.69,115.9z"/>
   <path class="fil19" d="M8606.27 34920.29c3.13,-5.81 8.87,-13.87 11.86,-20.9 45.25,-106.64 -4.95,-950.34 -23.42,-1008.75 -59.2,26.85 -42.32,-58.74 -104.38,234.55 -34.31,162.16 -95.02,743.32 -40.84,841.73l127.65 -12.72 29.12 -33.9z"/>
   <path class="fil21" d="M11357.8 17556.68c130.5,122.21 533.42,200.76 746.53,104.13l-130.14 -187.92c-50.86,-55.81 -32.15,-33.15 -56,-46.37 -111.8,-5.63 -244.74,-6.78 -359.9,-0.89 -176.91,9.04 -79.42,52.02 -263.54,29.35l63.05 101.69z"/>
   <path class="fil18" d="M10396.5 21827.37c32.71,-504.25 115.64,-1089.32 63.05,-1618.84l-131.22 0.21 68.17 1618.63z"/>
   <path class="fil22" d="M11257.64 21663.18c195.68,-341.22 89.29,-901.58 -27.48,-1248.67 -38.49,415.45 -8.47,842.64 27.48,1248.67z"/>
   <path class="fil23" d="M8722.18 18429c145.5,52.78 401.64,55.39 558.14,25.2 147.38,-28.43 128.91,-51.8 156.66,-80.81 -247.43,-44.26 -387.34,-160.36 -578.08,-184.58l-136.73 240.19z"/>
   <path class="fil24" d="M10409.25 18372.03c33.09,34.75 19.54,49.29 128.72,76.95 152.59,38.66 444.05,34.08 579.01,-16.87l-134.69 -241.51c-188.69,18.32 -323.11,143.07 -573.05,181.42z"/>
   <path class="fil25" d="M9482.23 30284.92c110.3,-172.17 259.11,-1508.52 254.65,-1658.13 -114.31,225.09 -274.06,1348.4 -254.65,1658.13z"/>
   <path class="fil20" d="M7115.95 18064.37c190.31,115.82 286.91,150.54 556.42,189.76 -77.41,-216.18 -218.02,-285.67 -278.18,-435.61 -5.81,5.88 -14.7,6.58 -17.13,17.9 -18.6,86.8 -195.33,190.49 -261.11,227.95z"/>
   <path class="fil23" d="M12174.69 18255.59c282.79,-52.16 339.05,-63.94 554.43,-192.17 -152.12,-94.01 -116.2,-30.04 -216.88,-170.04l-60.22 -75.09c-69.69,159.81 -203.76,223.16 -277.33,437.3z"/>
   <path class="fil26" d="M9505.46 29032.27l158.07 -956.13c8.23,-59.45 20.39,-122.68 27.15,-181.15 0.91,-7.91 8.52,-90.68 8.14,-93.24 -24.9,-170.12 17.5,-26.93 -53.79,-86.02 -111.62,176.52 -166.43,1068.73 -139.56,1316.53z"/>
   <path class="fil20" d="M6861.21 18409.49c19.17,-292.67 -338.27,-329.94 -625.28,-319.97l266.38 191.33c110.81,67.5 198.39,151.88 358.91,128.63z"/>
   <path class="fil23" d="M12986.37 18409.98c166.81,22.39 490.7,-179.06 586.43,-318.26 -291.85,27.41 -604.36,14.83 -586.43,318.26z"/>
   <path class="fil18" d="M9278.71 33797.22c15.25,253.76 60.95,538.96 17.7,753.29 112.97,-59.19 116.94,-70.96 107.23,-227.87 -13.49,-218.16 -19.81,-713.5 -98.43,-790.17l-34.51 138.43c-0.68,26.61 6.12,94.9 8.01,126.32z"/>
   <path class="fil19" d="M8220.32 23380.49c86.95,94.89 139.9,184.26 288.33,103.62 38.94,-104.47 -40.79,-114.35 -105.71,-245.17 -41.32,-83.28 -68.1,-201.61 -109.49,-284.74l-73.13 426.29z"/>
   <path class="fil19" d="M9293.14 26856.66l232.08 27.83c44.89,-171.79 67.23,-115.81 173.84,-228.4 -72.61,-52.46 -186.49,-60.18 -301.14,-59.77 -43.89,79.43 -88.07,154.25 -104.78,260.34z"/>
   <path class="fil18" d="M8438.68 20925.52l54.93 -701.7 -134.12 -14.1c-16.56,218.44 -2.1,549.91 79.19,715.8z"/>
   <path class="fil24" d="M12739.25 18381.5c-96.68,-170.38 -350.65,-94.42 -369.11,8.17 -17.04,94.73 84.34,102.66 178.69,98.22 132.61,-6.23 152.61,-36.5 190.42,-106.39z"/>
   <path class="fil23" d="M7108.36 18421.77c106.55,60.29 211.18,105.6 348.42,26.6 69.5,-183.26 -321.46,-256.19 -348.42,-26.6z"/>
   <path class="fil27" d="M11262.6 23121.1l-32.03 409.57c126.66,-73.46 157.84,-295.43 180.49,-463.03l-148.46 53.46z"/>
   <path class="fil22" d="M9698.7 26876.63c73.4,58.55 62.44,62.34 247.54,66.54 -17.54,-107.88 -54.29,-197.4 -93.5,-275.61l-154.04 209.07z"/>
   <path class="fil28" d="M9277.51 23805.62l193.45 -2.31c-14.38,-123.18 -48.49,-179.53 -100.43,-257.74l-93.02 260.05z"/>
   <path class="fil29" d="M13691.79 17734.23c46.32,-106.63 -7.43,-144.57 -116.62,-176.34 2.65,45.04 3.45,78.49 23.13,113 73.04,128.09 -13.88,39.79 93.49,63.34z"/>
   <path class="fil30" d="M6154.29 17732.65c76.58,-25.44 15.58,52.01 90.32,-64.62 18.7,-29.18 25.74,-66.01 38.66,-105.2 -105.88,29.48 -173.28,63.23 -128.98,169.83z"/>
  </g>
 </g>
</svg>
