<?xml version="1.0" encoding="UTF-8"?>
<!DOCTYPE svg PUBLIC "-//W3C//DTD SVG 1.1//EN" "http://www.w3.org/Graphics/SVG/1.1/DTD/svg11.dtd">
<!-- Creator: CorelDRAW -->
<svg xmlns="http://www.w3.org/2000/svg" xml:space="preserve" width="334.212mm" height="669.865mm" version="1.1" style="shape-rendering:geometricPrecision; text-rendering:geometricPrecision; image-rendering:optimizeQuality; fill-rule:evenodd; clip-rule:evenodd"
viewBox="0 0 11600.91 23251.85"
 xmlns:xlink="http://www.w3.org/1999/xlink"
 xmlns:xodm="http://www.corel.com/coreldraw/odm/2003">
 <defs>
  <style type="text/css">
   <![CDATA[
    .fil8 {fill:#010101}
    .fil6 {fill:#020304}
    .fil15 {fill:#060606}
    .fil45 {fill:#090909}
    .fil20 {fill:#0C0B0C}
    .fil2 {fill:#141413}
    .fil35 {fill:#1E1E1E}
    .fil9 {fill:#222222}
    .fil26 {fill:#291C27}
    .fil22 {fill:#2B1714}
    .fil25 {fill:#332F72}
    .fil29 {fill:#373737}
    .fil24 {fill:#5B2416}
    .fil37 {fill:#676867}
    .fil33 {fill:#6F716F}
    .fil23 {fill:#7179A5}
    .fil39 {fill:#777777}
    .fil27 {fill:#7B84AB}
    .fil28 {fill:#932118}
    .fil36 {fill:#939494}
    .fil30 {fill:#944A16}
    .fil19 {fill:#969BCC}
    .fil21 {fill:#979898}
    .fil34 {fill:#9A78F7}
    .fil38 {fill:#9C9C9C}
    .fil41 {fill:#BEBEBE}
    .fil7 {fill:#C6C5C6}
    .fil12 {fill:#C9C9CA}
    .fil5 {fill:#CBCBCB}
    .fil16 {fill:#D1D1D1}
    .fil3 {fill:#D5D6D6}
    .fil1 {fill:#D9D9D9}
    .fil4 {fill:#DBDDDC}
    .fil11 {fill:#DDDDDD}
    .fil10 {fill:#DEDEDE}
    .fil32 {fill:#F0BF62}
    .fil17 {fill:#F0F0F0}
    .fil14 {fill:#F3F4F3}
    .fil31 {fill:#F43732}
    .fil44 {fill:whitesmoke}
    .fil40 {fill:#F6F6F6}
    .fil46 {fill:#F6F9F6}
    .fil43 {fill:#F7F7F7}
    .fil13 {fill:#F9F9F9}
    .fil18 {fill:#FAFAFA}
    .fil0 {fill:#FAFAFC}
    .fil42 {fill:#FDFDFB}
   ]]>
  </style>
 </defs>
 <g id="Слой_x0020_1">
  <metadata id="CorelCorpID_0Corel-Layer"/>
  <g id="_2254441331840">
   <path class="fil0" d="M5557.4 22770.74c2.23,-2.17 5.53,-4.8 7.14,-6.02l14.73 -11.3c2.28,-1.51 5.37,-3.49 7.8,-4.96 1.6,-0.98 23.54,-12.13 24.9,-12.77 50.71,-24.03 115.43,-47.87 170.93,-43.38 2.77,-1.99 6.6,-4.03 8.89,-5.04 2.32,-1.02 6.25,-3.55 9.21,-4.7 51.27,-19.83 -44.49,8.8 20.44,-7.17l122.52 -2.63c24.96,1.07 56.67,1.37 80.44,6.24l58.48 25.19c51.59,-6.63 217.53,38.28 163.46,104.82 4.02,93.56 -72.27,169.18 -119.21,210.67 -61.21,54.11 -144.33,87.05 -245.42,80.23 -179.25,-12.09 -305.71,-154.24 -324.32,-329.18zm581.93 -1174.34c-43.44,15.79 -96.81,47.27 -143.19,69.14 -40.37,19.03 -106.15,43.42 -113.96,61.6 -11.19,18.15 -3.22,21.14 -24.49,42.95 -86.12,39.76 -151.05,-24.89 -227.89,-62.72l-103.01 -56.06c-49.68,-27.02 -98.32,-56.26 -147.27,-85.53 -22.93,-13.71 -45.73,-26.4 -68.97,-40.3 -17.31,-10.35 -9.34,-3.78 -23.03,-14.6l-14.31 -12.69c-2.77,-2.75 -11.85,-13.71 -13.84,-15.98 -30.12,-34.5 -9.69,-287.42 -8.68,-348.88l7.1 -251.29 39 -30.99c3.02,-1.94 20.26,-11.22 31.24,-16.91 600.56,-311.42 366.18,-312.17 894.18,-18.42 42.5,23.65 89.07,56.42 134.93,79.32l-26.49 593.48c-52.4,36.37 -154.44,51.53 -191.31,107.89zm-1031.98 -2836.54c2.71,-121.17 39.38,-242.04 91.57,-330.11 46.62,-78.66 128.56,-174.35 190.12,-207.34 14.5,-19.83 -2.35,-4.27 26.37,-29.65l84.54 -50.06c42.44,-20.1 87.24,-42.12 139.16,-39.88 52.8,-49.27 225.51,-34.67 295.05,-22.77l83.57 34.3c82.5,2.99 175.65,69.9 221.56,118.21 85.56,49.06 219.54,231.92 244.24,372.89 63.17,215.9 -9.96,441.58 -115.15,589.37 -347.83,488.68 -1234.13,333.43 -1261.02,-434.95zm-935.08 -6761.5c-2.44,-176.43 -19.8,-297.49 -5.16,-466.25 22.3,-257.04 113.92,-509.29 250.09,-716.97 37.25,-56.8 61.33,-100.44 97.4,-147.99 21.5,-28.35 38.53,-45.7 57.12,-64.87l275.29 -264.83c26.82,-23.58 2.6,-5.62 33.12,-27.26 670.93,-475.59 1583.77,-420.45 2147.48,102.08 220.65,204.53 391.23,425.31 498.16,711.84l43.15 140.36c11.48,38.78 -1.67,-2.59 13.45,35.62 47.9,120.98 58.44,775.83 -31.62,842.07 4.76,-77.84 27.8,-197.94 25.37,-266.27l-40.46 0c-6.67,361.33 -247.99,810.35 -448.55,996.9 -614.09,571.17 -1361.63,657.63 -2080.72,221.1l-207.39 -159.3c-193.39,-165.77 -344.01,-386.05 -445.39,-617.86 -23.91,-7.48 2.34,-23.61 -24.7,34.49 -3.21,-117.67 -18.55,14.8 -36.69,-84.14 -3.21,-17.51 -0.82,-88.33 -0.89,-110.94l-48.56 0 0 -146.94c-40.45,0.01 -43.32,6.97 -70.5,-10.84zm6483.41 6575.69c-61.87,-23.43 -9.68,26.99 -53.63,-44.94 -0.97,-1.58 -18.32,-43.97 -21.73,-51.65 -15.82,-35.71 -25.79,-59.84 -41.37,-92.28 -204.84,-426.84 -405.25,-891.01 -577.98,-1333.21 -212.88,-544.99 -386.65,-1042.19 -559.24,-1635.98 -282.85,-973.16 -551.73,-2239.4 -604.14,-3233.91 -9.07,-172.19 -10.7,-341.93 -19.08,-514.33 -26.08,-536.21 12.42,-1064.99 76.73,-1576.62 19.53,-155.37 46.47,-306.3 67.63,-467.74 43.56,-332.19 155.97,-808.21 242.67,-1144.38l174.93 -633.27c78.93,-276.14 178.86,-564.67 274.74,-827.54 49.77,-136.46 96.79,-266.94 150.6,-400.77 25.28,-62.89 48.87,-122.08 76.97,-192.4 102.65,-256.92 204.32,-516.26 329.48,-761.28l355.46 -734.99c33.33,-66.58 51.96,-142.28 117.89,-179.58 -4.47,66.35 -9.64,64.43 -31.45,111.01 -64.54,137.85 -140.47,281.95 -193.17,423.93 -18.85,50.8 -19.9,47.25 -8.98,101.54 -57.59,27.62 12,-12.93 -47.45,12.57 -3.57,103.03 -80.38,186.61 -112.64,279.36 -24.42,70.2 -72.31,98.48 -67.5,179.84 2.18,36.83 -32.49,197.68 -72.24,200.99 -36.97,3.08 27.89,-21.26 -14.32,-11.28 -16.83,265.03 -26.01,133.12 -38.32,234.1 -10.79,88.44 -25.04,139.92 -25.7,231.23l-34.83 14.71c-5.28,2.14 -14.74,9.95 -16.45,6.56 -1.2,-2.38 -5.55,1.68 -7.96,3.23 0.06,93.13 -12.73,145.77 -32.49,226.38 -16.51,67.32 -6.57,177.63 -6.57,251.61 -1.68,-2.66 -3.14,-6.56 -3.79,-8.65 -0.67,-2.13 -2.71,-6.28 -3.43,-9.01 -10.89,-41.71 2.78,-95.34 -16.29,-127.86 0,48.54 -0.49,97 -0.59,145.52 -0.13,58.52 -14.21,87.58 -22.06,124.58 -13.09,61.64 13.59,140.79 -19.43,201.39 -11.14,20.45 -1.66,2.89 -15.27,21.11 -45.56,61.06 1.8,224.02 -25.83,305.06 -19.58,57.41 -30.65,14.04 -39.65,57.66l-22.82 259.43c-12.28,64.85 22.84,40.09 -38.36,47.13 0,76.3 2.66,137.06 -24.9,207.78l-15.99 94.83c-10.49,55.84 -4.47,129.98 -21.39,174.05 -11.21,29.2 -20.97,32.36 -24.32,73.44 -3.09,37.82 0.36,95.03 0.15,135.2 -0.45,85.36 -1.24,170.56 -1.24,256.17l-83.3 1.53c-0.05,80.93 20.35,294.01 -19.64,361.01 -13.7,22.96 4.39,29.33 -54.27,30.72 0,132.34 1.7,262.87 -24.42,367.51 -26.81,107.43 -25.22,246.84 -25.98,366.91l-47.5 0.09 -0.72 490.03c-78.69,1.69 -28.8,-3.34 -45.31,15.84 -37.06,43.05 -4.44,95.67 -3.25,154.64 1.56,76.99 -0.44,155.94 -0.43,233.19 0.02,170.78 -11.95,302.72 -11.91,465.32 0.08,327.33 12.58,624.17 12.58,942.47l47.61 0 2.02 734.72 47.24 0c0,122.15 26.31,38.19 25.57,343.32 -0.34,138.75 24.17,216.66 24.17,342.42l48.08 0 11.94 587.43 37.63 0c0,48.82 3.49,112.21 -0.73,159.3 -4.66,52.06 -12.91,65.4 -11.8,135.39 1.61,101.25 15.55,176.63 14.74,292.42l40.17 8.17c1.47,-2.7 5.06,3.72 7.32,5.52l1.53 171.43 46.45 24.49 1.04 159.19c9,46.59 47.42,4.99 47.79,208.13 0.16,85.6 1.04,171.15 1.08,256.76l36.01 0 0.4 184.11c11.34,7.07 3.29,5.77 25.17,10.85 9.81,2.28 24.67,1.16 34.99,1.17 -1.96,88.8 -33.49,80.93 -12.54,170.68l15.04 160.16 46.79 24.49c-1.1,184.45 49.99,153.27 50.08,281.19l48.55 -0.09 14.88 167.96c9.3,45.54 -12.98,28.54 6.22,80.12 0.94,2.53 2.91,5.52 4.03,8l41.07 82.42c40.56,47.72 4.87,-34.25 30.76,29.4 -25.08,119.46 25.75,46.4 25.92,170.02 103.87,3.55 69.47,21.95 85.11,160.61l7.65 -1.57c1.27,0.18 5.52,0.61 6.97,1.51l6.71 6.76c0.91,0.93 2.84,4.26 3.89,5.32 29.96,30.47 -24.95,24.47 58.46,26.59 0.3,58.19 -2.64,138.99 2.19,194.65 6.48,74.65 24.48,97.8 96.12,98.14 0.36,219.41 -11.19,85.73 38.89,182.47 24.45,47.24 1.11,21.25 8.21,48.85 14.15,55.03 2.28,0.11 34.57,42.37 30.32,39.66 7.34,3.76 18.41,55.25 13.48,62.66 -1.29,11.34 16.14,39.21 30.55,48.83 42.82,114.63 62.3,163.6 26.85,67.5 37.94,21.17 42.34,112.21 1.87,38.63 20.93,72.34 35.68,109.53 18.45,46.53 27.46,60.6 36.63,127.36zm-9070.01 -12502.45c-0.97,-135.6 36.63,-259.48 -73.47,-342.87 0.03,-39.51 -2.71,-77.71 -11.37,-101.15 -25.02,-67.76 -15.2,-1.08 -33.39,-61.26 -10.81,-35.78 8.23,-13.78 -13.33,-66.11l-299.11 -606.17c-37.49,-72.62 -119.42,-195.76 -115.38,-284.04 32.3,20.42 43.73,51.95 63.18,93.79 11.37,24.45 29.82,60.17 45.22,89.06 33.28,62.44 72.45,119.76 103,179.84 273.76,538.35 578.51,1183.72 780.73,1746.42 24.37,67.82 43.95,117.44 73.49,194.01 269.06,697.44 625.57,1928.69 713.82,2635.26 9.35,74.88 26.14,169.72 38.58,242.17 42.87,249.66 61.29,483.49 88.23,741.83 35.27,338.27 33.9,724.09 34.21,1086.35 0.16,183.93 -18.91,367.57 -24.37,539.76 -11.89,375.24 -114.43,1121.28 -185.68,1496.13 -62.79,330.32 -116.73,620.43 -192.82,922.64l-234.41 882.01c-69.5,268.29 -171.89,552.69 -269.75,845.31 -91.9,274.82 -200.81,533.89 -299.88,814.5 -94.23,266.91 -220.6,526.46 -327.81,787.7l-132.79 295.35c-46.7,90.23 -172.99,411.65 -242.74,444.69 -20.98,-23.24 -6.7,12.91 -11.75,-25.03l16.61 -51.49c113.12,-219.13 292.76,-548.66 370.24,-777.96l65.75 -143.79c12.5,-28.88 14.18,-49.07 28.48,-82.39l39.12 -83.4c1.21,-2.62 2.74,-5.77 3.96,-8.37 1.21,-2.58 2.77,-5.73 3.99,-8.29l217.17 -563.95c14.17,-49.59 43.75,-107.01 48.21,-157.31 5.17,-58.31 -32.11,-0.74 1.61,-90.66l47.96 -213.03c2.45,-26.47 2.86,-29.66 -3.86,-53.79l-7.35 -17.69c-14,-41.66 -1.36,-42.61 -0.34,-97.55l83.52 -2.67c1.14,-40.57 10.3,-45.79 8.11,-80.13l6.43 -247.97c2.78,-1.94 7.3,-2.7 9.57,-3.45l46 -15.71c20.06,-14.94 13.99,35.88 15.6,-42.07 0.22,-65.47 0.4,-130.86 0.82,-196.33 0.86,-135.08 50.06,-144.61 18.67,-347.52 -22.48,-145.29 -15.15,-138.29 31.35,-142.78 -0.42,-125.05 -15.45,-70.73 48.23,-109.32 0.24,-65.75 -8.76,-209.49 6.4,-264.72l18 -54.48c21.62,-149.98 -31.4,-283.7 7.4,-434.7l26.8 -107.34c11.49,-34.99 5.21,22.46 15.29,-45.81 8.22,-55.65 -9.96,-121.05 20.27,-163.73 53.38,-75.37 -9.33,45.56 15.71,-19.06l1.65 -759.99 24.16 195.93c0,-43.94 -1.65,-90.82 -0.39,-134.35l11.86 -257.25c-0.72,-44.37 -10.21,-83.68 27.06,-98.77l35.25 -1370.45c0.31,-82.16 -12.46,-113.1 -12.14,-195.35 2.16,-553.4 10.87,-1096.75 8.67,-1662.12l-94.16 -2.99 -0.07 -86.26 -61.44 -24.49 0.08 -73.47 44.3 -16.95c20.88,-17.45 14.55,39.86 16.4,-43.85 -35.78,-15.12 3.69,4.56 -17.86,-18.79l-66.45 -42.87c-0.5,-82.96 31.26,-74.49 23.81,-145.44 -6.79,-64.64 -39.33,-57.79 -12.78,-136.68 29.16,-86.64 -24.25,-195.34 -24.25,-292.99l-61.23 -12.67c0,-151.13 -2.87,-307.66 -22.23,-455.65 -1.97,-15.04 -2.36,-28.92 -5.71,-43.03 -8.54,-35.95 -22.65,-57.5 -23,-112.93 -0.82,-130.41 -5.11,-85.58 -21.02,-111.93 -7.51,-12.44 -5.2,0.51 -11.85,-25.05 -4.39,-16.9 -2.26,-52.09 -2.26,-71.07l-47.31 -146.94c0.11,16.98 1.84,43.9 -0.44,59.84l-12.69 37.36c-10.03,-15.33 -4.38,0.07 -10.15,-26.93 -5.24,-24.54 -0.51,5.92 -3,-21.6 -1.29,-14.34 0.07,-45.51 0.24,-61.45 3.58,-319.66 -39.39,-260.5 -48.35,-306.38l-0.97 -170.77c-16.18,30.02 -10.76,53.02 -10.92,97.31 -19.38,-28.34 -38.43,-463.1 -38.41,-488.91l-60.56 -0.14c-1.63,-68.76 -7.28,-329.09 -32.65,-384.09l-27.3 -83.39c-4.92,-44.29 -2.75,-53.66 -10.4,-87.06 -26.17,-114.21 -3.51,-130.81 -75.35,-132.52l-0.27 -195.82c-45.06,-0.21 -32.37,5.74 -60,-11.81zm4050.07 -4060.72c672,-11.1 1218.38,45.41 1802.29,276.1 210.86,83.31 553.45,258.12 638.56,402.9 69.4,118.04 -11.85,287.35 -47.12,409.93l-699 2436.21c-100.59,347.36 -180.48,271.28 -774.73,271.17l-1567.4 3.73c-571.67,1.57 -570.09,40.52 -677.7,-371.62 -140.77,-539.18 -308.77,-1079.9 -463.63,-1618.37 -79.16,-275.26 -152.85,-543.96 -234.98,-818.03 -54.45,-181.72 -103.76,-271.93 31.25,-382.61 472.95,-387.74 1333.7,-598.55 1992.46,-609.42zm-3253.49 303.57c-19.59,-82.78 12.16,-31.48 56.37,-103.44l51.66 -68.82c70.72,109.08 99.7,286.98 169.97,404.13 38.39,64 41.86,143.24 76.14,220.09l174.21 398.97c17.86,62.24 6.03,58.78 36.46,110.91l106.37 243.32c24.13,81.11 39.5,90.05 56.47,143.76 16.27,51.48 19.1,53.61 35.67,99.35l176.54 398.87c35.42,78.16 23.78,101.17 81.01,213.17l74.5 182.36c30.8,123.61 80.84,208.66 110.7,306.3 19.2,62.78 4.87,42.38 35.09,99.32l64.5 143.15c1.26,2.44 3.36,5.28 4.64,7.69 43.79,82.39 16.54,163.76 123.49,211.04 4.34,114.08 -3.6,53.61 36.76,106.22 18.41,23.99 12.7,65.86 29.59,103.21 31.68,70 18.7,-7.83 33.24,96.71 5.37,38.58 8.98,56.3 47.98,73.47 -0.56,119.75 4.9,84.81 37.66,163.49 39.09,93.9 1.36,68.88 109.57,282.96 71.72,141.9 125.73,154.76 180.52,202.18 120.68,104.45 304.23,94.63 476.56,93.6l2179.67 -1.22c101.2,0 170.31,5.63 241.24,-32.77 33.03,-17.88 82.5,-14.8 118.75,-26.89l173.26 -128c41.96,-21.41 -4.67,23.89 49.73,-31.09 44.49,-44.98 110,-214.6 132.91,-279.52 139.37,-394.96 313.15,-786.01 461.33,-1181.52l287.78 -740.49c52.3,-126.82 17.59,-136.46 75.75,-193.05l532.73 -1367.01c1.18,-2.73 2.77,-5.76 3.93,-8.46l103.96 -276.39c20.74,-41.95 7.34,-18.24 22.79,-35.15 20.8,32.08 13.08,5.71 14.93,44.95 2.36,49.79 -158.65,438.14 -177.08,483.49l-591.21 1526.1c-179.96,480.79 -369.38,986.43 -570.33,1461.21l-159.91 456.28c-38.28,100.93 -5.14,-11.96 -4.88,107.84 78.15,-1.66 27.19,1.16 45.76,-14.61 48.35,-41.07 -48.32,-15.87 46.46,-34.08 -72.16,281.48 -318.44,446.49 -660.96,446.49l-2130.7 0.69c-270.7,-1.85 -625.32,27.26 -851.85,-127.6l-25.99 -22.89c-31.51,-33.28 -15.43,-21.4 -50.72,-49.31 -94.03,-74.35 -124.8,-223.6 -178.75,-332.76l-178.26 -432.72c-69.24,-195.38 -170.32,-379.94 -244.25,-575.52 -55.1,-145.78 -152.05,-441.18 -224.2,-563 -51.93,-87.67 -88.27,-224.87 -130.18,-321.58 -19.98,-46.1 -45.87,-88.16 -62.5,-131.25l-115.07 -304.15c-120.52,-260.04 -209.35,-535.86 -329.01,-798.05 -16.29,-35.7 -10.92,-26.67 -25.66,-71.71l-122 -294.46c-19.22,-44.47 -17.4,-26.79 -32.91,-76.22 -24.55,-78.27 -137.69,-237.78 -10.25,-207.61zm-602.26 7788.97l73.03 32.65c216.15,91.33 158.11,304.16 157.91,625.5l0.42 1579.65c0.09,131.82 6.58,242.94 -57.1,333.5 -48.55,69.05 -133.62,141.93 -241.66,148.19 -47.31,42.68 -384.12,18.28 -475.8,24.27 23.87,128.4 -42.24,638.55 -59.35,790.68 -86.34,767.67 -228.39,1480.34 -289.6,2257.07 -70.7,897.15 -112.31,1908.28 95.42,2790.16 24.15,102.53 72.48,235.43 84.22,332.75 23.01,27.26 10.07,10.69 21.29,49.47 119.07,411.56 411.67,1011.84 665.81,1357.12 61.7,83.82 154.77,223.83 226.28,299.52 76.19,80.64 146.56,178.89 240.67,273.59 91.9,92.49 163.31,178.81 263.1,263.89 52.41,44.68 75.77,82.2 130.66,126.31 24.69,19.84 49.19,42.65 73.84,61.33 17.06,12.93 18.38,12.21 34.64,26.46 16.09,14.1 16.96,17.32 31.27,29.52 831.88,708.94 1945.23,1100.72 3051.02,1128.44l-113.97 38.01c-35.37,9.11 -58.54,21.72 -87.86,33.27 -84.69,33.34 -97.26,45.16 -157.11,98.73 -87.81,78.59 -213.95,136.4 -228.23,288.24 -91.46,-0.95 -360.59,-51.58 -460.92,-77.37 -468.11,-120.33 -754.86,-176.25 -1209.17,-392.11 -335.97,-159.63 -897.96,-472.84 -1164.1,-710.2 -55.18,-49.22 -89.54,-70.77 -139.47,-116.79 -30,-27.65 -40.56,-25.89 -75.46,-59.56 -38.48,-37.12 -37.27,-34.49 -72.98,-62.16 -50.38,-39.02 -92.12,-91.37 -136.72,-132.23 -185.85,-170.3 -225.46,-234.19 -381.14,-414.64 -80.29,-93.06 -76.81,-122.63 -108.31,-145.21 -33.35,-23.9 -31.92,-29.92 -58.25,-68.85l-119.01 -149.2c-18.59,-24.08 -29,-44.37 -47.81,-74.07 -23.88,-37.71 -31.54,-40.89 -56.6,-79.32 -291.86,-447.39 -488.85,-840.16 -662.13,-1342.37 -62.38,-121.33 -150.07,-539.94 -178.14,-719.85 -124.34,-796.74 -66.87,-1782.65 9.88,-2569.89 88.35,-906.31 459.33,-2326.93 472.69,-3139.8l-45.44 1.35c-29.33,486.81 -93.91,956.28 -180.79,1414.89l-231.09 1163.05c-20.72,113.46 -27.83,60.93 -27.83,167.85 -26.88,-51.22 10.69,-48.5 -72.6,-48.4 -0.12,103.77 -30.85,68.23 -49.27,146.65 -31.82,-11.93 -22.35,26.35 -24.02,-48.98 -1.62,2.61 -3.36,6.39 -4.17,8.23 -32.01,72.94 -21.97,242.25 -32.37,261.16 -29.59,-24.03 -25.27,-37.92 -18.03,-94.33l112.08 -701.94c48.57,-260.05 101.21,-520.04 152.84,-790.87 53.34,-279.84 86.55,-540.57 129.07,-815.39 17.28,-111.7 65.06,-826.87 85.19,-849.93l6.37 -261.27 -15.19 97.29c-4.79,67.61 -37.12,88.23 -36.06,294.48 0.37,72.44 2.32,148.98 0.57,220.98 -1.89,77.51 -28.8,128.62 -35.56,197.1l-19.3 311.33c-9.18,34.71 -25.11,49.82 -30.21,92.25 -8.95,74.62 1.09,140.31 -11.08,209.34 -16.27,92.3 -38.4,78.26 -38.97,193.69 -0.73,145.14 -45.03,99.64 -48.76,281.86 -1.4,68.57 0.99,40.03 -20.72,89.49 -24.71,56.31 -17.38,121.44 -32.04,188.38 -6.6,30.14 -20.21,43.88 -28.39,81.81 -8.65,40.11 -2.56,69.23 -11.53,110.92 -14.79,68.74 -37.79,79.89 -41.95,178.47 -6.65,157.66 -32.86,73.95 -49.2,293.67 -5.73,77.16 -4.2,24.76 -26.23,83.97 -14.69,39.47 -14.05,150.47 -24.63,208.03 -11.69,63.61 -34.68,77.81 -35.47,184.94 -0.72,97.5 4.91,119.76 -19.86,200.55 -41.05,133.88 -12.62,283.48 -39.65,413.43 -46.41,223.09 -24.02,498.75 -42.97,630.53 -10.9,75.77 -20.12,130.48 -19.65,213.01 1.59,277.58 -18.88,639.59 17.61,888.87 17.77,121.38 4.75,329.03 28.41,424.67 8.55,34.54 20.52,60.05 24.73,85.47l54.45 291.01 9.66 -42.4c38.93,18.7 24.47,-20.92 31.38,61.85l0.59 -61.11c25.16,26.69 21.94,-40.57 21.78,49.54l14.81 -49.9 142.9 1.31c-3.08,109.22 -16.39,10.9 -23.79,89.7 40.47,18.88 42.49,-21.89 77.99,99.66 92.82,317.81 102.31,357.17 233.09,678.5 32.09,78.85 74.3,165.14 111.03,251.52 2.25,66.53 287.36,537.31 338.6,617.11 124.06,193.21 272.66,389.45 407.23,548.97 156.32,185.29 301.11,345.51 468.39,498.85 42.1,38.6 82.52,82.96 126.41,118.45l125.56 106.68c763.17,635.4 1802.1,1186.79 3001.89,1311.53l3.06 66.84c32.27,14.85 278.39,20.04 341.87,26.4 218.94,21.94 86.39,22.25 357.04,22.58 70.52,0.09 122.43,-1.24 175.2,-8.48 177.65,-24.38 334.74,-52.75 511.14,-52.75 -0.03,-104.52 -2.2,-79 316.32,-135.88 309.84,-55.33 765.65,-216.68 1043.7,-328.4 492.22,-197.77 1041.62,-550.07 1423.15,-866.23 164.37,-136.21 327.94,-280.46 473.89,-432.46l220.61 -244.92c77.69,-84.18 135.66,-160.27 203,-249.8 183.93,-244.51 312.71,-417.9 463.2,-689.13 19.39,-34.95 53.63,-112.66 78.5,-140.96l350.01 -813c2.42,-0.24 5.95,0.91 7.22,1.15 93.33,17.77 52.9,8.51 151.97,10.74 22.52,-37.84 -8.49,17.14 6.81,-22.83l7.58 -16.88c0.6,-4.91 2.7,-6.52 4.61,-9.42l36.74 -0.22 131.59 -607.89c12.22,-85.62 15.09,-149.58 14.95,-242.2 -0.14,-95.89 37.17,-251.12 37.14,-464.92 -0.03,-292.3 13.33,-1027.82 0.06,-1273.58 -7.3,-135.19 -37.84,-341.86 -36.75,-465.31 0.87,-99.31 -13.32,-145.6 -12.29,-244.86 1.36,-131.47 -36.73,-243.93 -36.73,-476.58 -35.82,-13.45 -27.06,18.35 -42.91,-107.37 -4.91,-38.93 -18.02,-80.04 -19.56,-125.05l-25.23 49.72c-0.85,-65.28 14.64,-49.65 -58.01,-49.72 -1.74,68.37 14.96,44.47 -37.97,46.63l-68.42 -442.31c-23.14,-144.36 -41.11,-283.4 -67.11,-438.2 -276.95,-1648.47 -221.79,-4029.49 14.74,-5693.1 41.22,-289.9 81.89,-603.34 132.54,-871.7 1.82,2.61 3.64,6.51 4.65,8.34l9.16 16.43c1.69,3.21 7.03,12.68 8.6,16.18l39.39 58.99c3.13,-127.37 64.29,25.56 72.73,-99.2 16.34,13.15 13.75,-20.75 12.99,24.99 1.67,-2.65 3.1,-10.32 3.5,-8.72l20.65 -199.71c-0.35,-76.66 14.39,-148.85 26.61,-218.3 24.05,-136.65 22.18,-303.95 22.2,-467.61 0.01,-88.34 17.7,-130.41 26.06,-218.84l23.18 -711.54c-0.53,-93.37 12.99,-136.07 12.49,-232.42 -1.18,-229.14 0.99,-735.91 -34.8,-944.98 -16.14,-94.25 -23.67,-104.11 -26.17,-218.74 -2.07,-95.04 -33.46,-152 -50.67,-316.69l-35.26 -87.07 -7.97 54.03 -27.05 -60.71c-21.99,-70.44 -31.48,-79.72 -31.71,-159.33l-146.94 -0.05 -0.54 -51.07 -72.94 15.98c-3.16,-53.68 -167.27,-420.79 -191.06,-471.38l-227.25 -441.19c-28.9,-74.78 -121.78,-212.09 -167.04,-279.57 -180.51,-269.1 -357.2,-520.12 -575.43,-759.13l-634.95 -626.2c-389.17,-298.61 -554.01,-438.97 -999.84,-690.15 -518.75,-292.27 -1243.88,-555.65 -1824.89,-633.04 -43.31,14.17 -51.2,-7.21 -9.26,28.79l57.18 19.86c40.4,3.46 44.77,-15.87 84.06,2.04 41.28,18.82 15.36,29.74 73.41,37.9l183.57 37.11c17.07,34.74 0.36,-26.69 -0.96,8.25 -0.36,9.62 -6.46,-4.82 0.96,13.46 145.41,-30.8 650.63,171.89 782.16,225.15 303.83,123.04 578.44,265.34 856.11,426.47l308.49 206.25c154.17,94.55 300.33,214.32 437.87,333.05l271.63 242.73c359.55,359.28 658.89,702.96 939.53,1117.33 140.64,207.65 253.83,431.65 366.65,660.59 598.55,1214.66 499.61,2257.87 440.62,3581.77 -20.58,461.9 -91.93,923.67 -156.77,1382.39 -171.57,1213.73 -232.4,2098.2 -235.74,3358.53 -1.76,665.58 35.75,1316.25 104.78,1961.25 42.43,396.46 354.81,2364.16 309.97,2777.7 -18.18,167.66 1.2,332.68 4.76,502.06 19.14,911.02 22.75,1420.48 -263.66,2292.54 -194.19,591.28 -478.3,1054.66 -810.05,1505.02l-146.23 184.09c-15.37,18.5 -3,2.84 -16.05,20.55l-710.35 710.61c-32.58,24.5 -39.37,38.23 -71.05,62.77 -172.32,133.45 -334.05,259.62 -516.36,377.8 -495.65,321.32 -1209.49,656.95 -1802.2,768.15 -94.71,17.77 -279.44,40.22 -354.43,64.82 -19.18,6.29 -28.57,7.15 -45.81,10.33l-22.66 -49.47c-16.61,-40.94 -16.93,-30.02 -40.11,-56.04 -52.4,-58.85 -110.51,-101.26 -170.42,-147.3 -33.02,-25.38 -56.98,-35.42 -82,-54.56 -36.83,-28.18 -9.5,-40.91 -44.75,-50.93l-73.75 -13.25c-69.1,-30.53 -32.48,-61.33 -19.41,-45.46 -39.63,9.61 -92.98,6.75 -129.2,-21.6 181,-1.19 485.41,-45.32 665.02,-84.54 806.95,-176.22 1389.16,-447.8 2031.16,-922.31 42.82,-31.65 57.56,-51.03 101.65,-82.46 18.79,-13.39 40.86,-28.24 56.34,-41.75 130.73,-113.96 323.9,-273.42 426.29,-394.32l344.71 -389.69c48.34,-59.08 108.64,-134.52 159.33,-207.3 103.63,-148.78 204.86,-295.73 293.48,-454.11 228.83,-408.96 424.46,-841.29 533.72,-1305.83 162.55,-691.07 153.01,-981.33 162.36,-1688.01 3.22,-243.52 -31.91,-483.34 -26.34,-718.36 13.41,-565.61 -170.18,-2031.61 -225,-2722.47 -18.48,-232.82 -22.56,-465.05 -41.94,-698.58 -38.07,-458.72 -16.77,-1672.12 -5.52,-2179.19 5.23,-235.64 27.4,-478.51 29.18,-708.98 3.45,-447.25 81.2,-923.06 110.5,-1364.09 14.88,-224 53.15,-449.36 66.12,-673.24 13.18,-227.4 39.53,-451.92 49.63,-682.73 20.9,-477.59 41.48,-948.25 36.64,-1432.38 -2.22,-222.35 -11.21,-476.97 -43,-687.4 -39.98,-264.59 -65.64,-356.28 -126.73,-611.32 -145.5,-607.34 -504.3,-1342.25 -913.81,-1851.11 -24.79,-30.8 -20.25,-33.43 -39.02,-59.47l-574.21 -626.33c-30.36,-26.63 -71.45,-62.9 -95.97,-88.09 -43.6,-44.81 -59.15,-50.87 -97.39,-85.99 -129.39,-118.86 -266.99,-219.55 -408.93,-325.47 -393.6,-293.72 -1013.89,-611.47 -1483.19,-733.4 -454,-117.95 -808.3,-179.75 -1308.96,-168.44 -420.44,9.5 -896.05,89.39 -1260.27,215.54 -225.54,78.11 -443.94,155.02 -654.36,266.25 -39.01,20.62 -74.61,38.4 -122.14,61.67 -225.54,110.45 -715.41,434.15 -887.27,594.14 -129.76,120.8 -262.34,222.23 -385.21,349.89 -72.12,74.92 -108.88,119.03 -177.58,189.52 -215.79,221.42 -398.03,470.32 -564.72,732.6 -319.66,502.96 -602.43,1070.66 -710.26,1679.81 -40.71,229.95 -82.24,401.26 -104.84,642.87 -64.43,688.89 -5.9,1429.67 52.15,2118.29 37.84,448.77 110.55,864.88 163.75,1301.79 24.39,200.31 174.8,1201.22 134.9,1311.7 78.05,-10.68 504.83,-27.55 572.78,0.7z"/>
   <path class="fil1" d="M188.09 4259.29c-74.5,58.86 -42.39,150.95 -85.43,257.38 -10.22,25.27 -18.64,76.28 -21.69,100.76 -11.74,94.15 4.53,110.04 -22.35,198.07 -25.61,83.86 -30.06,536.37 -29.62,656.12 0.54,147.14 -30.63,292.49 -7.11,447.87 38.02,251.19 -17.57,656.82 33.02,885.39 25.93,117.15 24.33,19.77 22.98,197.44 -2,261.64 50.68,293.36 49.19,416.14 -2.21,181.63 38.8,153.17 48.62,404.46 3.78,96.73 22.88,28.91 39.08,193.58 11.4,115.87 29.4,118.86 42,178.42 17.68,83.59 1.38,121.68 29.28,203.38 51.93,152.06 -8.59,53.96 53.02,216.38 11.64,30.69 5.83,16.51 9.18,52.05 20.31,215.92 32.06,115.13 49.99,305.12 9.65,102.19 37.37,140.01 44.37,188.29 10.39,71.64 -4.04,149.08 14.87,205.55 64.47,192.54 21.52,208.56 41.63,301.24 7.31,33.7 24.33,64.72 29.13,93.32 23.37,139.19 -12.09,196.42 38.86,414.22 15.86,67.79 12.97,136.38 12.9,219.76l12.41 330.22c3.71,65.13 10.64,77.93 36.51,98.37 -0.73,-45.63 -46.32,-531.94 -23.26,-565.35 104.84,-21.95 189.5,-110.47 305.27,-105.89 -16.86,365.78 77.03,1284.03 48.85,1521.49l34.78 -4.93 18.81 2.12c20.57,-30.23 2.64,-104.38 0.11,-186.11 -1.94,-62.85 -1.59,-131.4 -6.58,-193.24 -9.17,-113.55 -8.32,-256.67 -11.74,-382.37 -6.88,-253.02 -28.06,-506.67 -32.78,-759.21 17.22,-10.01 -8.83,-1.23 34.23,-14.87 77.42,-24.53 731.5,-34.49 783.37,-31.01 -67.94,-28.26 -494.73,-11.39 -572.78,-0.7 39.9,-110.48 -110.51,-1111.39 -134.9,-1311.7 -53.2,-436.91 -125.92,-853.01 -163.75,-1301.79 -58.05,-688.63 -116.59,-1429.4 -52.15,-2118.29 22.6,-241.61 64.13,-412.92 104.84,-642.87 107.83,-609.15 390.6,-1176.85 710.26,-1679.81 166.69,-262.27 348.93,-511.18 564.72,-732.6 68.7,-70.49 105.46,-114.6 177.58,-189.52 122.87,-127.66 255.45,-229.09 385.21,-349.89 171.86,-159.99 661.73,-483.69 887.27,-594.14 47.53,-23.27 83.13,-41.06 122.14,-61.67 210.42,-111.23 428.83,-188.13 654.36,-266.25 364.22,-126.15 839.83,-206.04 1260.27,-215.54 500.66,-11.31 854.96,50.49 1308.96,168.44 469.3,121.93 1089.59,439.68 1483.19,733.4 141.94,105.92 279.54,206.61 408.93,325.47 38.24,35.12 53.79,41.19 97.39,85.99 24.52,25.2 65.61,61.46 95.97,88.09l574.21 626.33c18.77,26.04 14.24,28.67 39.02,59.47 409.51,508.86 768.31,1243.77 913.81,1851.11 61.1,255.03 86.75,346.73 126.73,611.32 31.8,210.43 40.78,465.05 43,687.4 4.83,484.13 -15.75,954.79 -36.64,1432.38 -10.1,230.8 -36.45,455.32 -49.63,682.73 -12.97,223.88 -51.24,449.24 -66.12,673.24 -29.3,441.03 -107.05,916.84 -110.5,1364.09 -1.77,230.47 -23.95,473.34 -29.18,708.98 -11.25,507.07 -32.55,1720.47 5.52,2179.19 19.38,233.53 23.46,465.76 41.94,698.58 54.82,690.85 238.41,2156.86 225,2722.47 -5.57,235.02 29.56,474.84 26.34,718.36 -9.35,706.68 0.19,996.93 -162.36,1688.01 -109.26,464.54 -304.89,896.87 -533.72,1305.83 -88.62,158.38 -189.85,305.34 -293.48,454.11 -50.69,72.78 -111,148.21 -159.33,207.3l-344.71 389.69c-102.39,120.9 -295.56,280.36 -426.29,394.32 -15.49,13.5 -37.55,28.36 -56.34,41.75 -44.09,31.42 -58.83,50.8 -101.65,82.46 -642,474.51 -1224.21,746.09 -2031.16,922.31 -179.6,39.22 -484.02,83.35 -665.02,84.54 36.21,28.36 89.57,31.21 129.2,21.6 -13.07,-15.87 -49.69,14.94 19.41,45.46l73.75 13.25c35.25,10.02 7.91,22.75 44.75,50.93 25.02,19.14 48.98,29.17 82,54.56 59.9,46.05 118.01,88.45 170.42,147.3 23.17,26.02 23.49,15.1 40.11,56.04l22.66 49.47c17.24,-3.19 26.63,-4.04 45.81,-10.33 74.99,-24.6 259.72,-47.05 354.43,-64.82 592.71,-111.2 1306.55,-446.83 1802.2,-768.15 182.31,-118.18 344.04,-244.35 516.36,-377.8 31.68,-24.54 38.47,-38.27 71.05,-62.77l710.35 -710.61c13.05,-17.71 0.69,-2.05 16.05,-20.55l146.23 -184.09c331.75,-450.36 615.86,-913.75 810.05,-1505.02 286.41,-872.06 282.8,-1381.51 263.66,-2292.54 -3.56,-169.38 -22.94,-334.4 -4.76,-502.06 44.84,-413.55 -267.55,-2381.25 -309.97,-2777.7 -69.03,-645 -106.54,-1295.66 -104.78,-1961.25 3.34,-1260.33 64.17,-2144.8 235.74,-3358.53 64.84,-458.72 136.19,-920.48 156.77,-1382.39 58.98,-1323.9 157.93,-2367.11 -440.62,-3581.77 -112.82,-228.94 -226.01,-452.94 -366.65,-660.59 -280.64,-414.37 -579.98,-758.05 -939.53,-1117.33l-271.63 -242.73c-137.54,-118.73 -283.7,-238.5 -437.87,-333.05l-308.49 -206.25c-277.67,-161.13 -552.28,-303.42 -856.11,-426.47 -131.52,-53.26 -636.75,-255.95 -782.16,-225.15 -7.42,-18.28 -1.33,-3.85 -0.96,-13.46 1.32,-34.95 18.04,26.49 0.96,-8.25l-183.57 -37.11c-58.05,-8.16 -32.13,-19.08 -73.41,-37.9 -39.29,-17.91 -43.66,1.42 -84.06,-2.04l-57.18 -19.86c-41.94,-35.99 -34.04,-14.62 9.26,-28.79 -70.08,-28.65 -64.5,-23.25 -134.47,-29.05 -101.81,-8.44 -343.42,-41.41 -416.09,-36.86l-576.16 13.56c-93.18,-4.26 -166.33,24.07 -264.14,35.34 -41.03,4.73 -87.43,12 -135.22,21.24l-253.15 55.29c-343.97,82.6 -493.6,130.67 -810.2,240.96l-321.4 132.27c-44.54,15.59 -60.45,29.42 -99.35,47.88l-769.19 441.53c-2.95,2 -11.43,7.97 -14.41,10.05 -2.18,1.52 -5.02,3.71 -7.22,5.24 -2.21,1.54 -5.07,3.69 -7.31,5.23l-15.04 10.2c-2.33,1.53 -5.36,3.4 -7.71,4.9l-329.53 248.35c-87.1,60.3 -34.87,37.91 -79.66,67.08 -73.14,47.63 -207,157.48 -266.04,223.16 -20.54,22.85 -15.97,22.27 -31.17,42.41l-157.98 148.35c-101.57,106.62 -132.92,120.5 -215.71,235.69l-107.28 115.32c-75.58,74 -60.11,86.75 -99.33,133.44l-323.01 436.34c-125.34,176.94 -225.55,378.19 -330.32,565.88l-105.38 201.83c-17.74,38.85 -24.53,66.33 -40.52,106.2 -13.19,32.89 -18.1,67.26 -51.23,82.93l0.5 -37.6 -96.62 -0.8c-5.49,-78.23 16.34,-38.54 -48.98,-48.05 -16.65,23.63 -1.37,-6.31 -15.7,36.21 -7.88,23.37 -2.48,15.42 -7.8,32.34 -21.32,67.85 -51.49,2.12 -80.75,167.52 -3.88,21.93 -21.58,24.11 -36.08,69.7 -24.62,77.4 -63.23,162.11 -77.95,242.51 -1.86,10.18 -4.56,39.26 -5.74,51.77 -2.12,22.51 -35.87,90.84 -20.94,109.22l0 -73.53z"/>
   <path class="fil2" d="M5664.58 5581.79c-16.31,-169.99 -5.78,-422.94 -4.56,-600.42 0.72,-104.85 23.24,-174.4 123.97,-181.61l894.2 5.36c102.22,-0.2 203.97,-1.63 306.15,-3.18 104.16,-1.57 186.67,-1.28 208.13,107.62 23.06,117.02 15.08,466.48 9.84,599 -9.48,240.24 -134.11,174.01 -438.4,176.69l-906.43 4.33c-110.12,-2.84 -182.28,2.95 -192.9,-107.8zm-1218.42 -2228.65c34.75,-28.63 26.88,-0.41 48.92,-70.57 51.42,-163.69 71.84,-126.72 143.49,-158.88 72.72,-32.64 70.09,-46.88 140.04,-58.21 45.04,-7.3 63.37,-12.13 111.41,-13.1 150.21,-3.04 128.16,43.79 147.42,81l95.97 13.84c17.06,123.55 47.29,50.67 77.21,145.78 28.12,89.38 52.23,213.53 31.8,314.91 -8.56,42.5 -24.83,65.4 -45.93,87.93 -10.09,10.77 -8.07,1.08 -17.97,19.34 -11.17,20.61 -7.59,36.21 -8.9,63.22 -154.2,3.07 -94.61,18.56 -141.65,42.74 -39.72,20.42 -122.03,17.2 -174.33,17.83 -92.65,1.1 -106.8,7.49 -166.75,-23.2 -45.66,-23.37 -85.3,-31.85 -152.37,-33.35 -2.21,-55.31 -16.48,-89.88 -20.9,-135.4l-56.8 -24.49c-1.95,-94.81 -13.57,-160.11 -10.66,-269.4zm2060.6 -254.51c65.1,-2.08 46.45,2.87 93.64,-19.65 97.67,-46.6 107.7,-24.92 183.34,-39.45 84.08,-16.15 28.2,-17.03 62.87,-31.95 42.59,-18.32 29.33,-1.33 38.63,1.29l126.35 24.25c138.19,19.42 16.21,44 161.65,44.72 14.78,92.73 -6.3,45.11 52.01,79.38l3.76 73.46 45.83 24.49c1.08,134.09 37.81,84.85 15.82,186.53 -22.23,102.8 -12.91,163.58 -24.78,195.23l-7.87 15.61c-1.21,2.32 -3.26,5.23 -4.56,7.52l-27.71 46.13c-30.81,39.66 -18.77,6.73 -62.37,45.79 -29.32,26.26 -28.15,45.57 -45.66,64.09 -15.01,15.88 -5.42,2.2 -20.58,16.99l-99.5 59.34c-79.26,33.79 -192.68,24.99 -279.23,15.55 -163.81,-17.86 -122.33,-8.35 -219.71,-105.5 -33.39,-33.31 -3.56,-23.16 -47.89,-24.66l-5.2 -81.81 -45.92 -24.49c-6.49,-191.73 -0.96,-335.09 10.71,-512.79 100.24,-15.18 61.24,-7.18 96.38,-60.1zm-939.81 37.32c51.07,-1.44 54.64,3.79 91.64,-18.27 110.5,-65.87 309.61,-26.82 439.45,-16.96 0.75,60.86 -25.78,44.06 37.64,121.23 1.63,1.99 4.12,4.58 5.75,6.57l35.66 49.92c57.74,92.37 63.71,234.82 25.58,322.97 -1.16,2.69 -2.73,5.76 -3.87,8.49 -20.86,50.27 -40.3,150.79 -133.45,170.05 -117.8,24.36 -264.78,64.99 -380.58,27.08 -93.92,-30.74 -84.81,-9.39 -115.14,-67.08l-48.93 -73.58c-53.89,-90.08 -28.71,-311.21 -18.48,-411.2 43.94,-31.63 58.48,-7.78 64.72,-119.22zm572.45 -198.19c-33.71,-38.88 -19.28,-201.78 -16.25,-251.12 91.62,0.39 157.38,-20.12 167.21,78.86 9.01,90.69 -33.06,120.38 -114.22,115.83l-18.81 38.08c-13.87,22.24 10.28,2.75 -17.93,18.34zm-246.65 -135.83c-1.9,-63.7 10.81,-120.6 87.39,-120.35 120.65,0.41 93.47,96.98 81.79,179.17 -55.33,26.34 -93.46,50.17 -151.67,0.43l-17.5 -59.25zm496.17 -112.17c118.44,-48.62 173.93,149.36 59.81,189.28 -117.96,41.28 -173.72,-142.52 -59.81,-189.28zm-1380.93 161.41c-28.82,-48.66 -78.55,-101.59 -10.7,-150.67 55.46,-40.12 115.93,-6.55 135.24,43.36 68.59,177.29 -136.78,282.16 -160.89,127.14 55.7,17.47 132.58,82.32 125.21,-27.9l-88.86 8.07zm421.18 91.12c-33.9,-48.78 -19.13,-225.77 -9.09,-257.62 87.75,11.83 92.47,141.55 167.63,179.12 -0.55,-55.52 -18.91,-140.68 12.89,-180.95 36.32,32 17.36,239.64 12.25,256.51 -40.42,-5.09 -37.54,-9.75 -55.21,-33.35 -50.46,-67.4 -60.36,-115.02 -109.83,-145.47 1.69,104.18 20.29,151.7 -18.64,181.77zm1151.06 -2.61c-25.23,-33.28 -34.25,-224.53 0,-253.52 34.04,32.31 18.3,121.71 19.42,172.77 48.11,-36.88 27.23,-148.93 90.78,-177.85 30.66,29.13 63.96,150.05 88.16,191.92 10.58,-45.19 -32.46,-166.61 22.05,-189.44 19.89,31.46 18.89,191.2 8,238 -0.61,2.61 -3.27,11.44 -3.78,9.78 -0.5,-1.64 -2.53,6.45 -4.22,9.46 -65.66,-4.57 -55.5,-29.48 -74.07,-89.25 -5.01,-16.12 -12.39,-41.21 -18.03,-55.33l-30.35 -44.14c-54.13,120.32 -24.31,172.85 -97.96,187.59zm-1226.37 -79.33c-22.63,123.09 -139.32,85.56 -154.8,35.39 -11.27,-36.53 -1.28,-22.88 0.15,-39.55 1.03,-12.06 4.55,-8.19 2.95,-26.04 -0.08,-0.9 -86.21,-193.14 137.98,-132.25l7.73 72.52c-54.56,-13.46 -21.37,-64.94 -121.32,-46.71l-0.67 66.44c21.46,20.91 34.18,6.21 60.74,36.43 -26.3,40.88 -45.89,4.46 -52.97,62.83 79.99,43.26 49.81,-8.48 120.2,-29.05zm281.88 -849.48c-658.76,10.88 -1519.51,221.68 -1992.46,609.42 -135.01,110.68 -85.7,200.88 -31.25,382.61 82.13,274.07 155.82,542.76 234.98,818.03 154.85,538.47 322.86,1079.19 463.63,1618.37 107.6,412.14 106.03,373.19 677.7,371.62l1567.4 -3.73c594.26,0.1 674.14,76.18 774.73,-271.17l699 -2436.21c35.27,-122.58 116.52,-291.89 47.12,-409.93 -85.12,-144.78 -427.7,-319.59 -638.56,-402.9 -583.91,-230.7 -1130.3,-287.2 -1802.29,-276.1z"/>
   <path class="fil3" d="M1512.19 5728.73c110.1,83.39 72.5,207.27 73.47,342.87 27.63,17.55 14.94,11.6 60,11.81l0.27 195.82c71.84,1.7 49.18,18.31 75.35,132.52 7.65,33.4 5.48,42.77 10.4,87.06l27.3 83.39c25.37,55 31.01,315.33 32.65,384.09l60.56 0.14c-0.02,25.81 19.03,460.57 38.41,488.91 0.16,-44.28 -5.27,-67.29 10.92,-97.31l0.97 170.77c8.96,45.88 51.93,-13.28 48.35,306.38 -0.18,15.94 -1.54,47.1 -0.24,61.45 2.48,27.52 -2.25,-2.94 3,21.6 5.77,27 0.12,11.6 10.15,26.93l12.69 -37.36c2.28,-15.94 0.56,-42.85 0.44,-59.84l47.31 146.94c0,18.99 -2.13,54.18 2.26,71.07 6.65,25.56 4.34,12.61 11.85,25.05 15.91,26.35 20.2,-18.48 21.02,111.93 0.35,55.42 14.46,76.98 23,112.93 3.35,14.12 3.74,27.99 5.71,43.03 19.36,147.98 22.23,304.52 22.23,455.65l61.23 12.67c0,97.64 53.4,206.35 24.25,292.99 -26.55,78.89 5.99,72.04 12.78,136.68 7.45,70.95 -24.3,62.47 -23.81,145.44l66.45 42.87c21.55,23.35 -17.92,3.67 17.86,18.79 -1.85,83.71 4.48,26.4 -16.4,43.85l-44.3 16.95 -0.08 73.47 61.44 24.49 0.07 86.26 94.16 2.99c2.2,565.37 -6.51,1108.72 -8.67,1662.12 -0.32,82.26 12.45,113.19 12.14,195.35l-35.25 1370.45c-37.27,15.09 -27.78,54.4 -27.06,98.77l-11.86 257.25c-1.26,43.52 0.39,90.4 0.39,134.35l-24.16 -195.93 -1.65 759.99c-25.04,64.62 37.67,-56.31 -15.71,19.06 -30.23,42.68 -12.05,108.08 -20.27,163.73 -10.08,68.27 -3.8,10.82 -15.29,45.81l-26.8 107.34c-38.79,150.99 14.22,284.72 -7.4,434.7l-18 54.48c-15.16,55.23 -6.16,198.97 -6.4,264.72 -63.69,38.59 -48.65,-15.74 -48.23,109.32 -46.5,4.5 -53.83,-2.51 -31.35,142.78 31.39,202.91 -17.81,212.44 -18.67,347.52 -0.42,65.47 -0.6,130.86 -0.82,196.33 -1.61,77.96 4.46,27.13 -15.6,42.07l-46 15.71c-2.27,0.75 -6.79,1.51 -9.57,3.45l-6.43 247.97c2.19,34.34 -6.96,39.56 -8.11,80.13l-83.52 2.67c-1.01,54.93 -13.66,55.89 0.34,97.55l7.35 17.69c6.72,24.12 6.31,27.31 3.86,53.79l-47.96 213.03c-33.72,89.92 3.56,32.35 -1.61,90.66 -4.46,50.3 -34.04,107.73 -48.21,157.31l-217.17 563.95c-1.21,2.56 -2.77,5.71 -3.99,8.29 -1.22,2.6 -2.75,5.75 -3.96,8.37l-39.12 83.4c-14.3,33.32 -15.98,53.52 -28.48,82.39l-65.75 143.79c-77.49,229.29 -257.12,558.83 -370.24,777.96l-16.61 51.49c5.04,37.94 -9.23,1.79 11.75,25.03 69.76,-33.03 196.05,-354.45 242.74,-444.69l132.79 -295.35c107.2,-261.24 233.57,-520.79 327.81,-787.7 99.07,-280.6 207.98,-539.67 299.88,-814.5 97.86,-292.63 200.25,-577.03 269.75,-845.31l234.41 -882.01c76.09,-302.21 130.04,-592.31 192.82,-922.64 71.25,-374.85 173.8,-1120.9 185.68,-1496.13 5.45,-172.19 24.53,-355.82 24.37,-539.76 -0.31,-362.26 1.06,-748.08 -34.21,-1086.35 -26.94,-258.35 -45.36,-492.17 -88.23,-741.83 -12.44,-72.45 -29.22,-167.29 -38.58,-242.17 -88.25,-706.58 -444.76,-1937.83 -713.82,-2635.26 -29.54,-76.57 -49.12,-126.19 -73.49,-194.01 -202.22,-562.7 -506.96,-1208.07 -780.73,-1746.42 -30.55,-60.08 -69.72,-117.4 -103,-179.84 -15.4,-28.89 -33.85,-64.61 -45.22,-89.06 -19.46,-41.85 -30.88,-73.38 -63.18,-93.79 -4.04,88.27 77.89,211.42 115.38,284.04l299.11 606.17c21.57,52.33 2.52,30.33 13.33,66.11 18.19,60.18 8.37,-6.5 33.39,61.26 8.65,23.44 11.4,61.64 11.37,101.15z"/>
   <path class="fil3" d="M10655.67 18574.05c-9.16,-66.76 -18.18,-80.83 -36.63,-127.36 -14.75,-37.19 -33.81,-70.9 -35.68,-109.53 -4.4,-91.04 -15.49,-44.71 -42.34,-112.21 -19.48,-48.97 -31.76,-114.77 -62.3,-163.6 -17.43,-27.87 -2.66,23.45 -16.14,-39.21 -11.07,-51.48 11.9,-15.58 -18.41,-55.25 -32.29,-42.25 -20.42,12.67 -34.57,-42.37 -7.09,-27.6 16.24,-1.61 -8.21,-48.85 -50.08,-96.74 -38.54,36.95 -38.89,-182.47 -71.63,-0.34 -89.63,-23.48 -96.12,-98.14 -4.83,-55.66 -1.89,-136.46 -2.19,-194.65 -83.41,-2.12 -28.5,3.88 -58.46,-26.59 -1.05,-1.07 -2.97,-4.4 -3.89,-5.32l-6.71 -6.76c-1.45,-0.89 -5.7,-1.33 -6.97,-1.51l-7.65 1.57c-15.64,-138.66 18.76,-157.06 -85.11,-160.61 -0.17,-123.62 -50.99,-50.56 -25.92,-170.02 -25.89,-63.65 9.8,18.33 -30.76,-29.4l-41.07 -82.42c-1.12,-2.48 -3.09,-5.48 -4.03,-8 -19.2,-51.58 3.07,-34.58 -6.22,-80.12l-14.88 -167.96 -48.55 0.09c-0.09,-127.91 -51.18,-96.73 -50.08,-281.19l-46.79 -24.49 -15.04 -160.16c-20.95,-89.76 10.58,-81.88 12.54,-170.68 -10.32,-0.01 -25.18,1.11 -34.99,-1.17 -21.88,-5.09 -13.82,-3.78 -25.17,-10.85l-0.4 -184.11 -36.01 0c-0.05,-85.61 -0.93,-171.15 -1.08,-256.76 -0.36,-203.14 -38.78,-161.54 -47.79,-208.13l-1.04 -159.19 -46.45 -24.49 -1.53 -171.43c-2.26,-1.8 -5.86,-8.21 -7.32,-5.52l-40.17 -8.17c0.82,-115.79 -13.13,-191.18 -14.74,-292.42 -1.11,-69.99 7.14,-83.33 11.8,-135.39 4.22,-47.09 0.73,-110.48 0.73,-159.3l-37.63 0 -11.94 -587.43 -48.08 0c0,-125.76 -24.51,-203.68 -24.17,-342.42 0.74,-305.13 -25.57,-221.17 -25.57,-343.32l-47.24 0 -2.02 -734.72 -47.61 0c0,-318.29 -12.49,-615.13 -12.58,-942.47 -0.04,-162.6 11.93,-294.55 11.91,-465.32 -0.01,-77.25 1.99,-156.2 0.43,-233.19 -1.19,-58.97 -33.82,-111.59 3.25,-154.64 16.51,-19.17 -33.38,-14.14 45.31,-15.84l0.72 -490.03 47.5 -0.09c0.76,-120.07 -0.83,-259.48 25.98,-366.91 26.12,-104.64 24.42,-235.17 24.42,-367.51 58.67,-1.39 40.57,-7.76 54.27,-30.72 40,-67.01 19.59,-280.08 19.64,-361.01l83.3 -1.53c-0,-85.61 0.78,-170.81 1.24,-256.17 0.21,-40.18 -3.23,-97.39 -0.15,-135.2 3.35,-41.08 13.11,-44.24 24.32,-73.44 16.91,-44.07 10.89,-118.21 21.39,-174.05l15.99 -94.83c27.56,-70.72 24.9,-131.48 24.9,-207.78 61.2,-7.04 26.09,17.72 38.36,-47.13l22.82 -259.43c9,-43.62 20.07,-0.25 39.65,-57.66 27.63,-81.04 -19.73,-244.01 25.83,-305.06 13.6,-18.23 4.12,-0.66 15.27,-21.11 33.02,-60.6 6.35,-139.75 19.43,-201.39 7.85,-37 21.93,-66.05 22.06,-124.58 0.1,-48.52 0.59,-96.98 0.59,-145.52 19.06,32.51 5.4,86.15 16.29,127.86 0.71,2.73 2.76,6.88 3.43,9.01 0.65,2.09 2.11,5.99 3.79,8.65 0,-73.98 -9.94,-184.3 6.57,-251.61 19.76,-80.61 32.55,-133.26 32.49,-226.38 2.41,-1.55 6.76,-5.61 7.96,-3.23 1.71,3.39 11.17,-4.42 16.45,-6.56l34.83 -14.71c0.66,-91.3 14.92,-142.78 25.7,-231.23 12.32,-100.98 21.49,30.94 38.32,-234.1 42.21,-9.98 -22.65,14.36 14.32,11.28 39.75,-3.31 74.42,-164.16 72.24,-200.99 -4.81,-81.36 43.08,-109.65 67.5,-179.84 32.26,-92.74 109.07,-176.33 112.64,-279.36 59.45,-25.5 -10.14,15.05 47.45,-12.57 -10.92,-54.29 -9.88,-50.74 8.98,-101.54 52.7,-141.98 128.63,-286.08 193.17,-423.93 21.81,-46.58 26.98,-44.66 31.45,-111.01 -65.93,37.29 -84.56,113 -117.89,179.58l-355.46 734.99c-125.16,245.01 -226.83,504.36 -329.48,761.28 -28.1,70.32 -51.69,129.51 -76.97,192.4 -53.81,133.83 -100.83,264.31 -150.6,400.77 -95.88,262.88 -195.81,551.41 -274.74,827.54l-174.93 633.27c-86.69,336.17 -199.11,812.19 -242.67,1144.38 -21.17,161.44 -48.11,312.37 -67.63,467.74 -64.31,511.63 -102.81,1040.4 -76.73,1576.62 8.39,172.41 10.01,342.15 19.08,514.33 52.41,994.51 321.28,2260.76 604.14,3233.91 172.59,593.79 346.36,1090.99 559.24,1635.98 172.73,442.2 373.14,906.37 577.98,1333.21 15.57,32.44 25.54,56.57 41.37,92.28 3.41,7.69 20.76,50.07 21.73,51.65 43.94,71.94 -8.24,21.51 53.63,44.94z"/>
   <path class="fil4" d="M526.8 19267.68c173.28,502.21 370.27,894.98 662.13,1342.37 25.06,38.43 32.72,41.61 56.6,79.32 18.81,29.7 29.22,49.99 47.81,74.07l119.01 149.2c26.33,38.93 24.9,44.94 58.25,68.85 31.5,22.57 28.02,52.14 108.31,145.21 155.68,180.44 195.29,244.34 381.14,414.64 44.59,40.86 86.34,93.2 136.72,132.23 35.71,27.66 34.5,25.04 72.98,62.16 34.91,33.67 45.46,31.91 75.46,59.56 49.93,46.02 84.29,67.57 139.47,116.79 266.14,237.36 828.13,550.58 1164.1,710.2 454.31,215.85 741.07,271.78 1209.17,392.11 100.33,25.79 369.45,76.42 460.92,77.37 14.28,-151.84 140.42,-209.65 228.23,-288.24 59.85,-53.57 72.41,-65.39 157.11,-98.73 29.32,-11.54 52.49,-24.16 87.86,-33.27l113.97 -38.01c-1105.79,-27.72 -2219.14,-419.5 -3051.02,-1128.44 -14.31,-12.19 -15.18,-15.42 -31.27,-29.52 -16.26,-14.25 -17.57,-13.52 -34.64,-26.46 -24.66,-18.68 -49.15,-41.49 -73.84,-61.33 -54.89,-44.11 -78.26,-81.63 -130.66,-126.31 -99.79,-85.08 -171.2,-171.4 -263.1,-263.89 -94.1,-94.7 -164.47,-192.94 -240.67,-273.59 -71.51,-75.69 -164.59,-215.7 -226.28,-299.52 -254.13,-345.28 -546.74,-945.56 -665.81,-1357.12 -11.22,-38.78 1.72,-22.21 -21.29,-49.47l-0.48 41.1 -540.18 208.73z"/>
   <path class="fil5" d="M831.23 12838.14c-13.36,812.86 -384.33,2233.48 -472.69,3139.8 -76.75,787.24 -134.22,1773.15 -9.88,2569.89 28.07,179.9 115.76,598.52 178.14,719.85l540.18 -208.73 0.48 -41.1c-11.73,-97.32 -60.07,-230.23 -84.22,-332.75 -207.73,-881.88 -166.12,-1893.01 -95.42,-2790.16 61.21,-776.73 203.26,-1489.4 289.6,-2257.07 17.11,-152.12 83.21,-662.28 59.35,-790.68 91.68,-5.99 428.48,18.41 475.8,-24.27l-639.07 2.26 -3.6 -218.81 -40.52 -5.55c-47.31,-4.02 -26.9,27.45 -20.86,217.98 -42.11,39.2 -85.43,18.77 -177.29,19.34z"/>
   <path class="fil6" d="M1013.37 11670.24l-18.81 -2.12 -66.56 29.77c-199.34,72.85 -354.6,355.13 -228.64,635.37 93.32,207.61 305.76,249.16 330.03,267.56l40.52 5.55 3.6 218.81 639.07 -2.26c108.04,-6.26 193.12,-79.14 241.66,-148.19 63.68,-90.57 57.19,-201.69 57.1,-333.5l-0.42 -1579.65c0.2,-321.33 58.25,-534.17 -157.91,-625.5 -125.7,-7.54 -289.29,-5.2 -416,1.47 -43.87,2.31 -317.62,9.21 -349.44,48.5 -27.2,61.72 -15.48,1288.99 -11.46,1464.56l-62.75 19.64z"/>
   <path class="fil7" d="M188.09 4259.29l0 73.53c-14.93,-18.38 18.82,-86.71 20.94,-109.22 1.18,-12.51 3.88,-41.59 5.74,-51.77 14.73,-80.4 53.34,-165.11 77.95,-242.51 14.5,-45.59 32.2,-47.77 36.08,-69.7 29.26,-165.4 59.43,-99.67 80.75,-167.52 5.32,-16.91 -0.08,-8.97 7.8,-32.34 14.33,-42.52 -0.95,-12.59 15.7,-36.21 65.32,9.51 43.49,-30.18 48.98,48.05l96.62 0.8 -0.5 37.6c33.12,-15.68 38.03,-50.05 51.23,-82.93 15.99,-39.87 22.77,-67.35 40.52,-106.2l105.38 -201.83c104.77,-187.69 204.99,-388.94 330.32,-565.88l323.01 -436.34c39.22,-46.68 23.76,-59.43 99.33,-133.44l107.28 -115.32c82.78,-115.18 114.14,-129.06 215.71,-235.69l157.98 -148.35c15.2,-20.14 10.64,-19.56 31.17,-42.41 59.04,-65.68 192.9,-175.52 266.04,-223.16 44.78,-29.16 -7.45,-6.78 79.66,-67.08l329.53 -248.35c2.35,-1.51 5.38,-3.38 7.71,-4.9l15.04 -10.2c2.24,-1.54 5.1,-3.69 7.31,-5.23 2.19,-1.53 5.04,-3.72 7.22,-5.24 2.98,-2.08 11.46,-8.05 14.41,-10.05l769.19 -441.53c38.9,-18.47 54.81,-32.29 99.35,-47.88l321.4 -132.27c316.59,-110.29 466.23,-158.36 810.2,-240.96l253.15 -55.29c47.79,-9.24 94.2,-16.52 135.22,-21.24 97.81,-11.28 170.97,-39.61 264.14,-35.34l576.16 -13.56c72.67,-4.54 314.28,28.43 416.09,36.86 69.97,5.8 64.39,0.39 134.47,29.05 581.01,77.38 1306.14,340.77 1824.89,633.04 445.83,251.18 610.67,391.54 999.84,690.15l634.95 626.2c218.23,239.01 394.92,490.03 575.43,759.13 45.26,67.48 138.14,204.8 167.04,279.57 108.68,-32.39 33.14,-82.71 77.95,-198.66 -15.51,78.31 20.55,-47.97 21.8,68.92l90.78 10.73 -11.68 -40.79c7.99,-35.95 7.14,-10.42 -8.2,-40.38l-243.61 -393.6c-24.69,-32.31 -39.96,-52.48 -64.03,-82.91l-54.15 -80.55c-72.28,-91.92 -136.25,-188.16 -216.26,-273.55l-376.78 -406.92c-52.01,-47.15 -91.48,-95.94 -142.7,-138.94l-453.87 -378.81c-1.9,-1.66 -4.41,-4.27 -6.31,-5.93l-255.25 -173.34c-2.12,-1.49 -5,-3.65 -7.06,-5.18 -2.05,-1.53 -4.8,-3.87 -6.81,-5.44l-149.77 -95.13c-9.4,-7.57 1.42,-1.46 -20.3,-16.43 -72.36,-49.85 -604.74,-338.19 -715.8,-374.03 -75.48,-24.36 -120.19,-61.41 -198.96,-82.69l-104.79 -42.15c-13.66,-4.73 -33.78,-7.84 -48.69,-12.54l-107.71 -39.24c-92.42,-29.33 -165.01,-68.78 -265.07,-90.04l-226.07 -55.58c-42.69,-8.76 -52.48,-20.14 -104.46,-30.23 -62.34,-12.1 -70.66,-12.86 -118.71,-28.24 -67.16,-21.5 -402.29,-63.92 -490.47,-72.82l-243.5 -38.14c-188.43,-14.19 -895.82,-19.89 -1057.28,19.19 -60.75,14.7 -186.11,27.9 -252.05,29.59 -199.8,5.13 -154.45,30.62 -245.25,36.39 -52.81,3.36 -74.33,3.62 -121.11,13.59l-167.93 40.24c-1.12,0.23 -29,7.35 -29.3,7.44l-361.16 104.16c-48.13,20.93 -62.91,11.64 -107.83,26.86l-708.63 283.25c-12.51,6.22 -22.04,11.95 -40.2,21.03 -12.6,6.3 -12.62,5.53 -24.53,12.2l-72.46 37.75c-33.35,12.23 -21.3,4.93 -51.77,21.7 -27.83,15.32 -57.1,37.96 -82.02,52.68l-458.65 276.07c-35.99,21.01 -58.03,25.52 -90.38,56.57 -57.51,55.19 -127.86,81.22 -183.65,134.73 -53.74,51.55 -221.02,167.2 -317.89,257.64l-106.27 89.66c-15.85,15.12 -23.14,21.44 -38.2,35.27l-69.96 64.73c-15.1,14.02 -24.25,21.95 -38.9,34.58l-100.05 108.12c-11.56,13.05 -5.47,5.71 -17.76,18.98l-353.33 393.64c-19.34,23.22 -43.4,52.21 -59.94,74.76 -23.73,32.36 -32.44,55.41 -59.69,87.26l-118.44 163.2c-85.2,103.82 -115.68,189.53 -170.83,257.76l-51.15 83.55c-9.6,17.29 -10.03,16.92 -21.36,39.86l-383.43 816.62c-9.92,21.29 -15.04,23.86 -23.55,49.93l-70.69 210.95c-19.08,40.48 -25.8,124.39 -44.82,163.41 -22.97,47.12 -36,56.6 -9.5,125.21z"/>
   <path class="fil8" d="M6596.17 11904.53c-65.83,4.63 -60.42,-14.1 -60.16,-76.77 0.19,-46.49 -5.59,-101.85 7.21,-148.03l49.25 -2.04c22.4,54.25 14.94,164.31 3.7,226.84zm-193.36 -23.59c-48.51,30.26 -231,31.66 -249.41,-8.04 -13.94,-30.05 -5.39,-246.62 -1.37,-291.13l196.06 -5.58c24.43,2.46 15.35,2.2 33.61,6.94 61.29,15.9 34.23,252.13 21.11,297.82zm286.27 -307.55l1.4 59.48 -247.04 3.5 2.58 -54.35c54.09,-26.31 172.62,-11.19 243.07,-8.62zm-672.15 -0.61l79.85 2.81c14.8,56.17 17.28,264.92 1.37,319.23 -276.38,6.59 -259.88,47.33 -250.5,-190.54 36.7,-1.38 71.77,0.32 108.43,0.74l80.09 -9c1.86,-3.97 6.71,-2.15 11,-3.8l-1.88 -48.97c-50.78,-20.25 -141.52,-12.55 -201.93,-3.53 -15.02,-17.52 -7.91,1.57 -20.33,-32.04 -2.89,-7.83 -1.95,-28.12 -1.95,-37.16 -15.81,12.07 -5.03,-1.16 -9.37,28.77l-14.56 294.07 -246.4 6.98c-34.41,-21.17 -14.09,26.15 -26.44,-30.96l2.76 43.21c-45.24,0 -90.41,0.33 -135.63,0.5 -17.36,0.06 -44.25,0.62 -60.69,-1.89 -63.5,-9.71 -22.2,-2.26 -27.42,-10.86 13.79,15.48 186.74,10.09 217.83,9.35 -15.7,40.73 -12.29,-4.46 7.45,54.52l-608.34 499.87 67.27 98.56c23.82,28.94 51.17,55.85 79.85,79.06 53.79,43.55 119.41,95.25 193.33,137.32 519.34,295.58 1039.86,201.14 1451.2,-146.9 244.15,-206.58 396.9,-574.77 392.42,-915.73 -2.44,-185.97 -53.33,-373.83 -126.57,-520.03 -59.43,-118.63 -208.48,-332.3 -284.45,-358.36 -10.59,13.56 -6.16,6.18 5.58,37.39 1.79,4.77 9.85,24.09 10.43,26.19l2.59 28.78c34.83,-44.42 38.21,0.64 41.04,2.64l-553.73 476.27c-98.85,81.76 -149.11,100.67 -182.28,163.5z"/>
   <path class="fil9" d="M5153.79 11675.83l58.29 -7.98 1.87 229.52 -60.16 -0.92 0 -220.62zm165.16 -100.63c44.51,9.13 42,-33.2 40.1,116.95 -0.57,45.28 -5.35,95.91 5.73,138.03 30.87,2.3 50.73,-1.8 77.31,-1.29 94.01,1.81 49.47,-10.24 67.85,34.77 -15.79,32.2 -1.8,32.91 -118.11,30.48 -109.26,-2.29 -96.34,12.24 -98.2,-189.7 -0.16,-17.53 -2.49,-60.36 -1.18,-74.76 6.89,-76.01 -7.04,-33.73 26.49,-54.48zm-398.69 888.88l608.34 -499.87c-19.74,-58.98 -23.15,-13.79 -7.45,-54.52 -31.09,0.74 -204.04,6.13 -217.83,-9.35 5.22,8.6 -36.08,1.15 27.42,10.86 16.44,2.51 43.33,1.95 60.69,1.89 45.21,-0.17 90.39,-0.5 135.63,-0.5l-2.76 -43.21c12.35,57.11 -7.97,9.79 26.44,30.96 -17.17,-78.48 -35.43,-238.79 0.03,-307.15 34.63,-19.57 74.61,-14.7 123.26,-15.35 69.44,-0.93 93.04,-8.57 137.68,21.44 4.34,-29.93 -6.44,-16.7 9.37,-28.77 0,9.04 -0.94,29.33 1.95,37.16 12.42,33.61 5.31,14.52 20.33,32.04l-0.51 -57.69c45.14,-17.28 119.74,-7.25 174.08,-9.23 33.17,-62.83 83.43,-81.74 182.28,-163.5l553.73 -476.27c-2.83,-2.01 -6.22,-47.07 -41.04,-2.64l-2.59 -28.78c-0.58,-2.09 -8.64,-21.42 -10.43,-26.19 -11.74,-31.22 -16.18,-23.83 -5.58,-37.39 -1.95,-2.7 -5.41,-9.75 -6.5,-7.59 -0.05,0.09 -26.29,-39.58 -153.1,-120.75 -58.31,-37.33 -118.59,-68.02 -185.42,-96.26 -135.83,-57.39 -315.87,-94.61 -478.3,-92.66 -240.13,2.89 -462.4,72.01 -652.66,200.24 -525.7,354.28 -704.09,1035.62 -415.88,1574.16 29.49,55.11 66.54,135.51 118.82,168.94z"/>
   <path class="fil10" d="M4947.25 12753.37c-18.08,-34.63 -70.19,-87.94 -94.38,-117.54 -34.73,-42.49 -60.44,-70.78 -92.36,-115.24 -33.8,-47.09 -133.18,-247.66 -147.05,-262.19 -12.96,7.12 -7.94,25.83 -37.34,-5.87 -15.49,-16.7 -12.64,-47.48 -18.15,-61.88 -0.26,-0.68 -1.82,-3.34 -2.09,-4l-9.83 -27.4c-0.28,-0.72 -1.62,-3.46 -1.93,-4.21 -0.34,-0.82 -1.92,-3.65 -2.27,-4.54l-25.64 -85.99c-53.91,-78.11 -57.24,-210.91 -60.29,-335.55 -0,-0 -23.25,148.02 -20.75,-86.6 0.93,-87.38 23.91,-55.68 23.91,-266.42l-97.51 -0.29 16.64 -148.69c8.33,-87.99 176.1,-389.13 237.32,-458.84 56.29,-64.1 186.69,-212.98 251.27,-260.2 107.06,-78.27 199.69,-143.45 321.36,-203.94 218.05,-108.4 414.48,-163.05 706.33,-162.55 346.39,0.59 566.56,77.23 821.29,230.41 246.53,148.25 460.86,369.19 591.35,626.48 68.99,136.02 102.28,229.74 144.33,383.8 -48.15,-22.75 20.98,31.67 -15.74,-14.58l-10.56 -36.14c-119.4,-4.5 31.77,42.61 -94.5,46.5 0.61,146.18 18.09,265.75 12.73,425.07l-60.94 344.7c-12.75,37.85 -26.22,42.21 -26.8,64.43 -1.7,64.81 6.07,-33.72 2.32,18.84 -3.37,47.2 -38.97,62.04 -59.04,115.89 -13.7,36.77 -14.25,33.91 -25.13,58.42l-13.54 37.05c-8.34,25.24 0.42,11.68 -12.48,35.28 -17.1,31.27 -22.75,18.09 -43.31,43.61 -28.22,35.05 -16.04,27.4 -51.54,61.46 -22.95,22.01 -26.4,21.46 -27.5,67.87 -2.8,-2.71 -6.37,-7.17 -7.83,-8.68l-11.55 -8.13c-15.69,9.71 -10.82,5.63 -26.68,20.64l-10.51 11.26c-51.05,57.72 -30.47,-9.25 -70.99,67.64 -0.91,1.72 -2.39,5.17 -3.43,6.94 -1.63,2.8 -8.8,13.86 -9.12,14.29 -12.3,16.54 -7.23,8.92 -18,20.01l-171.1 137.22c-1.47,1.25 -13.77,12.68 -19.25,17.33 -67.71,57.54 -341.77,212.15 -438.5,182.37 -2.21,-0.68 -6.65,-2.62 -8.43,-3.23 -1.82,-0.63 -7.23,0.09 -8.54,-3.47 -1.33,-3.61 -5.6,-2.88 -8.63,-3.59l-1.14 12.61c-11.72,29.97 -83.17,12.11 -120.2,22.54 -76.93,21.67 -106.46,21.87 -209.76,19.69l-260.87 -30.67c-124.44,-24.89 -273.43,-67.53 -386.22,-126.36 -13.19,-6.88 36.56,28.01 -15.08,-10.6 -44.5,-33.27 -122.89,-62.84 -153.92,-96.91l-10.77 -15.53c-27.39,-30.16 -78.06,-80.63 -111.04,-57.11 15.29,-54.81 -34.86,-26.71 3.39,-65.42zm-774.98 -755.01c27.18,17.81 30.05,10.86 70.5,10.84l0 146.94 48.56 0c0.07,22.61 -2.32,93.43 0.89,110.94 18.14,98.94 33.49,-33.53 36.69,84.14 27.05,-58.1 0.79,-41.96 24.7,-34.49 101.39,231.81 252,452.09 445.39,617.86l207.39 159.3c719.09,436.53 1466.63,350.08 2080.72,-221.1 200.56,-186.55 441.88,-635.56 448.55,-996.9l40.46 0c2.42,68.32 -20.61,188.43 -25.37,266.27 90.06,-66.24 79.52,-721.09 31.62,-842.07 -15.13,-38.21 -1.97,3.16 -13.45,-35.62l-43.15 -140.36c-106.93,-286.53 -277.51,-507.32 -498.16,-711.84 -563.71,-522.53 -1476.55,-577.66 -2147.48,-102.08 -30.53,21.64 -6.3,3.68 -33.12,27.26l-275.29 264.83c-18.59,19.17 -35.62,36.52 -57.12,64.87 -36.06,47.55 -60.15,91.19 -97.4,147.99 -136.18,207.68 -227.8,459.93 -250.09,716.97 -14.63,168.76 2.72,289.82 5.16,466.25z"/>
   <path class="fil11" d="M2382.24 2314.46c-127.44,-30.16 -14.31,129.34 10.25,207.61 15.51,49.43 13.69,31.76 32.91,76.22l122 294.46c14.73,45.04 9.36,36.01 25.66,71.71 119.65,262.18 208.48,538 329.01,798.05l115.07 304.15c16.63,43.09 42.52,85.14 62.5,131.25 41.92,96.72 78.26,233.91 130.18,321.58 72.15,121.82 169.09,417.22 224.2,563 73.93,195.58 175.01,380.15 244.25,575.52l178.26 432.72c53.94,109.16 84.72,258.4 178.75,332.76 35.29,27.91 19.21,16.02 50.72,49.31l25.99 22.89c226.54,154.86 581.15,125.74 851.85,127.6l2130.7 -0.69c342.52,0 588.8,-165.01 660.96,-446.49 -94.78,18.21 1.88,-6.98 -46.46,34.08 -18.56,15.77 32.4,12.96 -45.76,14.61 -0.26,-119.8 -33.41,-6.9 4.88,-107.84l159.91 -456.28c200.95,-474.78 390.38,-980.42 570.33,-1461.21l591.21 -1526.1c18.42,-45.35 179.43,-433.7 177.08,-483.49 -1.86,-39.24 5.86,-12.87 -14.93,-44.95 -15.45,16.91 -2.05,-6.8 -22.79,35.15l-103.96 276.39c-1.16,2.7 -2.75,5.73 -3.93,8.46l-532.73 1367.01c-58.16,56.59 -23.44,66.22 -75.75,193.05l-287.78 740.49c-148.18,395.51 -321.95,786.56 -461.33,1181.52 -22.91,64.92 -88.42,234.54 -132.91,279.52 -54.4,54.99 -7.77,9.69 -49.73,31.09l-173.26 128c-36.25,12.09 -85.71,9.01 -118.75,26.89 -70.93,38.4 -140.04,32.77 -241.24,32.77l-2179.67 1.22c-172.32,1.03 -355.87,10.86 -476.56,-93.6 -54.78,-47.42 -108.79,-60.28 -180.52,-202.18 -108.21,-214.08 -70.48,-189.06 -109.57,-282.96 -32.76,-78.68 -38.22,-43.74 -37.66,-163.49 -39.01,-17.17 -42.62,-34.89 -47.98,-73.47 -14.54,-104.54 -1.56,-26.71 -33.24,-96.71 -16.9,-37.34 -11.19,-79.22 -29.59,-103.21 -40.36,-52.6 -32.43,7.86 -36.76,-106.22 -106.95,-47.28 -79.7,-128.65 -123.49,-211.04 -1.28,-2.41 -3.38,-5.24 -4.64,-7.69l-64.5 -143.15c-30.22,-56.95 -15.89,-36.55 -35.09,-99.32 -29.86,-97.64 -79.89,-182.69 -110.7,-306.3l-74.5 -182.36c-57.23,-112.01 -45.59,-135.02 -81.01,-213.17l-176.54 -398.87c-16.57,-45.74 -19.4,-47.87 -35.67,-99.35 -16.97,-53.71 -32.34,-62.64 -56.47,-143.76l-106.37 -243.32c-30.43,-52.13 -18.61,-48.67 -36.46,-110.91l-174.21 -398.97c-34.27,-76.84 -37.75,-156.09 -76.14,-220.09 -70.27,-117.15 -99.25,-295.05 -169.97,-404.13l-51.66 68.82c-44.21,71.96 -75.97,20.66 -56.37,103.44z"/>
   <path class="fil12" d="M11490.61 15477.03c-6.46,-80.2 -27.66,-139.85 -40.64,-217.5 -12.38,-74.07 -6.47,-149 -28.79,-228.36l-65.62 -448.68c-1.99,-97.06 -5.35,-153.86 -24.05,-233.1 -21.43,-90.8 -17.51,-125.41 -25.09,-232.07 -5.76,-81 -35.43,-130.52 -36.33,-220.83 -0.56,-55.88 -7.44,-194.52 -16.74,-252.66 -19.66,-122.88 -32.58,-46.49 -31.8,-225.35 0.3,-69.01 -13.78,-174.56 -22.64,-234.51 -22.28,-150.74 -27.05,-317.96 -26.66,-487.64 0.39,-168.67 -23.51,-325.36 -36.11,-478.2l-0.02 -1039.58c10.61,-132.51 37.67,-325.88 36.11,-478.2 -0.98,-95.5 9.54,-147.79 11.92,-245.22 1.56,-63.81 16.31,-174.13 23.02,-234.13 18.4,-164.41 0.91,-343.77 27.84,-498.71 25.43,-146.29 33.03,-302.11 39.98,-339.63 33.12,-178.92 20.84,-207.52 40.4,-351.45 12.42,-91.42 22.77,-141.92 35.47,-233.92l29.69 -227.46c10.82,-63.03 22.9,-163.72 24.25,-232.9 0.81,-41.27 61.05,-335.16 61.39,-465.24 0.76,-45.74 3.35,-11.85 -12.99,-24.99 -8.45,124.76 -69.6,-28.17 -72.73,99.2l-39.39 -58.99c-1.57,-3.5 -6.91,-12.97 -8.6,-16.18l-9.16 -16.43c-1.01,-1.83 -2.83,-5.73 -4.65,-8.34 -50.66,268.36 -91.33,581.81 -132.54,871.7 -236.54,1663.61 -291.69,4044.63 -14.74,5693.1 26.01,154.79 43.98,293.84 67.11,438.2l68.42 442.31c52.94,-2.16 36.24,21.74 37.97,-46.63 72.65,0.07 57.16,-15.56 58.01,49.72l25.23 -49.72c1.54,45.01 14.65,86.12 19.56,125.05 15.85,125.71 7.08,93.92 42.91,107.37z"/>
   <path class="fil13" d="M4613.45 12258.4c-52.18,-203.55 -101.85,-299.35 -95.91,-541.7 12.65,-516.79 291.2,-943.08 730.75,-1184.72 961.99,-528.83 2183.95,302.11 1997.46,1434.88 -48.56,295.01 -231.81,636.02 -458.43,814 -271.92,213.55 -550.77,338.79 -930.06,331.23 -187.43,-3.73 -372.33,-46.45 -521.05,-114.08 -73.73,-33.52 -146.04,-74.32 -205.33,-113.64 -60.78,-40.31 -135.53,-115.48 -183.63,-131 -38.25,38.72 11.9,10.62 -3.39,65.42 32.98,-23.52 83.65,26.95 111.04,57.11l10.77 15.53c31.03,34.07 109.42,63.63 153.92,96.91 51.64,38.61 1.89,3.72 15.08,10.6 112.79,58.83 261.79,101.47 386.22,126.36l260.87 30.67c103.3,2.18 132.83,1.98 209.76,-19.69 37.03,-10.43 108.48,7.43 120.2,-22.54l1.14 -12.61c3.03,0.71 7.3,-0.02 8.63,3.59 1.31,3.56 6.72,2.84 8.54,3.47 1.79,0.61 6.22,2.55 8.43,3.23 96.73,29.78 370.79,-124.84 438.5,-182.37 5.48,-4.66 17.78,-16.08 19.25,-17.33l171.1 -137.22c10.78,-11.1 5.71,-3.47 18,-20.01 0.32,-0.43 7.48,-11.49 9.12,-14.29 1.03,-1.77 2.52,-5.21 3.43,-6.94 40.52,-76.9 19.95,-9.92 70.99,-67.64l10.51 -11.26c15.86,-15.01 10.99,-10.93 26.68,-20.64l11.55 8.13c1.46,1.52 5.02,5.98 7.83,8.68 1.1,-46.42 4.55,-45.86 27.5,-67.87 35.5,-34.06 23.32,-26.41 51.54,-61.46 20.56,-25.53 26.21,-12.34 43.31,-43.61 12.9,-23.6 4.13,-10.04 12.48,-35.28l13.54 -37.05c10.89,-24.51 11.43,-21.64 25.13,-58.42 20.06,-53.85 55.67,-68.69 59.04,-115.89 3.75,-52.56 -4.03,45.96 -2.32,-18.84 0.58,-22.22 14.05,-26.58 26.8,-64.43l60.94 -344.7c5.36,-159.32 -12.12,-278.88 -12.73,-425.07 126.27,-3.89 -24.89,-51 94.5,-46.5l10.56 36.14c36.71,46.24 -32.41,-8.17 15.74,14.58 -42.05,-154.06 -75.34,-247.78 -144.33,-383.8 -130.49,-257.29 -344.82,-478.23 -591.35,-626.48 -254.73,-153.18 -474.9,-229.82 -821.29,-230.41 -291.85,-0.5 -488.27,54.15 -706.33,162.55 -121.67,60.48 -214.3,125.66 -321.36,203.94 -64.58,47.21 -194.98,196.1 -251.27,260.2 -61.22,69.7 -228.99,370.84 -237.32,458.84l-16.64 148.69 97.51 0.29c0,210.75 -22.98,179.05 -23.91,266.42 -2.5,234.62 20.75,86.59 20.75,86.6 3.05,124.64 6.38,257.44 60.29,335.55l25.64 85.99c0.35,0.89 1.93,3.72 2.27,4.54 0.3,0.75 1.65,3.49 1.93,4.21l9.83 27.4c0.27,0.66 1.83,3.33 2.09,4 5.51,14.39 2.66,45.18 18.15,61.88 29.4,31.71 24.38,12.99 37.34,5.87z"/>
   <path class="fil7" d="M494.22 19970.08c-14.95,61.44 4.55,61.47 20.44,89.58l642.72 1035.13c1.69,1.87 4.13,4.55 5.85,6.4 1.71,1.85 4.22,4.46 5.95,6.3l163.23 204.13c9.69,12.04 8.84,10.84 16.8,19.93 21.75,24.83 38.2,37.82 60.55,61.9 26.92,29 27.76,40.99 54.76,67.69l122.63 122.28c294.9,292.46 625.82,552.86 977.59,773.5 53.25,33.4 94.59,57.83 152.86,92.05 120.93,71.03 382.66,213.77 499.88,259.32 55.33,21.5 30.52,21.18 79.65,42.8l1026.97 344.52 433.19 68.86c119.36,12.38 35.61,-8.85 223.55,21.36 73.86,11.87 161.78,17.01 239.23,17.01l-3.06 -66.84c-1199.78,-124.73 -2238.72,-676.13 -3001.89,-1311.53l-125.56 -106.68c-43.89,-35.49 -84.3,-79.85 -126.41,-118.45 -167.28,-153.34 -312.07,-313.56 -468.39,-498.85 -134.58,-159.52 -283.17,-355.76 -407.23,-548.97 -51.24,-79.81 -336.35,-550.58 -338.6,-617.11 -36.37,14.35 -8.05,-22.94 -35.55,23.41 27.94,77.61 0.39,-39.05 24.43,38.66 -39.85,12.66 7.3,-7.96 -17.36,17.1 -40.17,40.82 34.94,26.9 -53.89,28.58l-7.84 -40.58c-0.41,-4.43 -3.55,-4.89 -5.26,-7.42l-85.88 0.03c-1.7,-76.18 6.45,-32.58 -23.74,-49.71l-33.4 -5.64c-1.13,-2.82 -5.4,-0.1 -12.86,-0.57l-3.37 31.79z"/>
   <path class="fil8" d="M5877.6 5648.87c276.97,3.39 559.47,1.28 837.32,-0.32 462.17,-2.67 457.08,79.21 456.77,-385.14 -0.31,-467.47 15.22,-394.33 -456.77,-396.1 -274.27,-1.03 -561.51,-6.95 -838.63,2.55l1.31 779z"/>
   <path class="fil7" d="M10827.7 20102.83c-24.88,28.29 -59.11,106 -78.5,140.96 -150.49,271.24 -279.27,444.62 -463.2,689.13 -67.34,89.53 -125.31,165.62 -203,249.8l-220.61 244.92c-145.95,152 -309.52,296.25 -473.89,432.46 -381.53,316.17 -930.93,668.46 -1423.15,866.23 -278.04,111.71 -733.85,273.07 -1043.7,328.4 -318.52,56.88 -316.35,31.36 -316.32,135.88 36.96,-18.26 453.7,-61.9 599.55,-97.83l382.87 -94.7c137.57,-46.32 409.7,-129.39 531.46,-191.02l163.12 -69.55c118.34,-52.62 438.63,-221.09 537.05,-295.64l733.54 -466.51c23.59,-23.75 39.36,-37 65.83,-56.62l616.09 -571.71 190.57 -225.77c1.57,-2.02 3.76,-4.89 5.29,-6.95 1.53,-2.07 3.64,-5 5.14,-7.11l343.56 -489.12c10.98,-17.5 3.01,-4.06 14.87,-21.86 17.07,-25.62 32.75,-51.09 46.72,-75.73 17.84,-31.46 25.11,-45.14 45.82,-76.63 59.44,-90.37 118.58,-215.53 163.21,-314.41 13.67,-30.27 27.2,-47.48 36.51,-83.16 -43.47,2.14 -40.31,14.14 -73.47,0l-24.49 48.04c-48.96,0.28 -132.34,-9.38 -160.85,8.5z"/>
   <path class="fil14" d="M5645.63 18291.9c-51.73,19.24 -78.92,43.28 -130.69,60.09 -22.87,45.66 -226.79,128.15 -210.74,503.71 21.42,74.93 32.07,123.85 72.18,187.43 209.18,331.61 693.71,320.37 885.71,-27.99 62.21,-112.87 91.37,-337.65 9.58,-446.43 -47.88,-104.16 -107.96,-177.12 -194.35,-225.24l-129.99 -59.3c-145.19,-25.13 -165.98,-16.48 -301.7,7.73z"/>
   <path class="fil15" d="M5691.81 10478.19c763.62,-117.11 1358.29,423.52 1454.9,1062.78 63.56,420.56 -70.53,742.13 -261.99,994.56l-157.93 160.37c-152.8,151.12 -431.69,266.97 -654.19,300.69 -382.15,57.93 -756.57,-75.13 -978.19,-259.47 -914.85,-760.95 -454.5,-2097.61 597.4,-2258.93zm-1078.36 1780.22c13.87,14.53 113.25,215.1 147.05,262.19 31.92,44.46 57.63,72.75 92.36,115.24 24.19,29.59 76.3,82.9 94.38,117.54 48.1,15.52 122.85,90.69 183.63,131 59.29,39.32 131.6,80.12 205.33,113.64 148.73,67.62 333.62,110.34 521.05,114.08 379.29,7.56 658.14,-117.67 930.06,-331.23 226.62,-177.98 409.87,-518.99 458.43,-814 186.49,-1132.77 -1035.47,-1963.71 -1997.46,-1434.88 -439.55,241.63 -718.1,667.92 -730.75,1184.72 -5.94,242.36 43.73,338.15 95.91,541.7z"/>
   <path class="fil16" d="M785.79 12839.49l-166.2 12.16 5.22 -200.16c-20.13,23.06 -67.91,738.22 -85.19,849.93 -42.51,274.83 -75.72,535.55 -129.07,815.39 -51.63,270.84 -104.27,530.83 -152.84,790.87l-112.08 701.94c-7.25,56.42 -11.57,70.3 18.03,94.33 10.4,-18.92 0.35,-188.23 32.37,-261.16 0.81,-1.84 2.54,-5.62 4.17,-8.23 1.67,75.33 -7.8,37.05 24.02,48.98 18.42,-78.42 49.15,-42.88 49.27,-146.65 83.29,-0.1 45.71,-2.82 72.6,48.4 0,-106.92 7.11,-54.39 27.83,-167.85l231.09 -1163.05c86.88,-458.61 151.46,-928.08 180.79,-1414.89z"/>
   <path class="fil17" d="M5250.69 21133.33c-1.01,61.46 -21.44,314.38 8.68,348.88 1.99,2.27 11.07,13.23 13.84,15.98l14.31 12.69c13.69,10.82 5.71,4.25 23.03,14.6 23.25,13.9 46.04,26.59 68.97,40.3 48.94,29.27 97.59,58.51 147.27,85.53l103.01 56.06c76.84,37.83 141.77,102.47 227.89,62.72 21.27,-21.81 13.3,-24.8 24.49,-42.95l-61.12 3.96c-15.29,-45.51 11.45,-80.35 17.23,-149.93 80.06,-14.54 145.45,-78.2 217.17,-86.04l34.94 -35.23c23.09,28.74 20.95,4.89 79.05,83.28 75.32,-4.53 100.58,-26.38 158.07,-51.19 -2.59,-83.53 0.41,-96.25 -55.65,-136.33 -81.67,-58.39 -63.82,-26.4 -104.7,-50.85 -15.48,-260.7 45.94,-154.36 128.39,-222.39 32.35,-26.7 33.17,-91.86 35.47,-144.97l-240.64 -145.61c-2.09,1.95 -4.88,4.86 -6.06,6.09l-42.91 50.17 -146.87 2.67c60.93,23.71 130.29,96.62 160.71,154.35 -17.77,-11.33 -96.35,-85.03 -166.87,-13.82 90.45,22.1 189.4,143.88 150.08,273.02 -17.21,56.52 -65.27,97.72 -100.71,120.65 -79.1,51.17 -28.41,6 -93.16,67.14 -38.28,36.14 -145.55,-23.84 -197.45,-59.14 -215,-146.22 -109.5,-411.59 108.69,-425.64 -6.24,-94.07 -21.97,-21.39 -26.56,-86.96 -39.71,9.69 -38.86,15.08 -68.25,25.59 -116.35,41.64 -48.67,6.43 -72.64,-15.4 84.28,-16.84 96.8,-49.46 217.73,-60.07 -71.08,4.18 -126.7,-38.32 -120.72,-129.74 -78.49,35.79 -143.44,72.14 -207.19,106 -44.86,23.83 -154.91,71.4 -192.37,106.21 -4.91,10.31 -8.87,123.78 11.47,169.72 3.24,0.62 7.64,0.61 9.88,0.74 2.22,0.13 7.11,0.56 9.81,0.69 2.66,0.13 6.79,0.39 9.68,0.5l56.74 -0.22 26.11 265.36c-4.65,38.24 -72.05,62.17 -106.21,70.36 -27.58,6.61 -5.23,5.68 -45.56,7.09 0,-53.99 14.68,-265.9 -7.1,-293.89z"/>
   <path class="fil18" d="M4920.26 12464.08c-52.27,-33.43 -89.32,-113.83 -118.82,-168.94 -288.21,-538.54 -109.82,-1219.88 415.88,-1574.16 190.27,-128.23 412.53,-197.35 652.66,-200.24 162.43,-1.95 342.46,35.27 478.3,92.66 66.83,28.24 127.11,58.94 185.42,96.26 126.8,81.18 153.05,120.84 153.1,120.75 1.09,-2.16 4.55,4.89 6.5,7.59 75.97,26.05 225.02,239.73 284.45,358.36 73.24,146.2 124.13,334.06 126.57,520.03 4.47,340.95 -148.28,709.15 -392.42,915.73 -411.34,348.04 -931.86,442.48 -1451.2,146.9 -73.93,-42.07 -139.55,-93.78 -193.33,-137.32 -28.67,-23.21 -56.03,-50.12 -79.85,-79.06l-67.27 -98.56zm771.54 -1985.89c-1051.89,161.32 -1512.25,1497.98 -597.4,2258.93 221.62,184.34 596.04,317.39 978.19,259.47 222.5,-33.73 501.39,-149.57 654.19,-300.69l157.93 -160.37c191.46,-252.43 325.55,-574 261.99,-994.56 -96.62,-639.26 -691.29,-1179.89 -1454.9,-1062.78z"/>
   <path class="fil19" d="M628.92 10822.8c-41.66,107.85 -5.29,279.43 0.12,379.55 6.63,122.74 -0.06,266.78 -0.06,391.91 0,250.98 -14.84,551.09 2.19,795.95l-6.37 261.27 -5.22 200.16 166.2 -12.16 45.44 -1.35c91.86,-0.57 135.18,19.86 177.29,-19.34 -6.04,-190.53 -26.45,-221.99 20.86,-217.98 -24.26,-18.4 -236.71,-59.95 -330.03,-267.56 -125.96,-280.24 29.3,-562.51 228.64,-635.37l-21.95 -22.4c-1.59,-0.88 -5.2,-2.17 -6.78,-2.71 -55.92,-19.08 23.82,30.81 -34.38,1.12 -22.87,-11.67 -27.63,-17.69 -43.04,-63.44 -19.87,-59.02 -13.14,-143.2 -20.3,-212.26 -6.81,-65.72 -20.99,-35.34 -32.53,-89.24 -4.06,-19 -1.07,-477.53 -45.8,-629.27 -7.31,-24.79 -11.61,-67.25 -15.14,-94.85 -5.18,-40.56 -2.16,-76.05 -13.99,-108.7l-88.42 -218.69c-23.06,33.42 22.53,519.72 23.26,565.35z"/>
   <path class="fil20" d="M5304.2 18855.7c-34.99,-50.33 -18.68,-89.98 -23.57,-139.97l-3.1 78.61c-15.33,-23.33 -3.38,-18.53 -19.99,-12.06 0.36,91.64 -23.13,112.23 -24.77,183.21l-22.2 -38.09c-35.1,-34.62 -53.73,-5.7 -39.5,-84.65 -39.71,16.55 -11.62,-10.67 -31.39,37.3 -2.63,-27.96 -4.19,-41.03 -10.56,-67.2l-21.77 -53c26.89,768.38 913.19,923.63 1261.02,434.95 105.19,-147.79 178.32,-373.47 115.15,-589.37 -31.04,-6.13 -17.03,6.78 -33.4,-13.93 11.23,30.46 26.38,71.46 -16.12,95.93 -62.48,35.97 -7.69,-47.68 -48.57,12.57l-25.35 -1.35c-0.77,-1.41 -2.32,-4.96 -3.1,-6.14 -0.59,-0.89 -2.31,-3.65 -2.91,-4.31 -27.85,-30.73 29.58,16.12 -21.85,-3.9 -1.98,-57.15 -12.86,-106.19 -60.54,-115.62 81.78,108.78 52.63,333.56 -9.58,446.43 -192,348.37 -676.53,359.6 -885.71,27.99 -40.11,-63.58 -50.76,-112.5 -72.18,-187.43z"/>
   <path class="fil21" d="M5877.6 5648.87l-1.31 -779c277.12,-9.5 564.36,-3.59 838.63,-2.55 472,1.77 456.46,-71.37 456.77,396.1 0.31,464.34 5.4,382.46 -456.77,385.14 -277.85,1.6 -560.35,3.71 -837.32,0.32zm-213.03 -67.08c10.63,110.75 82.78,104.96 192.9,107.8l906.43 -4.33c304.29,-2.68 428.91,63.55 438.4,-176.69 5.23,-132.52 13.21,-481.98 -9.84,-599 -21.45,-108.9 -103.96,-109.19 -208.13,-107.62 -102.18,1.54 -203.93,2.98 -306.15,3.18l-894.2 -5.36c-100.74,7.21 -123.25,76.76 -123.97,181.61 -1.22,177.49 -11.75,430.43 4.56,600.42z"/>
   <path class="fil11" d="M129.51 18855.75c-13.64,166.38 17.89,147.68 38.94,227.87 21.24,80.89 -12.06,0.19 37.2,146.48 20.73,61.59 -3.45,42.26 39.69,143.99 17.43,41.11 9.97,29.74 21.61,76.35l110.25 293.85c17.79,35.89 5.51,5.05 15.05,33.94l52.06 130.91c17.41,53.69 1.52,44.65 49.91,60.94l3.37 -31.79c7.46,0.47 11.73,-2.25 12.86,0.57l33.4 5.64c30.19,17.13 22.04,-26.47 23.74,49.71l85.88 -0.03c1.71,2.53 4.85,2.99 5.26,7.42l7.84 40.58c88.83,-1.68 13.72,12.23 53.89,-28.58 24.67,-25.06 -22.48,-4.44 17.36,-17.1 -24.03,-77.71 3.52,38.95 -24.43,-38.66 27.49,-46.35 -0.82,-9.05 35.55,-23.41 -36.73,-86.39 -78.94,-172.68 -111.03,-251.52 -130.78,-321.34 -140.26,-360.7 -233.09,-678.5 -35.5,-121.55 -37.52,-80.78 -77.99,-99.66 7.4,-78.79 20.71,19.53 23.79,-89.7l-142.9 -1.31 -14.81 49.9c0.15,-90.11 3.37,-22.85 -21.78,-49.54l-0.59 61.11c-6.9,-82.78 7.55,-43.15 -31.38,-61.85l-9.66 42.4z"/>
   <path class="fil22" d="M7150.92 3549.06c-91.85,195.36 -220.4,217.23 -220.8,217.43l-23.55 12.9c-78.77,30.52 -198.41,13.05 -282.98,-40.02 -55,-34.51 -109.84,-137.09 -115.5,-213.94 -6.94,-94.12 -3.1,-208.83 56.62,-284.9 50.41,-64.22 50.94,-92.54 210.43,-114.47 29,-3.99 132.66,-3.3 160.14,2.62 36.25,7.81 74.64,36.03 105.55,55.16 95.65,59.19 160.47,258.07 110.09,365.21zm-644.17 -450.43c-35.14,52.91 3.86,44.91 -96.38,60.1 -11.67,177.7 -17.2,321.06 -10.71,512.79l45.92 24.49 5.2 81.81c44.33,1.5 14.51,-8.65 47.89,24.66 97.38,97.15 55.91,87.64 219.71,105.5 86.55,9.44 199.97,18.24 279.23,-15.55l99.5 -59.34c15.17,-14.8 5.57,-1.11 20.58,-16.99 17.51,-18.52 16.34,-37.83 45.66,-64.09 43.6,-39.06 31.56,-6.13 62.37,-45.79l27.71 -46.13c1.29,-2.29 3.34,-5.2 4.56,-7.52l7.87 -15.61c11.87,-31.66 2.55,-92.44 24.78,-195.23 21.99,-101.68 -14.74,-52.45 -15.82,-186.53l-45.83 -24.49 -3.76 -73.46c-58.31,-34.27 -37.22,13.35 -52.01,-79.38 -145.45,-0.73 -23.46,-25.3 -161.65,-44.72l-126.35 -24.25c-9.3,-2.63 3.96,-19.61 -38.63,-1.29 -34.68,14.92 21.21,15.79 -62.87,31.95 -75.64,14.54 -85.67,-7.14 -183.34,39.45 -47.2,22.52 -28.54,17.57 -93.64,19.65z"/>
   <path class="fil23" d="M605.66 10257.45l88.42 218.69c11.82,32.65 8.81,68.15 13.99,108.7 3.53,27.61 7.83,70.06 15.14,94.85 44.73,151.75 41.74,610.27 45.8,629.27 11.54,53.9 25.72,23.52 32.53,89.24 7.15,69.05 0.42,153.24 20.3,212.26 15.4,45.75 20.17,51.77 43.04,63.44 58.2,29.69 -21.54,-20.2 34.38,-1.12 1.58,0.54 5.2,1.83 6.78,2.71l21.95 22.4 66.56 -29.77 -34.78 4.93c28.18,-237.46 -65.7,-1155.72 -48.85,-1521.49 -115.77,-4.58 -200.43,83.94 -305.27,105.89z"/>
   <path class="fil3" d="M10748.53 3133.34l227.25 441.19c23.79,50.59 187.9,417.7 191.06,471.38l72.94 -15.98 0.54 51.07 146.94 0.05c0.23,79.61 9.72,88.89 31.71,159.33l27.05 60.71 7.97 -54.03c-11.01,-126.3 -12.01,-102.52 -42.06,-178.47l-171.19 -502.3c-10.87,-21.74 -6.84,-10.67 -17.08,-31.9l-296.27 -560.84 11.68 40.79 -90.78 -10.73c-1.25,-116.88 -37.31,9.4 -21.8,-68.92 -44.81,115.95 30.73,166.27 -77.95,198.66z"/>
   <path class="fil21" d="M5250.69 21133.33c21.78,27.99 7.1,239.9 7.1,293.89 40.32,-1.41 17.97,-0.48 45.56,-7.09 34.16,-8.19 101.55,-32.12 106.21,-70.36l-26.11 -265.36 -56.74 0.22c-2.89,-0.11 -7.02,-0.37 -9.68,-0.5 -2.7,-0.14 -7.59,-0.57 -9.81,-0.69 -2.24,-0.13 -6.64,-0.11 -9.88,-0.74 -20.33,-45.94 -16.37,-159.41 -11.47,-169.72 37.46,-34.81 147.51,-82.39 192.37,-106.21 63.75,-33.86 128.7,-70.21 207.19,-106 -5.98,91.42 49.64,133.92 120.72,129.74 -120.94,10.61 -133.45,43.24 -217.73,60.07 23.97,21.83 -43.71,57.04 72.64,15.4 29.39,-10.52 28.54,-15.9 68.25,-25.59 4.6,65.57 20.32,-7.11 26.56,86.96 53.24,8.42 84.45,12.32 132.55,23.97 70.52,-71.21 149.1,2.49 166.87,13.82 -30.42,-57.73 -99.78,-130.64 -160.71,-154.35l146.87 -2.67 42.91 -50.17c1.18,-1.23 3.96,-4.13 6.06,-6.09l240.64 145.61c-2.3,53.1 -3.12,118.27 -35.47,144.97 -82.45,68.03 -143.87,-38.31 -128.39,222.39 40.87,24.44 23.02,-7.55 104.7,50.85 56.06,40.08 53.05,52.8 55.65,136.33 -57.49,24.81 -82.76,46.66 -158.07,51.19 -58.1,-78.39 -55.96,-54.55 -79.05,-83.28l-34.94 35.23c31.02,48.15 -3.13,12.81 33.12,41.53 52.02,41.21 29.39,-24.42 50.74,59.73 36.88,-56.36 138.92,-71.52 191.31,-107.89l26.49 -593.48c-45.86,-22.9 -92.42,-55.67 -134.93,-79.32 -528,-293.75 -293.62,-293 -894.18,18.42 -10.98,5.7 -28.22,14.97 -31.24,16.91l-39 30.99 -7.1 251.29z"/>
   <path class="fil24" d="M5857.75 3190.08c259.6,0 342.11,296.3 139.09,473.78 -162.16,141.77 -328.32,59.45 -401.62,-58.93 -9.98,-16.13 -10.4,-19.32 -16.55,-43.72 -42.73,-169.71 -8.11,-291.49 156.89,-354.33 33.72,-12.84 74.4,-16.8 122.18,-16.8zm-290.81 -54.13c-6.24,111.44 -20.78,87.6 -64.72,119.22 -10.23,99.99 -35.41,321.12 18.48,411.2l48.93 73.58c30.33,57.69 21.22,36.34 115.14,67.08 115.8,37.91 262.78,-2.72 380.58,-27.08 93.15,-19.26 112.59,-119.78 133.45,-170.05 1.14,-2.74 2.7,-5.81 3.87,-8.49 38.13,-88.16 32.15,-230.61 -25.58,-322.97l-35.66 -49.92c-1.63,-1.99 -4.11,-4.58 -5.75,-6.57 -63.42,-77.17 -36.9,-60.37 -37.64,-121.23 -129.84,-9.86 -328.94,-48.91 -439.45,16.96 -37.01,22.06 -40.57,16.83 -91.64,18.27z"/>
   <path class="fil25" d="M4800.87 3285.24c227.9,-64.85 296.8,264.5 97.85,323.61 -216.66,64.38 -331.12,-257.22 -97.85,-323.61zm-163.38 443.14c57.69,4.15 127,46.81 274.18,24.68 179.11,-26.92 194.88,-113.24 231.35,-208.07 17.44,-45.35 23.42,-99.86 12.67,-152.44 -8.66,-42.34 -0.38,-5.84 -13.11,-35.17l-30.72 -80.21c-22.45,-54.19 3.59,-13.19 -81.44,-64.33l-50.35 -35.26c-27.7,-20.49 21.02,-6.81 -47.13,-25.75 -62.13,-17.27 -141.14,-10.48 -203.05,15.89l-135.46 85.19c-32.9,33.08 -62.45,186.78 -47.13,257.89l23.42 63.18c41.91,132.9 59.7,72.28 66.77,154.42z"/>
   <path class="fil26" d="M4637.5 3728.38c-7.07,-82.14 -24.86,-21.52 -66.77,-154.42l-23.42 -63.18c-15.31,-71.11 14.23,-224.81 47.13,-257.89l135.46 -85.19c61.92,-26.36 140.92,-33.15 203.05,-15.89 68.16,18.94 19.44,5.26 47.13,25.75l50.35 35.26c85.02,51.14 58.98,10.14 81.44,64.33l30.72 80.21c12.73,29.33 4.45,-7.17 13.11,35.17 10.75,52.58 4.77,107.09 -12.67,152.44 -36.47,94.84 -52.24,181.15 -231.35,208.07 -147.18,22.12 -216.49,-20.53 -274.18,-24.68zm-191.34 -375.24c-2.91,109.28 8.7,174.59 10.66,269.4l56.8 24.49c4.43,45.52 18.7,80.09 20.9,135.4 67.06,1.5 106.71,9.98 152.37,33.35 59.96,30.69 74.1,24.3 166.75,23.2 52.3,-0.62 134.61,2.6 174.33,-17.83 47.04,-24.19 -12.55,-39.67 141.65,-42.74 1.31,-27.01 -2.27,-42.61 8.9,-63.22 9.9,-18.26 7.87,-8.57 17.97,-19.34 21.1,-22.53 37.37,-45.44 45.93,-87.93 20.43,-101.38 -3.69,-225.53 -31.8,-314.91 -29.92,-95.1 -60.15,-22.22 -77.21,-145.78l-95.97 -13.84c-19.26,-37.21 2.79,-84.04 -147.42,-81 -48.04,0.97 -66.36,5.8 -111.41,13.1 -69.95,11.33 -67.32,25.56 -140.04,58.21 -71.65,32.16 -92.06,-4.8 -143.49,158.88 -22.04,70.17 -14.17,41.94 -48.92,70.57z"/>
   <path class="fil15" d="M5756.66 21170.31l63.49 -2.74 -1.27 58.79 -55.92 5.13 -6.3 -61.18zm131.75 -179c-48.1,-11.65 -79.31,-15.55 -132.55,-23.97 -218.19,14.06 -323.69,279.42 -108.69,425.64 51.91,35.3 159.18,95.28 197.45,59.14 64.75,-61.14 14.06,-15.96 93.16,-67.14 35.44,-22.93 83.5,-64.13 100.71,-120.65 39.32,-129.14 -59.64,-250.93 -150.08,-273.02z"/>
   <path class="fil1" d="M10827.7 20102.83c28.51,-17.89 111.88,-8.22 160.85,-8.5l24.49 -48.04c33.16,14.14 30,2.14 73.47,0 57.59,-98.46 100.03,-214.44 145.28,-322.78 6.36,-15.22 13.57,-28.87 21.72,-51.76l139.14 -419.38 -36.74 0.22c-1.91,2.9 -4.02,4.51 -4.61,9.42l-7.58 16.88c-15.31,39.97 15.71,-15.01 -6.81,22.83 -99.07,-2.23 -58.64,7.03 -151.97,-10.74 -1.27,-0.24 -4.8,-1.39 -7.22,-1.15l-350.01 813z"/>
   <path class="fil24" d="M6849.62 3192.51c45.91,0 32.15,1.61 62.68,11.81l44.06 16.93c87.25,41.06 136.53,138.21 119.95,244.57 -5.72,36.72 -12.5,81.01 -26.68,110.74 -17.17,36.03 -0.29,9.69 -26.62,36.03 -11.69,11.69 -20.82,17.85 -34.16,27.56 -26.26,19.13 -45.3,38.97 -73.24,49.82 -97.47,37.85 -379.07,-10.93 -343.22,-257.1 16.29,-111.88 19.66,-161.76 133.55,-212.1l143.69 -28.28zm301.3 356.55c50.38,-107.15 -14.44,-306.02 -110.09,-365.21 -30.91,-19.13 -69.3,-47.35 -105.55,-55.16 -27.48,-5.93 -131.14,-6.61 -160.14,-2.62 -159.49,21.92 -160.01,50.25 -210.43,114.47 -59.72,76.07 -63.56,190.79 -56.62,284.9 5.66,76.85 60.51,179.43 115.5,213.94 84.57,53.07 204.21,70.54 282.98,40.02l23.55 -12.9c0.4,-0.2 128.95,-22.07 220.8,-217.43z"/>
   <path class="fil27" d="M1013.37 11670.24l62.75 -19.64c-4.02,-175.57 -15.74,-1402.84 11.46,-1464.56 31.82,-39.29 305.57,-46.19 349.44,-48.5 126.7,-6.67 290.3,-9.01 416,-1.47l-73.03 -32.65c-51.87,-3.49 -705.95,6.48 -783.37,31.01 -43.06,13.64 -17.01,4.86 -34.23,14.87 4.72,252.55 25.89,506.19 32.78,759.21 3.42,125.7 2.57,268.82 11.74,382.37 4.99,61.84 4.64,130.39 6.58,193.24 2.53,81.72 20.45,155.87 -0.11,186.11z"/>
   <path class="fil28" d="M5789.55 3283.38c251.17,-80.26 312.74,279.77 101.96,337.77 -202.91,55.83 -368.26,-252.68 -101.96,-337.77zm68.19 -93.3c-47.78,0 -88.47,3.96 -122.18,16.8 -165,62.84 -199.62,184.62 -156.89,354.33 6.14,24.4 6.56,27.59 16.55,43.72 73.3,118.39 239.46,200.7 401.62,58.93 203.02,-177.48 120.51,-473.78 -139.09,-473.78z"/>
   <path class="fil29" d="M5107.35 18759.86l21.77 53c6.37,26.17 7.93,39.24 10.56,67.2 19.77,-47.97 -8.32,-20.75 31.39,-37.3 -14.24,78.95 4.4,50.03 39.5,84.65l22.2 38.09c1.64,-70.98 25.13,-91.57 24.77,-183.21 16.61,-6.47 4.67,-11.27 19.99,12.06l3.1 -78.61c4.88,49.98 -11.43,89.63 23.57,139.97 -16.05,-375.56 187.86,-458.05 210.74,-503.71 -11.12,-9.52 3.54,3.5 -33.43,-3.62 -2.18,-0.42 -6.14,-1.47 -8.36,-1.92 -2.19,-0.44 -6.01,-1.76 -8.17,-2.17 -40.15,-7.57 -19.94,-1.9 -51.19,5.3 -25.16,5.8 -17.79,6.05 -47.28,6.05 5.22,-81.65 -13.21,-8.65 34.34,-38.67 -28.59,-63.32 35.22,-33.43 -11.81,-94.55 -61.56,32.99 -143.5,128.68 -190.12,207.34 -52.19,88.06 -88.85,208.94 -91.57,330.11z"/>
   <path class="fil30" d="M6996.51 3500.08c-85.09,228.77 -424.99,112.27 -341.68,-118.68 25.43,-70.5 127.32,-143.39 233.77,-102.87 74.61,28.4 147.18,115.97 107.91,221.55zm-146.89 -307.57l-143.69 28.28c-113.89,50.33 -117.26,100.22 -133.55,212.1 -35.84,246.17 245.75,294.95 343.22,257.1 27.94,-10.85 46.98,-30.69 73.24,-49.82 13.34,-9.72 22.47,-15.87 34.16,-27.56 26.33,-26.34 9.46,-0 26.62,-36.03 14.17,-29.74 20.95,-74.02 26.68,-110.74 16.58,-106.36 -32.7,-203.51 -119.95,-244.57l-44.06 -16.93c-30.53,-10.2 -16.77,-11.81 -62.68,-11.81z"/>
   <path class="fil31" d="M5789.55 3283.38c-266.3,85.09 -100.95,393.6 101.96,337.77 210.77,-58 149.21,-418.03 -101.96,-337.77z"/>
   <path class="fil32" d="M6996.51 3500.08c39.27,-105.58 -33.31,-193.15 -107.91,-221.55 -106.45,-40.52 -208.34,32.38 -233.77,102.87 -83.31,230.95 256.59,347.45 341.68,118.68z"/>
   <path class="fil33" d="M5557.4 22770.74c41.66,22.72 6.78,-4.76 40.45,31.7 27.44,29.71 27.77,50.74 92.55,90.06 57.69,35.02 123.67,58.16 203.77,61.16 102.69,3.84 219.01,-29.36 286.89,-101.35 6.16,-6.54 26.35,-31.92 28.8,-34.17 45.31,-41.74 13.25,-27.43 36.49,-9.12 54.07,-66.54 -111.87,-111.45 -163.46,-104.82l-20.53 32.94c-0.01,52.57 -44.36,124.18 -149.42,132.09 -103.69,7.81 -132.81,-134.35 -83.88,-174.24l-46.15 -2.68c-55.5,-4.5 -120.22,19.35 -170.93,43.38 -1.35,0.64 -23.29,11.79 -24.9,12.77 -2.43,1.48 -5.53,3.45 -7.8,4.96l-14.73 11.3c-1.61,1.21 -4.92,3.85 -7.14,6.02z"/>
   <path class="fil34" d="M4800.87 3285.24c-233.27,66.39 -118.81,387.99 97.85,323.61 198.95,-59.12 130.05,-388.47 -97.85,-323.61z"/>
   <path class="fil35" d="M6246.35 22809.02c-23.24,-18.31 8.82,-32.62 -36.49,9.12 -2.44,2.25 -22.63,27.63 -28.8,34.17 -67.88,71.99 -184.21,105.19 -286.89,101.35 -80.1,-3 -146.09,-26.14 -203.77,-61.16 -64.78,-39.32 -65.11,-60.35 -92.55,-90.06 -33.67,-36.46 1.21,-8.98 -40.45,-31.7 18.61,174.94 145.08,317.09 324.32,329.18 101.09,6.82 184.2,-26.12 245.42,-80.23 46.95,-41.5 123.23,-117.11 119.21,-210.67z"/>
   <path class="fil29" d="M6077.32 18343.47c86.39,48.12 146.46,121.07 194.35,225.24 47.67,9.43 58.56,58.46 60.54,115.62 51.44,20.02 -6,-26.84 21.85,3.9 0.6,0.66 2.32,3.42 2.91,4.31 0.78,1.18 2.33,4.73 3.1,6.14l25.35 1.35c40.88,-60.26 -13.91,23.4 48.57,-12.57 42.5,-24.47 27.35,-65.47 16.12,-95.93 16.37,20.72 2.36,7.8 33.4,13.93 -24.69,-140.97 -158.68,-323.84 -244.24,-372.89l53.84 105.23c0.84,-1.92 3.64,5.59 5.45,8.38l-198.71 -8.14c-41.34,0.35 11.98,-22.41 -22.54,5.46z"/>
   <path class="fil36" d="M5639.11 18102.82l19.56 6.28c-51.28,58.3 -14.95,108.79 -13.03,182.81 135.71,-24.21 156.51,-32.85 301.7,-7.73l14.48 -9.73c103.86,-70.73 28.89,-122.65 55.91,-160.1l-83.57 -34.3c-69.54,-11.9 -242.25,-26.5 -295.05,22.77z"/>
   <path class="fil18" d="M5908.29 11766.75c24.3,-1.28 49.74,-2.51 72.65,-1.83 47.71,1.41 78.01,-10.95 62.29,73.34l-133.34 -1.97 -1.6 -69.54zm-64.93 -127.04c60.41,-9.02 151.15,-16.71 201.93,3.53l1.88 48.97c-4.28,1.66 -9.13,-0.17 -11,3.8l-80.09 9c-36.67,-0.42 -71.74,-2.13 -108.43,-0.74 -9.39,237.87 -25.88,197.13 250.5,190.54 15.91,-54.31 13.43,-263.05 -1.37,-319.23l-79.85 -2.81c-54.35,1.99 -128.94,-8.04 -174.08,9.23l0.51 57.69z"/>
   <path class="fil18" d="M5598.93 11637.13l144.7 9.87 -2.68 189.6 -138.35 -2.83 -3.67 -196.64zm-48.19 263.2l246.4 -6.98 14.56 -294.07c-44.64,-30.01 -68.23,-22.37 -137.68,-21.44 -48.65,0.65 -88.62,-4.22 -123.26,15.35 -35.45,68.35 -17.2,228.67 -0.03,307.15z"/>
   <path class="fil18" d="M6207.65 11636.73l143.77 3.2 -5.66 197.56 -135.54 -0.27 -2.57 -200.48zm195.16 244.21c13.12,-45.69 40.19,-281.92 -21.11,-297.82 -18.26,-4.74 -9.18,-4.48 -33.61,-6.94l-196.06 5.58c-4.02,44.51 -12.57,261.08 1.37,291.13 18.41,39.7 200.91,38.3 249.41,8.04z"/>
   <path class="fil37" d="M5389.04 18222.41c47.03,61.13 -16.78,31.24 11.81,94.55 -47.55,30.01 -29.12,-42.98 -34.34,38.67 29.49,0 22.12,-0.25 47.28,-6.05 31.25,-7.2 11.04,-12.87 51.19,-5.3 2.16,0.41 5.98,1.73 8.17,2.17 2.22,0.45 6.19,1.5 8.36,1.92 36.97,7.12 22.32,-5.91 33.43,3.62 51.78,-16.81 78.97,-40.85 130.69,-60.09 -1.92,-74.01 -38.25,-124.51 13.03,-182.81l-19.56 -6.28c-51.92,-2.24 -96.72,19.78 -139.16,39.88l-84.54 50.06c-28.72,25.38 -11.86,9.82 -26.37,29.65z"/>
   <path class="fil37" d="M5947.33 18284.17l129.99 59.3c34.52,-27.86 -18.79,-5.11 22.54,-5.46l198.71 8.14c-1.82,-2.79 -4.61,-10.3 -5.45,-8.38l-53.84 -105.23c-45.91,-48.3 -139.06,-115.22 -221.56,-118.21 -27.02,37.45 47.95,89.37 -55.91,160.1l-14.48 9.73z"/>
   <path class="fil38" d="M6082.89 22704.2l-58.48 -25.19c-23.77,-4.87 -55.48,-5.17 -80.44,-6.24l-122.52 2.63c-64.93,15.97 30.83,-12.67 -20.44,7.17 -2.95,1.15 -6.89,3.68 -9.21,4.7 -2.29,1.01 -6.12,3.06 -8.89,5.04l46.15 2.68c-48.93,39.89 -19.8,182.06 83.88,174.24 105.06,-7.91 149.41,-79.53 149.42,-132.09l20.53 -32.94z"/>
   <path class="fil39" d="M5882.18 21727.14c7.81,-18.18 73.59,-42.57 113.96,-61.6 46.39,-21.87 99.76,-53.35 143.19,-69.14 -21.35,-84.15 1.28,-18.53 -50.74,-59.73 -36.25,-28.72 -2.1,6.62 -33.12,-41.53 -71.72,7.83 -137.12,71.5 -217.17,86.04 -5.78,69.58 -32.52,104.42 -17.23,149.93l61.12 -3.96z"/>
   <path class="fil40" d="M6580.22 2939.69c73.65,-14.75 43.84,-67.27 97.96,-187.59l30.35 44.14c5.63,14.12 13.02,39.2 18.03,55.33 18.57,59.77 8.41,84.68 74.07,89.25 1.69,-3.01 3.72,-11.1 4.22,-9.46 0.51,1.66 3.17,-7.17 3.78,-9.78 10.9,-46.8 11.89,-206.54 -8,-238 -54.5,22.82 -11.47,144.25 -22.05,189.44 -24.2,-41.87 -57.5,-162.79 -88.16,-191.92 -63.55,28.91 -42.67,140.96 -90.78,177.85 -1.12,-51.06 14.62,-140.47 -19.42,-172.77 -34.25,28.99 -25.23,220.24 0,253.52z"/>
   <path class="fil41" d="M5910.25 2861.19c58.21,49.74 96.35,25.92 151.67,-0.43 11.68,-82.19 38.86,-178.77 -81.79,-179.17 -76.58,-0.26 -89.29,56.65 -87.39,120.35l17.5 59.25z"/>
   <path class="fil42" d="M5292.46 11629.68c-1.31,14.4 1.02,57.24 1.18,74.76 1.86,201.94 -11.07,187.41 98.2,189.7 116.31,2.43 102.31,1.73 118.11,-30.48 -18.38,-45.01 26.16,-32.96 -67.85,-34.77 -26.58,-0.51 -46.45,3.59 -77.31,1.29 -11.08,-42.13 -6.3,-92.75 -5.73,-138.03 1.9,-150.15 4.41,-107.83 -40.1,-116.95 -33.53,20.75 -19.6,-21.53 -26.49,54.48z"/>
   <polygon class="fil8" points="6210.22,11837.21 6345.76,11837.48 6351.41,11639.93 6207.65,11636.73 "/>
   <polygon class="fil35" points="5602.6,11833.77 5740.95,11836.6 5743.63,11647 5598.93,11637.13 "/>
   <path class="fil40" d="M5429.16 2942.3c38.93,-30.07 20.33,-77.59 18.64,-181.77 49.48,30.46 59.38,78.08 109.83,145.47 17.67,23.6 14.79,28.27 55.21,33.35 5.12,-16.87 24.07,-224.51 -12.25,-256.51 -31.8,40.27 -13.44,125.44 -12.89,180.95 -75.16,-37.57 -79.88,-167.29 -167.63,-179.12 -10.04,31.85 -24.81,208.84 9.09,257.62z"/>
   <path class="fil43" d="M5080.68 2808.21c-82.36,29.58 -118.28,-78.51 -18.88,-89.69 33.6,25.88 52.15,40.5 18.88,89.69zm-72.7 42.97l88.86 -8.07c7.37,110.23 -69.5,45.37 -125.21,27.9 24.11,155.02 229.47,50.15 160.89,-127.14 -19.31,-49.91 -79.78,-83.48 -135.24,-43.36 -67.85,49.09 -18.12,102.01 10.7,150.67z"/>
   <path class="fil43" d="M6188.37 2722.44c56.79,3.44 68.39,32.35 61.18,95.7 -27.1,22.52 -24.13,25.86 -64.55,32.39 -28.87,-35.41 -46.81,-89.05 3.37,-128.08zm-48.98 215.32c28.21,-15.59 4.06,3.9 17.93,-18.34l18.81 -38.08c81.17,4.54 123.23,-25.14 114.22,-115.83 -9.83,-98.98 -75.59,-78.48 -167.21,-78.86 -3.03,49.34 -17.46,212.23 16.25,251.12z"/>
   <path class="fil44" d="M5353.85 2860.37c-70.39,20.57 -40.21,72.31 -120.2,29.05 7.07,-58.37 26.67,-21.95 52.97,-62.83 -26.56,-30.22 -39.28,-15.52 -60.74,-36.43l0.67 -66.44c99.95,-18.23 66.76,33.26 121.32,46.71l-7.73 -72.52c-224.19,-60.89 -138.06,131.35 -137.98,132.25 1.59,17.86 -1.92,13.99 -2.95,26.04 -1.43,16.67 -11.42,3.01 -0.15,39.55 15.48,50.17 132.17,87.69 154.8,-35.39z"/>
   <path class="fil40" d="M6408.79 2719.08c102.31,17.98 60.84,127.51 11.57,129.01 -47.98,1.46 -89.37,-87.13 -11.57,-129.01zm-19.88 -29.31c-113.9,46.76 -58.15,230.56 59.81,189.28 114.11,-39.93 58.63,-237.9 -59.81,-189.28z"/>
   <path class="fil18" d="M6446.01 11582.01l-2.58 54.35 247.04 -3.5 -1.4 -59.48c-70.45,-2.57 -188.98,-17.69 -243.07,8.62z"/>
   <path class="fil13" d="M6596.17 11904.53c11.24,-62.54 18.7,-172.59 -3.7,-226.84l-49.25 2.04c-12.8,46.18 -7.02,101.54 -7.21,148.03 -0.26,62.68 -5.67,81.4 60.16,76.77z"/>
   <polygon class="fil40" points="5153.79,11896.45 5213.95,11897.37 5212.08,11667.85 5153.79,11675.83 "/>
   <path class="fil45" d="M6408.79 2719.08c-77.79,41.88 -36.41,130.47 11.57,129.01 49.27,-1.5 90.74,-111.03 -11.57,-129.01z"/>
   <path class="fil45" d="M6043.23 11838.26c15.72,-84.3 -14.58,-71.93 -62.29,-73.34 -22.9,-0.68 -48.35,0.54 -72.65,1.83l1.6 69.54 133.34 1.97z"/>
   <path class="fil45" d="M6188.37 2722.44c-50.19,39.04 -32.24,92.67 -3.37,128.08 40.42,-6.53 37.45,-9.86 64.55,-32.39 7.21,-63.35 -4.39,-92.26 -61.18,-95.7z"/>
   <path class="fil20" d="M5080.68 2808.21c33.27,-49.19 14.72,-63.82 -18.88,-89.69 -99.4,11.18 -63.48,119.27 18.88,89.69z"/>
   <polygon class="fil46" points="5762.97,21231.49 5818.88,21226.36 5820.16,21167.57 5756.66,21170.31 "/>
  </g>
 </g>
</svg>
